<svg width="19" height="19" viewBox="0 0 19 19" fill="none" xmlns="http://www.w3.org/2000/svg">
<path d="M17 8.999H19C19 3.869 15.127 0 9.98999 0V2C14.052 2 17 4.943 17 8.999Z" fill="white"/>
<path d="M9.99998 5.99999C12.103 5.99999 13 6.89699 13 8.99999H15C15 5.77499 13.225 3.99999 9.99998 3.99999V5.99999ZM13.422 11.443C13.2298 11.2683 12.9773 11.1752 12.7178 11.1832C12.4582 11.1912 12.212 11.2998 12.031 11.486L9.63798 13.947C9.06198 13.837 7.90398 13.476 6.71198 12.287C5.51998 11.094 5.15898 9.93299 5.05198 9.361L7.51098 6.96699C7.69739 6.78612 7.80611 6.53982 7.81414 6.2802C7.82216 6.02059 7.72886 5.76804 7.55398 5.57599L3.85898 1.51299C3.68402 1.32035 3.44086 1.2035 3.18113 1.18725C2.9214 1.17101 2.66557 1.25665 2.46798 1.42599L0.297977 3.28699C0.125088 3.46051 0.0218963 3.69145 0.00797679 3.93599C-0.00702321 4.18599 -0.293023 10.108 4.29898 14.702C8.30498 18.707 13.323 19 14.705 19C14.907 19 15.031 18.994 15.064 18.992C15.3085 18.9783 15.5393 18.8747 15.712 18.701L17.572 16.53C17.7414 16.3325 17.8273 16.0768 17.8112 15.817C17.7951 15.5573 17.6785 15.3141 17.486 15.139L13.422 11.443Z" fill="white"/>
</svg>
