<svg width="17" height="17" viewBox="0 0 17 17" fill="none" xmlns="http://www.w3.org/2000/svg">
<path d="M15.2916 15.6171C14.6729 16.2357 14.2496 16.8609 13.3548 16.9592C10.6066 17.2624 7.87338 15.8313 5.7929 14.1609C3.13172 12.024 0.452995 8.75179 0.0724203 5.22177C-0.155436 3.10707 0.11688 2.98463 1.42938 1.65826L2.20094 0.875441C2.57606 0.500736 2.98084 0.0629433 3.53935 0.00450919C4.19978 -0.0687626 4.53691 0.768783 4.83146 1.21861L6.23843 3.36764C6.42367 3.65145 6.72101 4.04192 6.86921 4.32854C7.2675 5.09374 6.4663 5.60293 5.99113 6.04628C5.77717 6.24662 5.57155 6.45624 5.36222 6.6612C6.16527 8.71748 8.39758 10.7264 10.3194 11.6883C10.7325 11.3553 11.2772 10.7432 11.6421 10.3508C12.2794 9.66357 13.0667 10.3935 13.6419 10.7617L16.2205 12.4238C16.8828 12.8477 17.2876 13.2604 16.7531 14.1156C16.5892 14.3771 16.3233 14.6007 16.1038 14.8168L15.2916 15.6171Z" fill="#0D4C79"/>
</svg>
