<svg width="27" height="27" viewBox="0 0 27 27" fill="none" xmlns="http://www.w3.org/2000/svg">
<circle cx="13.2588" cy="13.2588" r="13.2588" fill="#0D4C79"/>
<circle cx="13.2588" cy="13.2588" r="12.7588" stroke="white" stroke-opacity="0.7"/>
<path d="M14.8673 6.34667C14.9364 6.33746 15.0127 6.34233 15.0825 6.34249L15.4473 6.34301L16.7176 6.34334L16.7172 8.62385L15.754 8.62398C15.5446 8.6238 15.2666 8.60105 15.0666 8.65065C15.0506 8.65461 15.0347 8.65913 15.019 8.6642C15.0033 8.66926 14.9878 8.67487 14.9724 8.68102C14.9571 8.68717 14.9419 8.69384 14.927 8.70104C14.9121 8.70823 14.8975 8.71595 14.883 8.72417C14.8686 8.73238 14.8545 8.74109 14.8407 8.75029C14.8268 8.7595 14.8133 8.76917 14.8001 8.7793C14.7869 8.78945 14.774 8.80005 14.7615 8.81109C14.749 8.82212 14.7368 8.83357 14.7251 8.84546C14.4016 9.17777 14.4595 9.68309 14.4598 10.1126L14.4594 10.9489C15.2114 10.94 15.9646 10.9486 16.7168 10.9487C16.6915 11.1458 16.6552 11.3422 16.6229 11.5383L16.4478 12.6044C16.4135 12.8145 16.376 13.0246 16.3481 13.2357L14.4597 13.2358L14.4599 17.9888C14.4598 18.708 14.4528 19.428 14.461 20.1472C14.4583 20.1544 14.4568 20.1648 14.4494 20.1677C14.4427 20.1704 12.1061 20.1838 11.8673 20.1708C11.8536 20.17 11.8438 20.1672 11.8314 20.1608C11.8404 19.3751 11.8322 18.5883 11.8322 17.8025L11.8323 13.2367C11.3489 13.2248 10.8628 13.2356 10.3792 13.2355C10.3736 12.9454 10.3783 12.6543 10.3783 12.3641L10.3791 10.9488L11.8322 10.9484L11.8321 9.94705C11.832 9.03561 11.8598 8.03755 12.4618 7.30375C12.9499 6.70886 13.6884 6.47287 14.4148 6.3835C14.5646 6.36507 14.7168 6.35956 14.8673 6.34667Z" fill="white"/>
</svg>
