<svg width="27" height="27" viewBox="0 0 27 27" fill="none" xmlns="http://www.w3.org/2000/svg">
<circle cx="13.2588" cy="13.2588" r="12.7588" stroke="white" stroke-opacity="0.7"/>
<path d="M14.8673 6.34679C14.9364 6.33759 15.0127 6.34246 15.0825 6.34261L15.4473 6.34313L16.7176 6.34347L16.7172 8.62398L15.754 8.6241C15.5446 8.62392 15.2666 8.60118 15.0666 8.65077C15.0506 8.65474 15.0347 8.65925 15.019 8.66432C15.0033 8.66939 14.9878 8.67499 14.9724 8.68114C14.9571 8.68729 14.9419 8.69396 14.927 8.70116C14.9121 8.70836 14.8975 8.71607 14.883 8.72429C14.8686 8.7325 14.8545 8.74121 14.8407 8.75042C14.8268 8.75962 14.8133 8.76929 14.8001 8.77942C14.7869 8.78957 14.774 8.80017 14.7615 8.81122C14.749 8.82224 14.7368 8.8337 14.7251 8.84558C14.4016 9.17789 14.4595 9.68321 14.4598 10.1128L14.4594 10.949C15.2114 10.9401 15.9646 10.9487 16.7168 10.9488C16.6915 11.1459 16.6552 11.3423 16.6229 11.5384L16.4478 12.6045C16.4135 12.8146 16.376 13.0247 16.3481 13.2358L14.4597 13.2359L14.4599 17.9889C14.4598 18.7081 14.4528 19.4282 14.461 20.1473C14.4583 20.1545 14.4568 20.1649 14.4494 20.1678C14.4427 20.1705 12.1061 20.1839 11.8673 20.1709C11.8536 20.1701 11.8438 20.1673 11.8314 20.1609C11.8404 19.3752 11.8322 18.5884 11.8322 17.8026L11.8323 13.2368C11.3489 13.2249 10.8628 13.2357 10.3792 13.2357C10.3736 12.9455 10.3783 12.6544 10.3783 12.3642L10.3791 10.9489L11.8322 10.9485L11.8321 9.94717C11.832 9.03573 11.8598 8.03768 12.4618 7.30388C12.9499 6.70898 13.6884 6.47299 14.4148 6.38362C14.5646 6.36519 14.7168 6.35968 14.8673 6.34679Z" fill="white"/>
</svg>
