<svg width="27" height="27" viewBox="0 0 27 27" fill="none" xmlns="http://www.w3.org/2000/svg">
<circle cx="13.294" cy="13.2588" r="12.7588" stroke="white" stroke-opacity="0.7"/>
<path d="M7.6719 10.7607L10.0854 10.7614L10.0856 16.9932C10.0856 17.1152 10.0993 18.3903 10.0845 18.4274C10.0821 18.4334 10.0764 18.4375 10.0724 18.4425C9.78816 18.4507 9.50236 18.4452 9.21795 18.4452L7.6716 18.445L7.6719 10.7607Z" fill="white"/>
<path d="M16.1482 10.6187C16.8512 10.6111 17.6298 10.7649 18.1638 11.2399C18.5474 11.581 18.7672 12.0527 18.8897 12.5388C19.081 13.2976 19.0553 14.0819 19.0556 14.8576L19.0552 17.2093C19.0551 17.614 19.038 18.0273 19.0587 18.431C18.7848 18.4439 18.5072 18.4356 18.2329 18.4355L16.6373 18.4354L16.6369 16.0241L16.6366 14.9739C16.6364 14.4674 16.6693 13.9123 16.4954 13.4284C16.4 13.1629 16.233 12.9377 15.9679 12.8139C15.621 12.652 15.1622 12.663 14.8055 12.7883C14.4871 12.9002 14.2806 13.1166 14.1386 13.412C14.0431 13.642 13.9883 13.8852 13.9628 14.1321C13.939 14.3613 13.9432 14.5927 13.9432 14.8228L13.9432 15.6742L13.943 18.4458L11.5169 18.447L11.5174 12.9888C11.5174 12.2643 11.5099 11.539 11.5202 10.8146L13.84 10.8147L13.8415 11.8885C13.9349 11.7246 14.0474 11.5667 14.1773 11.4287C14.699 10.8744 15.3948 10.6482 16.1482 10.6187Z" fill="white"/>
</svg>
