<svg width="27" height="27" viewBox="0 0 27 27" fill="none" xmlns="http://www.w3.org/2000/svg">
<circle cx="13.294" cy="13.2588" r="13.2588" fill="#0D4C79"/>
<circle cx="13.294" cy="13.2588" r="12.7588" stroke="white" stroke-opacity="0.7"/>
<rect width="11.5294" height="11.5294" transform="translate(7.52927 6.91772)" fill="#0D4C79"/>
<path d="M8.70692 6.93284C8.70864 6.93249 8.71034 6.93206 8.71207 6.93178C9.02681 6.88001 9.37787 6.97471 9.63881 7.15946C9.65717 7.17236 9.67522 7.18573 9.69294 7.19956C9.71067 7.21339 9.72806 7.22767 9.74511 7.24239C9.76216 7.25712 9.77885 7.27228 9.79519 7.28787C9.81152 7.30346 9.82747 7.31946 9.84305 7.33587C9.85862 7.35228 9.87379 7.36909 9.88857 7.38628C9.90335 7.40348 9.91771 7.42105 9.93165 7.43898C9.94559 7.45692 9.9591 7.4752 9.97218 7.49384C9.98526 7.51247 9.99788 7.53143 10.0101 7.55072C10.0222 7.57001 10.034 7.58959 10.0452 7.60948C10.0564 7.62937 10.0672 7.64954 10.0775 7.66999C10.0878 7.69043 10.0976 7.71113 10.1069 7.73208C10.1162 7.75304 10.125 7.77422 10.1333 7.79562C10.1416 7.81703 10.1494 7.83864 10.1567 7.86045C10.164 7.88225 10.1708 7.90424 10.177 7.9264C10.1832 7.94855 10.189 7.97086 10.1941 7.99331C10.1993 8.01576 10.204 8.03834 10.2081 8.06103C10.2125 8.08438 10.2163 8.10784 10.2196 8.13139C10.2228 8.15495 10.2255 8.17857 10.2277 8.20226C10.2298 8.22596 10.2314 8.24969 10.2324 8.27347C10.2334 8.29724 10.2338 8.32103 10.2337 8.34483C10.2335 8.36863 10.2328 8.39241 10.2315 8.41617C10.2303 8.43993 10.2284 8.46365 10.226 8.48731C10.2236 8.51098 10.2206 8.53457 10.2171 8.55807C10.2135 8.58158 10.2094 8.60499 10.2047 8.62828C10.2001 8.65158 10.1949 8.67474 10.1891 8.69776C10.1833 8.72079 10.177 8.74365 10.1701 8.76634C10.1633 8.78903 10.1558 8.81153 10.1479 8.83384C10.1399 8.85615 10.1315 8.87824 10.1225 8.90011C10.1135 8.92197 10.1039 8.94359 10.0939 8.96496C10.0839 8.98633 10.0733 9.00742 10.0623 9.02824C10.0512 9.04906 10.0397 9.06958 10.0276 9.0898C10.0156 9.11002 10.0031 9.12991 9.9901 9.14948C9.76596 9.48864 9.44272 9.67591 9.06005 9.74902C9.03932 9.75259 9.01851 9.75555 8.99762 9.7579C8.65832 9.79536 8.29739 9.67062 8.03416 9.44804C7.76777 9.22279 7.57447 8.88104 7.53863 8.52287C7.4988 8.12483 7.58429 7.75059 7.82926 7.43766C8.04508 7.16197 8.36611 6.96945 8.70692 6.93284Z" fill="white"/>
<path d="M7.6719 10.7607L10.0854 10.7614L10.0856 16.9932C10.0856 17.1152 10.0993 18.3903 10.0845 18.4274C10.0821 18.4334 10.0764 18.4375 10.0724 18.4425C9.78816 18.4507 9.50236 18.4452 9.21795 18.4452L7.6716 18.445L7.6719 10.7607Z" fill="white"/>
<path d="M16.1482 10.6187C16.8512 10.6111 17.6298 10.7649 18.1638 11.2399C18.5474 11.581 18.7672 12.0527 18.8897 12.5388C19.081 13.2976 19.0553 14.0819 19.0556 14.8576L19.0552 17.2093C19.0551 17.614 19.038 18.0273 19.0587 18.431C18.7848 18.4439 18.5072 18.4356 18.2329 18.4355L16.6373 18.4354L16.6369 16.0241L16.6366 14.9739C16.6364 14.4674 16.6693 13.9123 16.4954 13.4284C16.4 13.1629 16.233 12.9377 15.9679 12.8139C15.621 12.652 15.1622 12.663 14.8055 12.7883C14.4871 12.9002 14.2806 13.1166 14.1386 13.412C14.0431 13.642 13.9883 13.8852 13.9628 14.1321C13.939 14.3613 13.9432 14.5927 13.9432 14.8228L13.9432 15.6742L13.943 18.4458L11.5169 18.447L11.5174 12.9888C11.5174 12.2643 11.5099 11.539 11.5202 10.8146L13.84 10.8147L13.8415 11.8885C13.9349 11.7246 14.0474 11.5667 14.1773 11.4287C14.699 10.8744 15.3948 10.6482 16.1482 10.6187Z" fill="white"/>
</svg>
