<svg width="23" height="17" viewBox="0 0 23 17" fill="none" xmlns="http://www.w3.org/2000/svg">
<path d="M20.5357 0H2.46429C1.81072 0 1.18392 0.26866 0.721773 0.746878C0.259629 1.2251 0 1.8737 0 2.55V14.45C0 15.1263 0.259629 15.7749 0.721773 16.2531C1.18392 16.7313 1.81072 17 2.46429 17H20.5357C21.1893 17 21.8161 16.7313 22.2782 16.2531C22.7404 15.7749 23 15.1263 23 14.45V2.55C23 1.8737 22.7404 1.2251 22.2782 0.746878C21.8161 0.26866 21.1893 0 20.5357 0ZM2.46429 1.7H20.5357C20.7536 1.7 20.9625 1.78955 21.1166 1.94896C21.2706 2.10837 21.3571 2.32457 21.3571 2.55V3.4L12.6664 8.194C12.3078 8.39339 11.9071 8.49775 11.5 8.49775C11.0929 8.49775 10.6922 8.39339 10.3336 8.194L1.64286 3.4V2.55C1.64286 2.32457 1.7294 2.10837 1.88345 1.94896C2.0375 1.78955 2.24643 1.7 2.46429 1.7ZM20.5357 15.3H2.46429C2.24643 15.3 2.0375 15.2104 1.88345 15.051C1.7294 14.8916 1.64286 14.6754 1.64286 14.45V5.287L9.55322 9.69C10.1516 10.0233 10.8205 10.1978 11.5 10.1978C12.1795 10.1978 12.8484 10.0233 13.4468 9.69L21.3571 5.287V14.45C21.3571 14.6754 21.2706 14.8916 21.1166 15.051C20.9625 15.2104 20.7536 15.3 20.5357 15.3Z" fill="white"/>
</svg>
