<svg width="28" height="27" viewBox="0 0 28 27" fill="none" xmlns="http://www.w3.org/2000/svg">
<circle cx="13.7764" cy="13.2588" r="12.7588" stroke="white" stroke-opacity="0.7"/>
<path d="M18.45 10.5427C18.45 10.5427 18.611 14.0685 16.0261 16.2451C12.1708 19.5011 8.01169 16.8591 8.01169 16.8591C8.01169 16.8591 9.02242 16.8777 9.91691 16.6266C10.8112 16.3753 11.4463 15.78 11.4463 15.78C11.4463 15.78 10.4714 15.5662 9.97042 15.1846C9.4607 14.8033 9.27279 14.0685 9.27279 14.0685C9.27279 14.0685 9.60381 14.0964 9.81835 14.0964C10.0331 14.0871 10.2925 13.9846 10.2925 13.9846C10.2925 13.9846 9.59485 13.901 8.94177 13.1382C8.43206 12.5428 8.4679 11.5473 8.4679 11.5473C8.4679 11.5473 8.77178 11.7334 8.94177 11.78C9.1028 11.8266 9.4159 11.8266 9.4159 11.8266C9.4159 11.8266 8.80762 11.4451 8.53036 10.4775C8.26207 9.50087 8.78074 8.51466 8.78074 8.51466C8.78074 8.51466 9.67524 9.64971 11.026 10.3846C12.3767 11.1194 13.6467 11.0915 13.6467 11.0915C13.6467 11.0915 13.4588 10.5054 13.7809 9.64971C14.1029 8.78464 14.8364 8.17066 15.9454 8.07747C17.0545 7.98455 17.7613 8.85893 17.7613 8.85893C17.7613 8.85893 18.101 8.79396 18.4948 8.64513C18.8883 8.49629 19.2728 8.31018 19.2728 8.31018C19.2728 8.31018 19.1387 8.74737 18.8704 9.09164C18.6021 9.43564 18.2979 9.64039 18.2979 9.64039C18.2979 9.64039 18.6469 9.61243 18.9955 9.51019C19.3445 9.40795 19.5411 9.30544 19.5411 9.30544C19.1566 10.0126 18.45 10.5427 18.45 10.5427Z" fill="white"/>
</svg>
