<svg width="30" height="32" viewBox="0 0 30 32" fill="none" xmlns="http://www.w3.org/2000/svg">
<path d="M16.2676 28.1419H7.37737C7.23231 28.1419 7.10797 28.0901 7.00435 27.9865C6.89556 27.8829 6.84375 27.7534 6.84375 27.6083C6.84375 27.4581 6.89556 27.3337 7.00435 27.2301C7.10797 27.1265 7.23231 27.0747 7.37737 27.0747H16.2676C16.4126 27.0747 16.537 27.1265 16.6406 27.2301C16.7494 27.3337 16.8012 27.4581 16.8012 27.6083C16.8012 27.7534 16.7494 27.8829 16.6406 27.9865C16.537 28.0901 16.4126 28.1419 16.2676 28.1419Z" fill="#AFFF25"/>
<path d="M26.6137 28.1421H18.9047C18.7597 28.1421 18.6353 28.0903 18.5317 27.9867C18.4281 27.8831 18.3711 27.7536 18.3711 27.6085C18.3711 27.4583 18.4281 27.3339 18.5317 27.2303C18.6353 27.1267 18.7597 27.0749 18.9047 27.0749H26.0801V6.12901H8.56389C8.41365 6.12901 8.28931 6.0772 8.1857 5.97358C8.08208 5.86479 8.03027 5.74045 8.03027 5.59539C8.03027 5.44514 8.08208 5.32081 8.1857 5.21719C8.28931 5.11358 8.41365 5.06177 8.56389 5.06177H26.6137C26.7588 5.06177 26.8831 5.11358 26.9867 5.21719C27.0955 5.32081 27.1473 5.44514 27.1473 5.59539V27.6085C27.1473 27.7536 27.0955 27.8831 26.9867 27.9867C26.8831 28.0903 26.7588 28.1421 26.6137 28.1421Z" fill="#AFFF25"/>
<mask id="mask0_1_488" style="mask-type:luminance" maskUnits="userSpaceOnUse" x="25" y="3" width="5" height="4">
<path d="M25.3442 3.94775H29.7893V6.60031H25.3442V3.94775Z" fill="white"/>
</mask>
<g mask="url(#mask0_1_488)">
<path d="M29.349 6.12885H26.6135C26.4633 6.12885 26.3389 6.07705 26.2353 5.96825C26.1317 5.86463 26.0799 5.7403 26.0799 5.59523C26.0799 5.44499 26.1317 5.32065 26.2353 5.21704C26.3389 5.11342 26.4633 5.06161 26.6135 5.06161H29.349C29.494 5.06161 29.6236 5.11342 29.7272 5.21704C29.8308 5.32065 29.8826 5.44499 29.8826 5.59523C29.8826 5.7403 29.8308 5.86463 29.7272 5.96825C29.6236 6.07705 29.494 6.12885 29.349 6.12885Z" fill="#AFFF25"/>
</g>
<mask id="mask1_1_488" style="mask-type:luminance" maskUnits="userSpaceOnUse" x="25" y="6" width="5" height="4">
<path d="M25.3442 6.60034H29.7893V9.2529H25.3442V6.60034Z" fill="white"/>
</mask>
<g mask="url(#mask1_1_488)">
<path d="M29.349 8.5742H26.6135C26.4633 8.5742 26.3389 8.52239 26.2353 8.41877C26.1317 8.31516 26.0799 8.19082 26.0799 8.04058C26.0799 7.89551 26.1317 7.766 26.2353 7.66238C26.3389 7.55877 26.4633 7.50696 26.6135 7.50696H29.349C29.494 7.50696 29.6236 7.55877 29.7272 7.66238C29.8308 7.766 29.8826 7.89551 29.8826 8.04058C29.8826 8.19082 29.8308 8.31516 29.7272 8.41877C29.6236 8.52239 29.494 8.5742 29.349 8.5742Z" fill="#AFFF25"/>
</g>
<mask id="mask2_1_488" style="mask-type:luminance" maskUnits="userSpaceOnUse" x="25" y="9" width="5" height="3">
<path d="M25.3442 9.25293H29.7893V11.9055H25.3442V9.25293Z" fill="white"/>
</mask>
<g mask="url(#mask2_1_488)">
<path d="M29.349 11.0196H26.6135C26.4633 11.0196 26.3389 10.9678 26.2353 10.8641C26.1317 10.7605 26.0799 10.631 26.0799 10.486C26.0799 10.3357 26.1317 10.2114 26.2353 10.1078C26.3389 10.0041 26.4633 9.95233 26.6135 9.95233H29.349C29.494 9.95233 29.6236 10.0041 29.7272 10.1078C29.8308 10.2114 29.8826 10.3357 29.8826 10.486C29.8826 10.631 29.8308 10.7605 29.7272 10.8641C29.6236 10.9678 29.494 11.0196 29.349 11.0196Z" fill="#AFFF25"/>
</g>
<mask id="mask3_1_488" style="mask-type:luminance" maskUnits="userSpaceOnUse" x="25" y="11" width="5" height="4">
<path d="M25.3442 11.9055H29.7893V14.5581H25.3442V11.9055Z" fill="white"/>
</mask>
<g mask="url(#mask3_1_488)">
<path d="M29.349 13.4649H26.6135C26.4633 13.4649 26.3389 13.4131 26.2353 13.3095C26.1317 13.2059 26.0799 13.0764 26.0799 12.9313C26.0799 12.7863 26.1317 12.6567 26.2353 12.5531C26.3389 12.4495 26.4633 12.3977 26.6135 12.3977H29.349C29.494 12.3977 29.6236 12.4495 29.7272 12.5531C29.8308 12.6567 29.8826 12.7863 29.8826 12.9313C29.8826 13.0764 29.8308 13.2059 29.7272 13.3095C29.6236 13.4131 29.494 13.4649 29.349 13.4649Z" fill="#AFFF25"/>
</g>
<mask id="mask4_1_488" style="mask-type:luminance" maskUnits="userSpaceOnUse" x="25" y="14" width="5" height="4">
<path d="M25.3442 14.5581H29.7893V17.2107H25.3442V14.5581Z" fill="white"/>
</mask>
<g mask="url(#mask4_1_488)">
<path d="M29.349 15.9103H26.6135C26.4633 15.9103 26.3389 15.8585 26.2353 15.7549C26.1317 15.6512 26.0799 15.5217 26.0799 15.3767C26.0799 15.2264 26.1317 15.1021 26.2353 14.9985C26.3389 14.8949 26.4633 14.843 26.6135 14.843H29.349C29.494 14.843 29.6236 14.8949 29.7272 14.9985C29.8308 15.1021 29.8826 15.2264 29.8826 15.3767C29.8826 15.5217 29.8308 15.6512 29.7272 15.7549C29.6236 15.8585 29.494 15.9103 29.349 15.9103Z" fill="#AFFF25"/>
</g>
<mask id="mask5_1_488" style="mask-type:luminance" maskUnits="userSpaceOnUse" x="25" y="17" width="5" height="2">
<path d="M25.3442 17.2107H29.7893V18.537H25.3442V17.2107Z" fill="white"/>
</mask>
<g mask="url(#mask5_1_488)">
<path d="M29.349 18.3556H26.6135C26.4633 18.3556 26.3389 18.3038 26.2353 18.2002C26.1317 18.0966 26.0799 17.9723 26.0799 17.822C26.0799 17.6769 26.1317 17.5526 26.2353 17.4438C26.3389 17.3402 26.4633 17.2884 26.6135 17.2884H29.349C29.494 17.2884 29.6236 17.3402 29.7272 17.4438C29.8308 17.5526 29.8826 17.6769 29.8826 17.822C29.8826 17.9723 29.8308 18.0966 29.7272 18.2002C29.6236 18.3038 29.494 18.3556 29.349 18.3556Z" fill="#AFFF25"/>
</g>
<mask id="mask6_1_488" style="mask-type:luminance" maskUnits="userSpaceOnUse" x="25" y="18" width="5" height="4">
<path d="M25.3442 18.5369H29.7893V21.1894H25.3442V18.5369Z" fill="white"/>
</mask>
<g mask="url(#mask6_1_488)">
<path d="M29.349 20.8009H26.6135C26.4633 20.8009 26.3389 20.7491 26.2353 20.6455C26.1317 20.5418 26.0799 20.4175 26.0799 20.2673C26.0799 20.1222 26.1317 19.9979 26.2353 19.8942C26.3389 19.7906 26.4633 19.7336 26.6135 19.7336H29.349C29.494 19.7336 29.6236 19.7906 29.7272 19.8942C29.8308 19.9979 29.8826 20.1222 29.8826 20.2673C29.8826 20.4175 29.8308 20.5418 29.7272 20.6455C29.6236 20.7491 29.494 20.8009 29.349 20.8009Z" fill="#AFFF25"/>
</g>
<mask id="mask7_1_488" style="mask-type:luminance" maskUnits="userSpaceOnUse" x="25" y="21" width="5" height="3">
<path d="M25.3442 21.1895H29.7893V23.842H25.3442V21.1895Z" fill="white"/>
</mask>
<g mask="url(#mask7_1_488)">
<path d="M29.349 23.2514H26.6135C26.4633 23.2514 26.3389 23.1944 26.2353 23.0908C26.1317 22.9872 26.0799 22.8628 26.0799 22.7178C26.0799 22.5675 26.1317 22.4432 26.2353 22.3396C26.3389 22.2359 26.4633 22.1841 26.6135 22.1841H29.349C29.494 22.1841 29.6236 22.2359 29.7272 22.3396C29.8308 22.4432 29.8826 22.5675 29.8826 22.7178C29.8826 22.8628 29.8308 22.9872 29.7272 23.0908C29.6236 23.1944 29.494 23.2514 29.349 23.2514Z" fill="#AFFF25"/>
</g>
<mask id="mask8_1_488" style="mask-type:luminance" maskUnits="userSpaceOnUse" x="25" y="23" width="5" height="4">
<path d="M25.3442 23.842H29.7893V26.4946H25.3442V23.842Z" fill="white"/>
</mask>
<g mask="url(#mask8_1_488)">
<path d="M29.349 25.6968H26.6135C26.4633 25.6968 26.3389 25.6449 26.2353 25.5362C26.1317 25.4325 26.0799 25.3082 26.0799 25.1631C26.0799 25.0129 26.1317 24.8886 26.2353 24.7849C26.3389 24.6813 26.4633 24.6295 26.6135 24.6295H29.349C29.494 24.6295 29.6236 24.6813 29.7272 24.7849C29.8308 24.8886 29.8826 25.0129 29.8826 25.1631C29.8826 25.3082 29.8308 25.4325 29.7272 25.5362C29.6236 25.6449 29.494 25.6968 29.349 25.6968Z" fill="#AFFF25"/>
</g>
<mask id="mask9_1_488" style="mask-type:luminance" maskUnits="userSpaceOnUse" x="25" y="26" width="5" height="4">
<path d="M25.3442 26.4946H29.7893V29.1472H25.3442V26.4946Z" fill="white"/>
</mask>
<g mask="url(#mask9_1_488)">
<path d="M29.349 28.1421H26.6135C26.4633 28.1421 26.3389 28.0903 26.2353 27.9867C26.1317 27.8779 26.0799 27.7536 26.0799 27.6085C26.0799 27.4583 26.1317 27.3339 26.2353 27.2303C26.3389 27.1267 26.4633 27.0749 26.6135 27.0749H29.349C29.494 27.0749 29.6236 27.1267 29.7272 27.2303C29.8308 27.3339 29.8826 27.4583 29.8826 27.6085C29.8826 27.7536 29.8308 27.8779 29.7272 27.9867C29.6236 28.0903 29.494 28.1421 29.349 28.1421Z" fill="#AFFF25"/>
</g>
<mask id="mask10_1_488" style="mask-type:luminance" maskUnits="userSpaceOnUse" x="0" y="15" width="10" height="15">
<path d="M0 15.8843H9.42901V29.1471H0V15.8843Z" fill="white"/>
</mask>
<g mask="url(#mask10_1_488)">
<path d="M7.37225 28.142L6.29465 28.1368C5.32066 28.1368 4.38812 27.9296 3.50221 27.5203C2.80281 27.1887 2.17593 26.7484 1.62677 26.2044C1.37291 25.9453 1.13978 25.6707 0.937728 25.3703C0.735677 25.0698 0.564711 24.7538 0.424831 24.417C0.29013 24.0854 0.181335 23.7383 0.113984 23.386C0.0414541 23.0337 0.00518799 22.6711 0.00518799 22.3136C0.00518799 21.951 0.0414541 21.5935 0.113984 21.236C0.181335 20.8837 0.29013 20.5366 0.424831 20.205C0.564711 19.8683 0.735677 19.5523 0.937728 19.2518C1.13978 18.9513 1.37291 18.6767 1.62677 18.4228C2.05159 17.998 2.54377 17.6716 3.09811 17.4437C3.65245 17.2157 4.2327 17.1017 4.82849 17.1017C5.42946 17.1017 6.00971 17.2157 6.56405 17.4437C7.11839 17.6716 7.61057 17.998 8.03539 18.4228C8.3825 18.77 8.65708 19.1689 8.84359 19.6248C9.03528 20.0807 9.12853 20.5521 9.12853 21.0443C9.12853 21.5417 9.03528 22.0131 8.84359 22.469C8.65708 22.9249 8.3825 23.3239 8.03539 23.671C7.74527 23.9611 7.40852 24.1839 7.03032 24.3393C6.65212 24.4947 6.25838 24.5724 5.8491 24.5724C5.43982 24.5724 5.04608 24.4947 4.66789 24.3393C4.28969 24.1839 3.95294 23.9611 3.66282 23.671C3.41932 23.4327 3.23281 23.1529 3.10329 22.842C2.97377 22.526 2.90642 22.1944 2.90642 21.8577C2.90642 21.5158 2.97377 21.1842 3.10329 20.8734C3.23281 20.5573 3.41932 20.2776 3.66282 20.0392C3.76643 19.9356 3.89595 19.8838 4.04101 19.8838C4.19125 19.8838 4.31559 19.9356 4.41921 20.0392C4.52282 20.1429 4.57463 20.2724 4.57463 20.4174C4.57463 20.5677 4.52282 20.692 4.41403 20.7956C4.27415 20.9355 4.16535 21.0961 4.08764 21.2826C4.01511 21.464 3.97366 21.6556 3.97366 21.8577C3.97366 22.0546 4.01511 22.2463 4.08764 22.4276C4.16535 22.6141 4.27415 22.7747 4.41403 22.9146C4.60572 23.1063 4.82849 23.2513 5.07717 23.3498C5.32584 23.4534 5.5797 23.5052 5.8491 23.5052C6.1185 23.5052 6.37754 23.4534 6.62622 23.3498C6.8749 23.2513 7.09249 23.1063 7.28418 22.9146C7.53286 22.6711 7.72454 22.381 7.85924 22.0597C7.99394 21.7334 8.06129 21.3966 8.06129 21.0443C8.06129 20.6972 7.99394 20.3605 7.85924 20.0341C7.72454 19.7077 7.53286 19.4227 7.28418 19.1792C6.95779 18.8528 6.57959 18.6042 6.15477 18.4332C5.73513 18.2571 5.28958 18.169 4.83367 18.169C4.37258 18.169 3.93222 18.2571 3.50739 18.4332C3.08257 18.6042 2.70437 18.8528 2.37798 19.1792C1.96352 19.5937 1.63713 20.0703 1.41436 20.6143C1.1864 21.1583 1.07243 21.723 1.07243 22.3136C1.07243 22.899 1.1864 23.4637 1.41436 24.0077C1.63713 24.5517 1.96352 25.0335 2.37798 25.4428C2.84425 25.9039 3.37269 26.2769 3.95812 26.5567C4.70415 26.8986 5.48127 27.0696 6.29983 27.0696L7.37743 27.0747C7.52767 27.0747 7.65201 27.1265 7.75563 27.2302C7.85924 27.3338 7.91105 27.4581 7.91105 27.6084C7.91105 27.7534 7.85924 27.8778 7.75563 27.9866C7.65201 28.0902 7.52767 28.142 7.37743 28.142H7.37225Z" fill="#AFFF25"/>
</g>
<mask id="mask11_1_488" style="mask-type:luminance" maskUnits="userSpaceOnUse" x="0" y="0" width="10" height="24">
<path d="M0 0H9.42901V23.8419H0V0Z" fill="white"/>
</mask>
<g mask="url(#mask11_1_488)">
<path d="M0.549169 23.1529H0.538808C0.393746 23.1529 0.264227 23.1011 0.160611 22.9975C0.0569957 22.8938 0.00518799 22.7695 0.00518799 22.6193V4.78703C0.00518799 4.18088 0.119165 3.60064 0.3523 3.04629C0.585435 2.48677 0.911823 1.9946 1.33665 1.56977C1.76147 1.14495 2.25364 0.818558 2.81317 0.585424C3.36751 0.352288 3.94776 0.238312 4.55391 0.238312C5.15488 0.238312 5.73513 0.352288 6.28947 0.585424C6.84899 0.818558 7.34117 1.14495 7.76599 1.56977C8.19081 1.9946 8.52238 2.48677 8.75034 3.04629C8.98347 3.60064 9.09745 4.18088 9.09745 4.78703V20.5936C9.09745 20.7438 9.04564 20.8682 8.94203 20.9718C8.83841 21.0754 8.70889 21.1272 8.56383 21.1272C8.41877 21.1272 8.28925 21.0754 8.18563 20.9718C8.08202 20.8682 8.03021 20.7438 8.03021 20.5936V4.78703C8.03021 4.32594 7.94214 3.8804 7.76599 3.45557C7.58984 3.02557 7.33599 2.65255 7.0096 2.32616C6.68321 1.99978 6.31019 1.74592 5.88537 1.56977C5.45536 1.39363 5.015 1.30555 4.55391 1.30555C4.09282 1.30555 3.64727 1.39363 3.22245 1.56977C2.79245 1.74592 2.41943 1.99978 2.09304 2.32616C1.76665 2.65255 1.51279 3.02557 1.33665 3.45557C1.1605 3.8804 1.07243 4.32594 1.07243 4.78703V22.5156C1.08279 22.5519 1.08279 22.583 1.08279 22.6193C1.08279 22.7695 1.03098 22.8938 0.927366 22.9975C0.823751 23.1063 0.69423 23.1581 0.549169 23.1529Z" fill="#AFFF25"/>
</g>
<path d="M15.3713 19.1223H12.2939C12.1436 19.1223 12.0193 19.0705 11.9157 18.9669C11.8121 18.8633 11.7603 18.739 11.7603 18.5887V15.2834C11.7603 15.1383 11.8121 15.0088 11.9157 14.9052C12.0193 14.8016 12.1436 14.7498 12.2939 14.7498C12.4389 14.7498 12.5685 14.8016 12.6721 14.9052C12.7757 15.0088 12.8275 15.1383 12.8275 15.2834V18.0551H15.3713C15.5215 18.0551 15.6458 18.1069 15.7495 18.2105C15.8531 18.3193 15.9049 18.4437 15.9049 18.5887C15.9049 18.739 15.8531 18.8633 15.7495 18.9669C15.6458 19.0705 15.5215 19.1223 15.3713 19.1223Z" fill="#AFFF25"/>
<path d="M22.8786 19.1223H19.8012C19.651 19.1223 19.5266 19.0705 19.423 18.9669C19.3194 18.8633 19.2676 18.739 19.2676 18.5887C19.2676 18.4437 19.3194 18.3193 19.423 18.2105C19.5266 18.1069 19.651 18.0551 19.8012 18.0551H22.345V15.2834C22.345 15.1383 22.3968 15.0088 22.5004 14.9052C22.604 14.8016 22.7283 14.7498 22.8786 14.7498C23.0236 14.7498 23.1532 14.8016 23.2568 14.9052C23.3604 15.0088 23.4122 15.1383 23.4122 15.2834V18.5887C23.4122 18.739 23.3604 18.8633 23.2568 18.9669C23.1532 19.0705 23.0236 19.1223 22.8786 19.1223Z" fill="#AFFF25"/>
<path d="M19.8011 20.376H15.3715C15.2264 20.376 15.1021 20.3242 14.9933 20.2206C14.8897 20.117 14.8379 19.9926 14.8379 19.8424V17.3349C14.8379 17.1846 14.8897 17.0603 14.9933 16.9567C15.1021 16.8531 15.2264 16.8013 15.3715 16.8013H19.8011C19.9461 16.8013 20.0757 16.8531 20.1793 16.9567C20.2829 17.0603 20.3347 17.1846 20.3347 17.3349V19.8424C20.3347 19.9926 20.2829 20.117 20.1793 20.2206C20.0757 20.3242 19.9461 20.376 19.8011 20.376ZM15.9051 19.3088H19.2675V17.8685H15.9051V19.3088Z" fill="#AFFF25"/>
<mask id="mask12_1_488" style="mask-type:luminance" maskUnits="userSpaceOnUse" x="14" y="18" width="7" height="14">
<path d="M14.7344 18.5369H20.0395V31.7737H14.7344V18.5369Z" fill="white"/>
</mask>
<g mask="url(#mask12_1_488)">
<path d="M17.589 31.981C17.3403 31.981 17.1072 31.9344 16.8792 31.8359C16.6513 31.7427 16.4492 31.608 16.2782 31.437C16.1021 31.2609 15.9674 31.064 15.8741 30.836C15.7809 30.6081 15.7343 30.3698 15.7343 30.1263V19.8424C15.7343 19.6974 15.7861 19.5678 15.8897 19.4642C15.9933 19.3606 16.1176 19.3088 16.2679 19.3088H18.9049C19.0551 19.3088 19.1795 19.3606 19.2831 19.4642C19.3867 19.5678 19.4385 19.6974 19.4385 19.8424V30.1263C19.4385 30.3698 19.3919 30.6081 19.2986 30.836C19.2054 31.064 19.0707 31.2609 18.8945 31.437C18.7236 31.608 18.5215 31.7427 18.2936 31.8359C18.0708 31.9344 17.8325 31.981 17.589 31.981ZM16.8015 20.376V30.1263C16.8015 30.3439 16.8792 30.5304 17.0295 30.6806C17.1849 30.836 17.3714 30.9137 17.589 30.9137C17.8066 30.9137 17.9879 30.836 18.1433 30.6806C18.2988 30.5304 18.3713 30.3439 18.3713 30.1263V20.376H16.8015Z" fill="#AFFF25"/>
</g>
<path d="M24.2874 15.817H10.8847C10.7396 15.817 10.6153 15.7652 10.5117 15.6616C10.4029 15.5579 10.3511 15.4336 10.3511 15.2834V12.5583C10.3511 12.408 10.4029 12.2837 10.5117 12.1801C10.6153 12.0765 10.7396 12.0247 10.8847 12.0247H24.2874C24.4376 12.0247 24.5619 12.0765 24.6656 12.1801C24.7692 12.2837 24.821 12.408 24.821 12.5583V15.2834C24.821 15.4336 24.7692 15.5579 24.6656 15.6616C24.5619 15.7652 24.4376 15.817 24.2874 15.817ZM11.4183 14.7497H23.7537V13.0919H11.4183V14.7497Z" fill="#AFFF25"/>
</svg>
