<svg width="43" height="36" viewBox="0 0 43 36" fill="none" xmlns="http://www.w3.org/2000/svg">
<path fill-rule="evenodd" clip-rule="evenodd" d="M3.65239 32.2608C3.23275 32.2608 2.896 31.924 2.896 31.5044V30.2143C2.896 29.7999 3.23275 29.4631 3.65239 29.4631H30.1313C30.38 29.4631 30.5821 29.66 30.5821 29.9139C30.5821 30.1625 30.3852 30.3646 30.1313 30.3646H3.79745V31.3645H29.9966C30.2453 31.3645 30.4474 31.5613 30.4474 31.8152C30.4474 32.0639 30.2505 32.2659 29.9966 32.2659L3.65239 32.2608Z" fill="#AFFF25"/>
<path fill-rule="evenodd" clip-rule="evenodd" d="M34.6333 20.5885H17.1792C16.9306 20.5885 16.7285 20.3864 16.7285 20.1377C16.7285 19.8891 16.9254 19.687 17.1792 19.687H34.6385C34.8871 19.687 35.0892 19.8839 35.0892 20.1377C35.084 20.3864 34.882 20.5885 34.6333 20.5885Z" fill="#AFFF25"/>
<path fill-rule="evenodd" clip-rule="evenodd" d="M17.1795 30.3592C16.9309 30.3592 16.7288 30.1571 16.7288 29.9085V17.055H5.3829V29.9085C5.3829 30.1571 5.18085 30.3592 4.93217 30.3592C4.6835 30.3592 4.48145 30.1571 4.48145 29.9085V16.9617C4.48145 16.5162 4.8441 16.1587 5.28965 16.1587H16.8169C17.2624 16.1587 17.6251 16.5162 17.6251 16.9617V29.9085C17.6251 30.1571 17.423 30.3592 17.1795 30.3592Z" fill="#AFFF25"/>
<path fill-rule="evenodd" clip-rule="evenodd" d="M23.2665 9.62055C23.0178 9.62055 22.8158 9.4185 22.8158 9.16982V7.90571C21.8055 7.93161 21.1113 7.32028 20.7797 6.95245C20.2772 7.06124 19.7436 7.00426 19.2566 6.78666C18.0184 6.23232 17.4692 4.77134 18.0236 3.53832C18.5831 2.30011 20.0389 1.75095 21.2771 2.30529C21.7589 2.52288 22.1526 2.88036 22.4065 3.33627C22.707 3.33627 23.0023 3.40362 23.2769 3.52795C23.8467 3.78699 24.2767 4.28435 24.4581 4.88014C24.8207 5.09255 25.515 5.63653 25.6652 6.71413C25.6704 6.74004 25.6704 6.76076 25.6704 6.78148V9.15946C25.6704 9.40814 25.4683 9.61019 25.2197 9.61019C24.971 9.61019 24.7689 9.40814 24.7689 9.15946V6.81257C24.6239 5.90075 23.9089 5.60027 23.8986 5.60027C23.7587 5.54328 23.6551 5.41894 23.624 5.26351C23.5514 4.85941 23.2769 4.5123 22.8987 4.34134C22.6811 4.2429 22.4376 4.20664 22.1941 4.2429C21.9868 4.27399 21.79 4.16001 21.7123 3.96832C21.562 3.5953 21.2667 3.28964 20.8989 3.11867C20.1166 2.76638 19.1892 3.11867 18.8369 3.90615C18.4846 4.68845 18.8318 5.61063 19.6192 5.9681C19.9922 6.13388 20.4119 6.15461 20.7901 6.01991C20.987 5.94738 21.2046 6.01991 21.3185 6.19605C21.3444 6.23232 22.0283 7.23221 23.1525 6.95763C23.2872 6.92654 23.4323 6.95245 23.5359 7.04052C23.6447 7.12341 23.7069 7.25811 23.7069 7.39281V9.16982C23.7172 9.4185 23.5152 9.62055 23.2665 9.62055Z" fill="#AFFF25"/>
<path fill-rule="evenodd" clip-rule="evenodd" d="M21.7952 20.5884C21.7796 20.5884 21.7693 20.5832 21.7537 20.5832C21.5051 20.5573 21.3237 20.3397 21.3496 20.091L21.9092 14.33L22.1578 11.7293L22.4169 9.12334C22.4428 8.89538 22.6345 8.71924 22.8676 8.71924H25.7015C25.9346 8.71924 26.1263 8.89538 26.147 9.12334L26.4009 11.7293L26.6547 14.33L27.2195 20.091C27.2454 20.3345 27.064 20.5573 26.8154 20.578C26.5667 20.6039 26.3491 20.4226 26.3232 20.1739L25.7637 14.4129L25.5046 11.8122L25.2922 9.61551H23.2717L23.0541 11.8122L22.8054 14.4129L22.2407 20.1739C22.22 20.4123 22.0231 20.5884 21.7952 20.5884Z" fill="#AFFF25"/>
<path fill-rule="evenodd" clip-rule="evenodd" d="M25.9505 12.2213H22.6089C22.3603 12.2213 22.1582 12.0244 22.1582 11.7706C22.1582 11.5219 22.3603 11.3198 22.6089 11.3198H25.9505C26.1992 11.3198 26.4013 11.5219 26.4013 11.7706C26.4013 12.0192 26.1992 12.2213 25.9505 12.2213Z" fill="#AFFF25"/>
<path fill-rule="evenodd" clip-rule="evenodd" d="M26.2095 14.8272H22.355C22.1063 14.8272 21.9043 14.6252 21.9043 14.3765C21.9043 14.1278 22.1063 13.9258 22.355 13.9258H26.2095C26.4582 13.9258 26.6602 14.1226 26.6602 14.3765C26.6602 14.6252 26.4582 14.8272 26.2095 14.8272Z" fill="#AFFF25"/>
<path fill-rule="evenodd" clip-rule="evenodd" d="M24.6865 30.3592C24.4378 30.3592 24.2357 30.1572 24.2357 29.9085V25.5877H21.9925V29.9085C21.9925 30.1572 21.7956 30.3592 21.5469 30.3592C21.2982 30.3592 21.0962 30.1572 21.0962 29.9085V25.3598C21.0962 24.9868 21.3967 24.6863 21.7645 24.6863H24.4585C24.8315 24.6863 25.132 24.9919 25.132 25.3598V29.9085C25.132 30.1572 24.9351 30.3592 24.6865 30.3592Z" fill="#AFFF25"/>
<path fill-rule="evenodd" clip-rule="evenodd" d="M34.6333 22.868H17.1792C16.9306 22.868 16.7285 22.6711 16.7285 22.4173C16.7285 22.1686 16.9254 21.9666 17.1792 21.9666H34.6385C34.8871 21.9666 35.0892 22.1686 35.0892 22.4173C35.084 22.666 34.882 22.868 34.6333 22.868Z" fill="#AFFF25"/>
<path fill-rule="evenodd" clip-rule="evenodd" d="M13.33 30.3593C13.0813 30.3593 12.8845 30.1572 12.8845 29.9086V23.9092H9.23202V29.9086C9.23202 30.1572 9.03515 30.3593 8.78129 30.3593C8.53262 30.3593 8.33057 30.1572 8.33057 29.9086V23.7123C8.33057 23.3238 8.64659 23.0129 9.02997 23.0129H13.0813C13.4647 23.0129 13.7756 23.3238 13.7756 23.7123V29.9086C13.7807 30.1572 13.5839 30.3593 13.33 30.3593Z" fill="#AFFF25"/>
<path fill-rule="evenodd" clip-rule="evenodd" d="M8.01981 20.6505H14.0969V19.4019H8.01981V20.6505ZM14.2419 21.552H7.87475C7.46029 21.552 7.12354 21.21 7.12354 20.7956V19.2517C7.12354 18.8372 7.46029 18.5005 7.87475 18.5005H14.2419C14.6564 18.5005 14.9931 18.8372 14.9931 19.2517V20.7956C14.9931 21.21 14.6564 21.552 14.2419 21.552Z" fill="#AFFF25"/>
<path fill-rule="evenodd" clip-rule="evenodd" d="M40.3272 33.3744H30.4215C30.1677 33.3744 29.9242 33.2656 29.748 33.0843C29.5822 32.903 29.489 32.6543 29.5097 32.4056L29.919 26.5358C29.9345 26.2871 30.1469 26.1006 30.4008 26.1213C30.6495 26.1369 30.8308 26.3493 30.8152 26.598L30.406 32.4678C30.4111 32.473 30.4163 32.473 30.4215 32.473H40.3272C40.3323 32.473 40.3323 32.473 40.3323 32.473C40.3375 32.4678 40.3375 32.4626 40.3427 32.4522L39.9334 26.598C39.9179 26.3493 40.1044 26.1317 40.3479 26.1161C40.5966 26.1006 40.809 26.2871 40.8297 26.5358L41.239 32.4004C41.239 32.4056 41.239 32.4108 41.239 32.416C41.2493 32.6698 41.1509 32.9185 40.9799 33.0946C40.8038 33.276 40.5758 33.3744 40.3272 33.3744Z" fill="#AFFF25"/>
<path fill-rule="evenodd" clip-rule="evenodd" d="M30.0536 25.0179C29.7532 25.0179 29.5045 25.2666 29.5045 25.5671C29.5045 25.8676 29.7532 26.1162 30.0536 26.1162H40.7001C41.0006 26.1162 41.2493 25.8676 41.2493 25.5671C41.2493 25.2666 41.0006 25.0179 40.7001 25.0179H30.0536ZM40.7001 27.0125H30.0536C29.2558 27.0125 28.603 26.3649 28.603 25.5671C28.603 24.7692 29.2558 24.1165 30.0536 24.1165H40.7001C41.498 24.1165 42.1456 24.7692 42.1456 25.5671C42.1456 26.3649 41.498 27.0125 40.7001 27.0125Z" fill="#AFFF25"/>
<path fill-rule="evenodd" clip-rule="evenodd" d="M32.8721 33.3745C32.6234 33.3745 32.4214 33.1725 32.4214 32.9238V28.6082C32.4214 28.3595 32.6183 28.1575 32.8721 28.1575C33.1208 28.1575 33.3228 28.3543 33.3228 28.6082V32.9238C33.3228 33.1725 33.1208 33.3745 32.8721 33.3745Z" fill="#AFFF25"/>
<path fill-rule="evenodd" clip-rule="evenodd" d="M35.3741 33.3745C35.1254 33.3745 34.9233 33.1725 34.9233 32.9238V28.6082C34.9233 28.3595 35.1254 28.1575 35.3741 28.1575C35.6227 28.1575 35.8248 28.3543 35.8248 28.6082V32.9238C35.8248 33.1725 35.6227 33.3745 35.3741 33.3745Z" fill="#AFFF25"/>
<path fill-rule="evenodd" clip-rule="evenodd" d="M37.8819 33.3745C37.6332 33.3745 37.4312 33.1725 37.4312 32.9238V28.6082C37.4312 28.3595 37.6332 28.1575 37.8819 28.1575C38.1306 28.1575 38.3326 28.3543 38.3326 28.6082V32.9238C38.3326 33.1725 38.1306 33.3745 37.8819 33.3745Z" fill="#AFFF25"/>
<path fill-rule="evenodd" clip-rule="evenodd" d="M36.6331 25.0179C36.3844 25.0179 36.1824 24.8158 36.1824 24.5671V14.734C36.1824 14.5889 36.1254 14.4542 36.0218 14.3506C35.913 14.2418 35.7783 14.1848 35.6332 14.1848C35.3328 14.1848 35.0841 14.4335 35.0841 14.734V24.5671C35.0841 24.8158 34.8872 25.0179 34.6333 25.0179C34.3847 25.0179 34.1826 24.821 34.1826 24.5671V14.734C34.1826 13.9362 34.8354 13.2886 35.6332 13.2886C36.0166 13.2886 36.3793 13.4388 36.6538 13.7134C36.9284 13.988 37.0787 14.3506 37.0787 14.734V24.5671C37.0839 24.8158 36.8818 25.0179 36.6331 25.0179Z" fill="#AFFF25"/>
<path fill-rule="evenodd" clip-rule="evenodd" d="M30.1052 12.9777L30.6647 13.4025C30.7061 13.4388 30.7424 13.4751 30.7735 13.5217L30.9704 13.8429L31.188 13.5321C31.2242 13.4854 31.2605 13.4492 31.3071 13.4181L31.8822 13.0244L31.3227 12.5943C31.276 12.5633 31.2398 12.5218 31.2139 12.4752L31.017 12.154L30.789 12.47C30.758 12.5115 30.7217 12.5477 30.6802 12.5788L30.1052 12.9777ZM30.9548 15.1018C30.9496 15.1018 30.9445 15.1018 30.9445 15.1018C30.7942 15.1018 30.6543 15.019 30.5714 14.8946L30.0534 14.0709L29.0638 13.3145C28.9499 13.2264 28.8877 13.0917 28.8877 12.9466C28.8929 12.8016 28.9654 12.6721 29.0846 12.5892L30.1052 11.8846L30.6751 11.0816C30.7631 10.9572 30.9082 10.8899 31.0584 10.8951C31.2087 10.9002 31.3486 10.9779 31.4263 11.1075L31.934 11.926L32.9235 12.6876C33.0375 12.7757 33.1048 12.9156 33.0997 13.0606C33.0945 13.2005 33.022 13.3352 32.9028 13.4181L31.8822 14.1123L31.3227 14.9102C31.2398 15.0293 31.0999 15.1018 30.9548 15.1018Z" fill="#AFFF25"/>
<path fill-rule="evenodd" clip-rule="evenodd" d="M33.7524 8.67778L34.312 9.10778C34.3534 9.13887 34.3897 9.18031 34.4207 9.22694L34.6176 9.54815L34.8404 9.2373C34.8715 9.19586 34.9077 9.15959 34.9492 9.12851L35.5243 8.73477L34.9595 8.30476C34.9181 8.27368 34.8818 8.23223 34.8508 8.18561L34.6539 7.8644L34.4259 8.17524C34.4 8.21669 34.3638 8.25296 34.3223 8.27886L33.7524 8.67778ZM34.5917 10.8071C34.5865 10.8071 34.5814 10.8071 34.5762 10.8071C34.4259 10.8019 34.286 10.719 34.2083 10.5947L33.7006 9.77092L32.7111 9.01971C32.5971 8.93164 32.5298 8.79694 32.5349 8.65188C32.5401 8.50681 32.6127 8.37729 32.7318 8.2944L33.7472 7.58464L34.3171 6.79198C34.4 6.67282 34.5451 6.60547 34.6953 6.60547C34.8456 6.61065 34.9855 6.69354 35.0632 6.81788L35.5709 7.64162L36.5604 8.39284C36.6744 8.48091 36.7417 8.61561 36.7366 8.76067C36.7314 8.90055 36.6588 9.03525 36.5397 9.11815L35.5243 9.82273L34.9544 10.6154C34.8715 10.7345 34.7368 10.8071 34.5917 10.8071Z" fill="#AFFF25"/>
<mask id="mask0_1_422" style="mask-type:luminance" maskUnits="userSpaceOnUse" x="0" y="0" width="43" height="36">
<path d="M0 0H42.7V35.7474H0V0Z" fill="white"/>
</mask>
<g mask="url(#mask0_1_422)">
<path d="M22.5208 -13.4078C31.1157 -13.4078 38.9024 -9.92118 44.5443 -4.28967C50.1758 1.34183 53.6625 9.12854 53.6625 17.7286C53.6625 26.3235 50.1758 34.1102 44.5443 39.7469C38.9128 45.3784 31.1261 48.8703 22.5208 48.8703C13.9259 48.8703 6.1444 45.3784 0.502535 39.7469C-5.12897 34.1154 -8.61563 26.3339 -8.61563 17.7286C-8.61563 9.13372 -5.12897 1.35219 0.502535 -4.28967C6.13404 -9.93154 13.9207 -13.4078 22.5208 -13.4078ZM43.5548 -3.3105C38.172 -8.69333 30.7324 -12.0194 22.5208 -12.0194C14.2989 -12.0194 6.86453 -8.69333 1.4817 -3.3105C-3.90113 2.07232 -7.22718 9.51192 -7.22718 17.7234C-7.22718 25.935 -3.90113 33.3694 1.4817 38.7522C6.86453 44.135 14.2989 47.4611 22.5105 47.4611C30.7272 47.4611 38.1616 44.135 43.5444 38.7522C48.9272 33.3694 52.2533 25.935 52.2533 17.7234C52.2637 9.51192 48.9376 2.07232 43.5548 -3.3105Z" fill="#AFFF25"/>
</g>
</svg>
