<svg width="38" height="32" viewBox="0 0 38 32" fill="none" xmlns="http://www.w3.org/2000/svg">
<mask id="mask0_1_447" style="mask-type:luminance" maskUnits="userSpaceOnUse" x="0" y="2" width="38" height="30">
<path d="M0 2.62158H37.7316V31.7738H0V2.62158Z" fill="white"/>
</mask>
<g mask="url(#mask0_1_447)">
<path d="M37.3068 24.9196C37.3068 24.8937 37.3068 24.8937 37.3068 24.8627C37.3068 24.8368 37.3068 24.8368 37.3068 24.8057C37.3068 24.7746 37.3068 24.7746 37.2809 24.7487C37.2809 24.7176 37.2809 24.7176 37.2498 24.6917C37.2498 24.6606 37.2239 24.6606 37.2239 24.6295C37.2239 24.6036 37.1928 24.6036 37.1928 24.5725C37.1928 24.5466 37.1617 24.5466 37.1617 24.5155L37.1358 24.4845C37.1358 24.4845 37.1358 24.4845 37.1047 24.4586L32.7321 21.0392C32.7011 21.0082 32.7011 20.9823 32.67 20.9823C32.6441 20.9512 32.5871 20.9201 32.5301 20.8942C31.8877 20.345 31.0795 20.0238 30.2091 20.0238C29.4268 20.0238 28.7015 20.2829 28.0953 20.7491L24.0958 18.4592L24.619 17.5629C24.9351 17.0086 24.7589 16.3144 24.2098 15.9983L20.8474 13.9105L20.8215 13.8794L18.6456 9.99901C18.4177 9.21671 17.8633 8.57948 17.138 8.23237L10.2735 3.96859C9.8383 3.65256 9.31504 3.5075 8.79696 3.59557C8.24262 3.67846 7.78153 3.94268 7.46032 4.37787L5.08752 7.56405L1.08796 5.27414C0.797841 5.12908 0.450729 5.21715 0.305667 5.47619C0.129521 5.76632 0.243497 6.11343 0.507717 6.25849L4.45029 8.51731C4.36222 8.9525 4.50728 9.38768 4.88029 9.6778L5.80765 10.372C5.86982 10.4031 5.92681 10.4601 5.9838 10.4912C6.01488 10.4912 6.01488 10.5171 6.04079 10.5171C6.09778 10.5482 6.12886 10.5482 6.18585 10.5793C6.21693 10.5793 6.24284 10.5793 6.24284 10.6052C6.29983 10.6052 6.33091 10.6362 6.3879 10.6362C6.41898 10.6362 6.44489 10.6362 6.44489 10.6362H6.47597C6.53296 10.6362 6.58995 10.6362 6.62103 10.6362C6.91116 10.6052 7.1702 10.4601 7.34634 10.227L9.40311 11.4185C8.6519 12.9262 7.95249 14.3457 7.95249 14.3457C7.31526 15.7341 7.37225 17.3298 8.12864 18.6043V18.6354L8.6778 30.8309C8.70889 31.4422 9.22696 31.9344 9.8383 31.9344H11.2578C11.864 31.9344 12.3872 31.4422 12.4183 30.8309L12.7343 23.9353L13.6928 25.0077L14.0969 30.862C14.1539 31.4681 14.6461 31.9344 15.2574 31.9344H17.081C17.6924 31.9344 18.1845 31.4681 18.2415 30.862L18.7648 23.7332C18.7907 23.3291 18.6767 22.9199 18.4436 22.6038L15.5164 18.4281L16.8479 15.6771L18.9098 16.8635L22.4742 19.0654C22.6452 19.1534 22.8213 19.2104 23.0234 19.2415L27.37 21.7335C26.5308 23.0649 26.6758 24.8627 27.8311 26.0491L29.8931 28.8622C29.9501 28.9192 30.0071 28.9762 30.064 29.0384C30.3853 29.3285 30.8463 29.4684 31.3385 29.4684C31.4266 29.4684 31.5147 29.4684 31.6027 29.4425C32.24 29.3544 32.758 29.0384 33.0793 28.541C33.1362 28.4581 33.1673 28.37 33.1673 28.282C33.7735 28.1939 34.2967 27.8779 34.6128 27.3857C34.6698 27.2665 34.7008 27.1526 34.7008 27.0386C35.1049 26.8935 35.4831 26.6293 35.7163 26.2822C36.3535 26.1941 36.9338 25.847 37.2809 25.3289L37.3068 25.2978V25.2668C37.3068 25.2409 37.3379 25.2409 37.3379 25.2098C37.3379 25.1839 37.3379 25.1839 37.3689 25.1528C37.3689 25.1217 37.3689 25.1217 37.3948 25.0958C37.3948 25.0647 37.3948 25.0647 37.3948 25.0388C37.3948 25.0077 37.3948 25.0077 37.3948 24.9818C37.3068 24.9507 37.3068 24.9196 37.3068 24.9196ZM30.2402 21.2413C30.6443 21.2413 31.0484 21.3294 31.3696 21.5314L28.2404 24.7176C27.7482 23.8472 27.8311 22.6919 28.5875 21.9355C29.0227 21.4744 29.603 21.2413 30.2402 21.2413ZM6.50706 9.47575L5.5797 8.78153L8.36177 5.07209C8.50684 4.89595 8.70889 4.75089 8.93684 4.72498C9.16997 4.6939 9.40311 4.75089 9.57926 4.89595C9.57926 4.89595 9.60516 4.92703 9.63625 4.92703L16.5888 9.2737C16.6199 9.2737 16.6199 9.29961 16.6458 9.29961C17.1121 9.53274 17.4592 9.94202 17.5732 10.4342C17.5732 10.4912 17.6043 10.5171 17.6354 10.5793L19.8372 14.5166C19.9512 14.7187 20.0962 14.8638 20.2724 14.9829L23.6295 17.0708L23.1114 17.936L19.4279 15.8222L19.1119 15.6202L17.8063 13.1282C17.6924 12.9261 17.5162 12.807 17.2831 12.807C17.0551 12.807 16.879 12.9521 16.765 13.1282L16.3298 14.0245L10.9677 10.9523C11.3459 10.2011 11.693 9.50684 11.9261 9.07165C12.1852 8.51731 11.9831 7.85417 11.491 7.56405L10.0403 6.72476C9.95227 6.66259 9.8642 6.63669 9.78131 6.6056C9.66215 6.54862 9.51709 6.52271 9.40311 6.52271C9.02491 6.52271 8.6778 6.66259 8.44467 6.9838L6.50706 9.47575ZM8.09755 9.29961L9.37203 7.65212C9.40311 7.65212 9.40311 7.67802 9.43419 7.67802L10.8796 8.54839C10.6776 8.98358 10.3305 9.6519 9.98336 10.372L8.09755 9.29961ZM11.2889 30.805H9.89528L9.40311 20.1689L11.6619 22.7178L11.2889 30.805ZM14.4751 17.9101C14.2989 18.2831 14.33 18.7183 14.5632 19.0654L17.4903 23.267C17.5732 23.3861 17.6043 23.5001 17.6043 23.6452L17.081 30.805H15.2574L14.8533 24.9507C14.8222 24.6917 14.7341 24.4586 14.5632 24.2565L9.57926 18.6354C8.6519 17.5888 8.44467 16.1123 9.02491 14.8638C9.02491 14.8638 9.72432 13.4753 10.4444 11.9988L15.8065 15.0969L14.4751 17.9101ZM31.3955 28.2561C31.1365 28.282 30.8774 28.225 30.7324 28.0799C30.7013 28.0488 30.7013 28.0488 30.6754 28.0488L28.9346 25.645L32.2659 22.2256L35.8302 25.0077C35.7163 25.0647 35.5971 25.1217 35.4831 25.1217C35.2811 25.1528 35.136 25.0958 35.022 25.0077C34.7889 24.7746 34.4107 24.7746 34.2087 25.0077C34.0066 25.2409 33.9755 25.6191 34.2087 25.8211C34.2398 25.847 34.2657 25.847 34.2967 25.8781C34.2087 25.904 34.1206 25.9351 34.0325 25.9351C33.7735 25.9662 33.5144 25.904 33.3694 25.7641C33.1362 25.531 32.758 25.531 32.556 25.7641C32.3229 25.9921 32.3229 26.3703 32.556 26.5723C32.7321 26.7485 32.9601 26.8935 33.2243 26.9764C33.1362 27.0075 33.0482 27.0386 32.9342 27.0645C32.67 27.0956 32.4109 27.0386 32.2659 26.8935C32.0327 26.6604 31.6597 26.6604 31.4577 26.8935C31.2504 27.1215 31.2245 27.4997 31.4577 27.7017C31.5716 27.8209 31.7167 27.9038 31.8618 27.9918C31.7426 28.168 31.6027 28.225 31.3955 28.2561Z" fill="#AFFF25"/>
</g>
<mask id="mask1_1_447" style="mask-type:luminance" maskUnits="userSpaceOnUse" x="24" y="29" width="5" height="3">
<path d="M24.8364 29.147H28.8153V31.7736H24.8364V29.147Z" fill="white"/>
</mask>
<g mask="url(#mask1_1_447)">
<path d="M27.2817 30.8307L25.6291 30.3386C25.3131 30.2557 24.9918 30.4266 24.9038 30.7478C24.8209 31.0639 24.9918 31.3851 25.3131 31.468L26.9657 31.9653C27.0227 31.9912 27.0797 31.9912 27.1367 31.9912C27.3957 31.9912 27.6289 31.8203 27.6858 31.5871C27.748 31.24 27.5719 30.9188 27.2817 30.8307Z" fill="#AFFF25"/>
</g>
<mask id="mask2_1_447" style="mask-type:luminance" maskUnits="userSpaceOnUse" x="28" y="29" width="4" height="3">
<path d="M28.8154 29.147H31.468V31.7736H28.8154V29.147Z" fill="white"/>
</mask>
<g mask="url(#mask2_1_447)">
<path d="M29.9759 30.0795L29.5718 30.2816C29.2817 30.4266 29.1677 30.7737 29.2817 31.0639C29.3698 31.2659 29.6029 31.411 29.805 31.411C29.893 31.411 29.9759 31.3851 30.0329 31.354L30.4422 31.1519C30.7323 31.0069 30.8463 30.6598 30.7323 30.3696C30.6132 30.0795 30.266 29.9655 29.9759 30.0795Z" fill="#AFFF25"/>
</g>
<mask id="mask3_1_447" style="mask-type:luminance" maskUnits="userSpaceOnUse" x="32" y="29" width="5" height="3">
<path d="M32.7939 29.147H36.7728V31.7736H32.7939V29.147Z" fill="white"/>
</mask>
<g mask="url(#mask3_1_447)">
<path d="M34.6694 30.3126C34.4414 30.0795 34.0943 30.0484 33.8612 30.2816C33.6281 30.5147 33.597 30.8618 33.8301 31.0949L34.4673 31.7581C34.5865 31.8772 34.7316 31.9342 34.9025 31.9342C35.0476 31.9342 35.1927 31.8772 35.3066 31.7892C35.5398 31.556 35.5709 31.2089 35.3377 30.9758L34.6694 30.3126Z" fill="#AFFF25"/>
</g>
<path d="M35.1672 28.2561C34.846 28.2561 34.5869 28.5151 34.5869 28.8312V29.1524C34.5869 29.4684 34.846 29.7326 35.1672 29.7326C35.4832 29.7326 35.7422 29.4684 35.7422 29.1524V28.8312C35.7422 28.5151 35.4832 28.2561 35.1672 28.2561Z" fill="#AFFF25"/>
<mask id="mask4_1_447" style="mask-type:luminance" maskUnits="userSpaceOnUse" x="30" y="29" width="3" height="3">
<path d="M30.1416 29.147H32.7942V31.7736H30.1416V29.147Z" fill="white"/>
</mask>
<g mask="url(#mask4_1_447)">
<path d="M32.0326 30.1365C31.7166 30.1365 31.4575 30.3955 31.4575 30.7168V31.3851C31.4575 31.7011 31.7166 31.9653 32.0326 31.9653C32.3538 31.9653 32.6128 31.7011 32.6128 31.3851V30.7168C32.6128 30.3955 32.3538 30.1365 32.0326 30.1365Z" fill="#AFFF25"/>
</g>
<path d="M27.4267 28.6601L27.1366 28.4839C26.8465 28.3389 26.4994 28.427 26.3543 28.7171C26.2092 29.0072 26.2973 29.3543 26.5874 29.4994L26.8776 29.6755C26.9656 29.7325 27.0485 29.7584 27.1677 29.7584C27.3697 29.7584 27.5718 29.6444 27.6599 29.4683C27.8049 29.1833 27.7169 28.8052 27.4267 28.6601Z" fill="#AFFF25"/>
<mask id="mask5_1_447" style="mask-type:luminance" maskUnits="userSpaceOnUse" x="12" y="0" width="12" height="8">
<path d="M12.8999 0H23.5101V7.92659H12.8999V0Z" fill="white"/>
</mask>
<g mask="url(#mask5_1_447)">
<path d="M20.355 0.176147C20.096 1.5703e-06 19.7178 0.0880748 19.5468 0.347113L19.4847 0.435186C19.0236 0.202052 18.4744 0.0880741 17.9201 0.0880741C15.8374 0.0880741 14.1537 1.76665 14.1537 3.8545C14.1537 5.94235 15.8374 7.62092 17.9201 7.62092C19.2256 7.62092 20.3861 6.9526 21.0544 5.94235L21.7176 6.37754C21.8057 6.43452 21.9196 6.46043 22.0388 6.46043C22.2408 6.46043 22.4118 6.37754 22.531 6.20139C22.7019 5.94235 22.619 5.56415 22.3548 5.38801L21.5466 4.86993C21.6295 4.54872 21.6917 4.20161 21.6917 3.8545C21.6917 2.75099 21.2254 1.76665 20.4742 1.07242L20.5312 0.984348C20.7022 0.725309 20.6193 0.347113 20.355 0.176147ZM17.9201 6.46043C16.4746 6.46043 15.3141 5.30512 15.3141 3.8545C15.3141 3.36232 15.4592 2.89605 15.6923 2.49195L20.0649 5.30512C19.6038 5.99934 18.8215 6.46043 17.9201 6.46043ZM20.5001 4.20161L16.5316 1.65267C16.9357 1.38845 17.402 1.24857 17.9201 1.24857C19.3707 1.24857 20.5312 2.40388 20.5312 3.8545C20.5312 3.96847 20.5001 4.08763 20.5001 4.20161Z" fill="#AFFF25"/>
</g>
</svg>
