<svg width="32" height="32" viewBox="0 0 32 32" fill="none" xmlns="http://www.w3.org/2000/svg">
<mask id="mask0_1_480" style="mask-type:luminance" maskUnits="userSpaceOnUse" x="0" y="0" width="32" height="32">
<path d="M0 0H31.7737V31.7737H0V0Z" fill="white"/>
</mask>
<g mask="url(#mask0_1_480)">
<path d="M30.7013 8.26333H28.5357C28.5357 7.97839 28.3026 7.74526 28.0176 7.74526H24.4066C24.1269 7.74526 23.8937 7.97839 23.8937 8.26333H21.6763V4.13426H25.4117C25.6293 4.13426 25.8002 3.95811 25.8002 3.7457V0.911813C25.8002 0.69422 25.6293 0.523255 25.4117 0.523255H16.3868C16.1744 0.523255 15.9982 0.69422 15.9982 0.911813V3.7457C15.9982 3.95811 16.1744 4.13426 16.3868 4.13426H20.1273V8.26333H12.6463C12.2214 8.26333 11.8743 8.61045 11.8743 9.03527V9.54817C11.8743 9.88492 12.0867 10.1699 12.3872 10.2787V10.3253H10.2061L11.149 6.0615C11.1697 6.06669 11.1905 6.06669 11.206 6.06669C11.2578 6.06669 11.3044 6.05633 11.3511 6.03042C11.408 5.98897 11.4443 5.93199 11.465 5.86982L11.6308 5.11342L13.9052 5.61596C14.0451 5.64704 14.1798 5.55897 14.2108 5.42427L14.4336 4.4451L15.4853 2.05676C15.5164 1.98423 15.5112 1.90134 15.475 1.83917C15.4439 1.76664 15.3817 1.72001 15.304 1.70447L7.72451 0.0207199C7.6468 -1.84511e-06 7.56909 0.0207193 7.5121 0.0725277C7.45511 0.124336 7.41367 0.191687 7.41367 0.269397L7.35668 2.87533L7.13909 3.85449C7.108 3.99955 7.19607 4.13426 7.33077 4.16534L9.59995 4.66788L9.43417 5.42427C9.40309 5.56415 9.49116 5.69885 9.62586 5.73512L8.62079 10.3253H4.64713C4.36737 10.3253 4.13424 10.5584 4.13424 10.8382V11.3563C4.13424 11.6412 4.36737 11.8743 4.64713 11.8743H8.27886L7.03029 17.5473H1.81325C1.66819 17.5473 1.55421 17.6613 1.55421 17.8063V18.0602H1.29517C1.15529 18.0602 1.03613 18.1793 1.03613 18.3192V18.5783H0.523235C0.378175 18.5783 0.264196 18.6922 0.264196 18.8373C0.264196 20.5366 0.813358 22.1167 1.79771 23.3135L2.05156 27.8622H0.782274C0.352269 27.8622 0.00515747 28.2145 0.00515747 28.6393V29.1522C0.00515747 29.5822 0.352269 29.9293 0.782274 29.9293H1.29517C1.13457 30.1418 1.03613 30.4112 1.03613 30.7013C1.03613 31.411 1.61638 31.9913 2.32615 31.9913C3.03591 31.9913 3.61616 31.411 3.61616 30.7013C3.61616 30.4112 3.5229 30.1418 3.35712 29.9293H16.2573C16.765 31.1416 17.9617 31.9913 19.3502 31.9913C21.1116 31.9913 22.5623 30.6236 22.6918 28.8984H22.9612C23.1062 28.8984 23.2202 28.7792 23.2202 28.6393C23.2202 28.1886 23.1425 27.7534 23.0026 27.3493H29.6703C30.0951 27.3493 30.4422 27.0022 30.4422 26.5774V26.0593C30.4422 25.6345 30.0951 25.2874 29.6703 25.2874H29.033C29.2662 25.0231 29.4112 24.6657 29.4112 24.2875V10.3253H30.7013C31.1261 10.3253 31.4784 9.97817 31.4784 9.54817V9.03527C31.4784 8.61045 31.1261 8.26333 30.7013 8.26333ZM23.2979 11.7759C23.2306 11.8381 23.1425 11.8795 23.0492 11.8743C22.9508 11.8743 22.8679 11.8277 22.8006 11.7604C22.7436 11.6982 22.7125 11.6153 22.7125 11.522C22.7125 11.434 22.7436 11.3407 22.8109 11.2785L24.3444 9.70359C24.3911 9.66214 24.417 9.59479 24.417 9.52226V8.26333H28.028V14.1798C28.028 14.3041 27.9399 14.4181 27.8207 14.444C27.7119 14.4647 27.6083 14.4181 27.5462 14.3248C27.5254 14.2834 27.5099 14.2316 27.5099 14.185V12.1386C27.5099 11.9987 27.4115 11.8795 27.2768 11.864C27.1213 11.8536 26.9918 11.9676 26.9918 12.123V14.1746C26.9918 14.3093 26.8986 14.4336 26.7639 14.444C26.6084 14.4595 26.4789 14.3404 26.4789 14.185V12.1386C26.4789 11.9987 26.3805 11.8795 26.2458 11.864C26.0904 11.8536 25.9608 11.9676 25.9608 12.123V14.1746C25.9608 14.3093 25.8676 14.4336 25.7277 14.444C25.5775 14.4595 25.4479 14.3404 25.4479 14.185V12.1386C25.4479 11.9987 25.3495 11.8795 25.2148 11.864C25.0594 11.8536 24.9299 11.9676 24.9299 12.123V14.1746C24.9299 14.2989 24.847 14.4129 24.7226 14.4388C24.6138 14.4595 24.5102 14.4129 24.4532 14.3145C24.4273 14.2782 24.417 14.2264 24.417 14.1798V11.2993C24.417 11.0713 24.1424 10.9573 23.9766 11.1128L23.2979 11.7759ZM21.6608 28.3803C21.5313 27.2198 20.5469 26.3183 19.3502 26.3183C18.1586 26.3183 17.1742 27.2198 17.0447 28.3803H16.0034C16.1329 26.6499 17.5835 25.2874 19.345 25.2874C21.1065 25.2874 22.5571 26.6499 22.6866 28.3803H21.6608ZM21.1583 28.6393C21.1583 29.634 20.3449 30.4422 19.3502 30.4422C18.3606 30.4422 17.5473 29.634 17.5473 28.6393C17.5473 27.6446 18.3606 26.8312 19.3502 26.8312C20.3449 26.8312 21.1583 27.6446 21.1583 28.6393ZM15.563 27.8622H15.4853V26.8312H15.936C15.7599 27.1576 15.6356 27.4996 15.563 27.8622ZM10.2786 19.6092H10.5843C10.7242 19.6092 10.8382 19.4953 10.8382 19.3502V19.0963H11.092C11.0454 20.3449 10.6983 21.4743 10.1232 22.3809L10.2786 19.6092ZM9.56887 23.1322C8.65187 24.158 7.38258 24.7693 5.93715 24.7693C4.49689 24.7693 3.22242 24.158 2.3106 23.1322L2.11373 19.6092H9.77092L9.56887 23.1322ZM10.0818 23.3135C11.0713 22.1167 11.6153 20.5366 11.6153 18.8373C11.6153 18.6922 11.4961 18.5783 11.3562 18.5783H10.8382V18.3192C10.8382 18.1793 10.7242 18.0602 10.5843 18.0602H10.3253V17.8063C10.3253 17.6613 10.2061 17.5473 10.0662 17.5473H8.61561L9.86417 11.8743H12.3872V27.8622H9.82273L10.0818 23.3135ZM13.4182 10.3253V27.8622H12.9053V10.3253H13.4182ZM21.1583 25.22C20.9925 25.1319 20.8215 25.0594 20.6402 24.9972V10.3253H21.1583V25.22ZM13.9363 18.5783H20.1273V19.0963H13.9363V18.5783ZM15.2263 14.4492H15.6563C15.9879 14.4492 16.2573 14.7238 16.2573 15.0502V17.0292H15.2263V14.4492ZM15.2263 17.5473H16.5163C16.6562 17.5473 16.7753 17.4333 16.7753 17.2882V15.0502C16.7753 14.4336 16.2676 13.9363 15.6563 13.9363H15.2263V13.5477C15.2263 13.1954 15.5164 12.9053 15.8687 12.9053H18.0291C18.4746 12.9053 18.8373 13.2628 18.8373 13.7083V18.0602H15.2263V17.5473ZM16.7753 12.3872H16.2573V11.3563H16.7753V12.3872ZM20.1273 18.0602H19.3502V13.7083C19.3502 12.983 18.7596 12.3872 18.0291 12.3872H17.2882V11.3563C17.2882 11.0713 17.0551 10.8382 16.7753 10.8382H16.2573C15.9723 10.8382 15.7392 11.0713 15.7392 11.3563V12.3924C15.1589 12.4598 14.7082 12.9468 14.7082 13.5477V18.0602H13.9363V10.3253H20.1273V18.0602ZM13.9363 19.6092H20.1273V24.847C19.8734 24.7952 19.6144 24.7693 19.3502 24.7693C19.2673 24.7693 19.1792 24.7745 19.0963 24.7745V24.0595C19.0963 23.3394 18.5213 22.7436 17.8063 22.7125V21.6764C17.8063 21.3914 17.5732 21.1583 17.2882 21.1583H16.7753C16.4904 21.1583 16.2573 21.3914 16.2573 21.6764V22.7125C15.5423 22.7436 14.9672 23.3394 14.9672 24.0595V27.8622H13.9363V19.6092ZM16.2573 26.3183H15.4853V24.7693H17.0292V25.5412C16.7391 25.764 16.4748 26.0282 16.2573 26.3183ZM17.2882 24.2512H15.4853V24.0595C15.4853 23.5933 15.8583 23.2202 16.3194 23.2202H17.739C18.2052 23.2202 18.5782 23.5933 18.5782 24.0595V24.847C18.2104 24.9247 17.8685 25.049 17.5473 25.2148V24.5051C17.5473 24.3704 17.4333 24.2512 17.2882 24.2512ZM17.2882 22.7073H16.7753V21.6764H17.2882V22.7073ZM21.6763 10.3253H22.1892V24.2875C22.1892 24.6657 22.3291 25.0231 22.5726 25.2874H21.6763V10.3253ZM22.7073 10.3253H23.013L22.7073 10.6413V10.3253ZM16.5163 3.61618V1.03615H25.2873V3.61618H21.6763V3.10328H22.8368C23.0493 3.10328 23.2202 2.92714 23.2202 2.71472V1.94279C23.2202 1.73038 23.0493 1.55423 22.8368 1.55423H18.9668C18.7544 1.55423 18.5782 1.73038 18.5782 1.94279V2.71472C18.5782 2.92714 18.7544 3.10328 18.9668 3.10328H20.1273V3.61618H16.5163ZM20.3863 2.5852H19.0963V2.07231H22.7073V2.5852H21.4173C21.2722 2.5852 21.1583 2.70436 21.1583 2.84424V8.26333H20.6402V2.84424C20.6402 2.70436 20.5262 2.5852 20.3863 2.5852ZM12.3872 9.03527C12.3872 8.89021 12.5064 8.77623 12.6463 8.77623H23.8937V9.42383L23.5103 9.80721H12.6463C12.5064 9.80721 12.3872 9.69323 12.3872 9.54817V9.03527ZM8.90573 0.813379L8.56898 2.32098C8.5379 2.46086 8.62597 2.60075 8.76585 2.63183C8.78139 2.63701 8.80212 2.63701 8.82284 2.63701C8.93681 2.63701 9.04561 2.55412 9.07152 2.44014L9.40827 0.927356L9.87972 1.03097L9.66212 2.03604C9.62586 2.1811 9.71911 2.3158 9.85381 2.34689C9.87454 2.35207 9.89008 2.35207 9.9108 2.35207C10.03 2.35207 10.1388 2.26918 10.1647 2.1552L10.3823 1.15013L11.8899 1.4817L11.5997 2.8028C11.5687 2.94786 11.6567 3.08256 11.7966 3.11364C11.8121 3.11882 11.8329 3.11882 11.8536 3.11882C11.9676 3.11882 12.0764 3.03593 12.1023 2.92195L12.3924 1.60086L13.4026 1.81845L13.2317 2.57484C13.2006 2.71472 13.2887 2.84942 13.4285 2.88051C13.4441 2.89087 13.4648 2.89087 13.4855 2.89087C13.5995 2.89087 13.7083 2.8028 13.7342 2.68882L13.9052 1.93243L14.8584 2.14484L14.014 4.07727L7.87476 2.7199L7.91102 0.616509L8.90573 0.813379ZM7.69861 3.71461L7.80741 3.21208L13.8534 4.54872L13.7446 5.05125L11.4702 4.54872C11.3303 4.51245 11.1956 4.60571 11.1645 4.74041L10.9936 5.4968L9.98851 5.27403L10.1543 4.52281C10.1906 4.37775 10.0973 4.24305 9.96261 4.21197L7.69861 3.71461ZM10.1388 5.83355L10.6413 5.94753L9.67767 10.3253H9.14923L10.1388 5.83355ZM4.64713 10.8382H12.3872V11.3563H4.64713V10.8382ZM8.8073 11.8743H9.33574L8.08717 17.5473H7.55873L8.8073 11.8743ZM1.55421 18.5783H1.81325C1.95313 18.5783 2.07229 18.4643 2.07229 18.3192V18.0602H9.80719V18.3192C9.80719 18.4643 9.92634 18.5783 10.0662 18.5783H10.3253V19.0963H1.55421V18.5783ZM0.787455 19.0963H1.03613V19.3502C1.03613 19.4953 1.15529 19.6092 1.29517 19.6092H1.60084L1.75626 22.3809C1.17601 21.4743 0.82372 20.3449 0.787455 19.0963ZM2.35205 23.8834C3.34676 24.79 4.59532 25.2874 5.93715 25.2874C7.27897 25.2874 8.53271 24.7952 9.52224 23.8834L9.30465 27.8622H2.57482L2.35205 23.8834ZM3.10326 30.7013C3.10326 31.1261 2.75097 31.4784 2.32615 31.4784C1.90132 31.4784 1.55421 31.1261 1.55421 30.7013C1.55421 30.2765 1.90132 29.9293 2.32615 29.9293C2.75097 29.9293 3.10326 30.2765 3.10326 30.7013ZM0.782274 29.4113C0.637212 29.4113 0.523235 29.2973 0.523235 29.1522V28.6393C0.523235 28.4943 0.637212 28.3803 0.782274 28.3803H15.4905C15.4853 28.4632 15.4853 28.5564 15.4853 28.6393C15.4853 28.7792 15.5993 28.8984 15.7392 28.8984H16.0138C16.0241 29.0693 16.05 29.2455 16.0915 29.4113H0.782274ZM19.3502 31.4784C17.8737 31.4784 16.6562 30.3386 16.5267 28.8984H17.0447C17.1742 30.0589 18.1586 30.9603 19.3502 30.9603C20.5469 30.9603 21.5313 30.0589 21.6608 28.8984H22.1789C22.0494 30.3386 20.8267 31.4784 19.3502 31.4784ZM29.9293 26.0593V26.5774C29.9293 26.7173 29.8102 26.8312 29.6703 26.8312H22.7695C22.5623 26.4479 22.2929 26.0956 21.9768 25.8003H29.6703C29.8102 25.8003 29.9293 25.9194 29.9293 26.0593ZM28.8983 24.2875C28.8983 24.8315 28.4476 25.2874 27.8985 25.2874H23.7072C23.158 25.2874 22.7073 24.8315 22.7073 24.2875V12.3147C22.8109 12.3613 22.9197 12.3872 23.0337 12.3872C23.272 12.3924 23.4948 12.3043 23.6606 12.1437L23.8937 11.9158V14.1953C23.8937 14.3974 23.9714 14.5942 24.1165 14.7393C24.2667 14.8895 24.4584 14.9673 24.6657 14.9673C24.8677 14.9673 25.049 14.8895 25.1837 14.7652C25.3184 14.8895 25.4998 14.9673 25.6966 14.9673C25.8987 14.9673 26.08 14.8895 26.2147 14.7652C26.3494 14.8895 26.5307 14.9673 26.7276 14.9673C26.9297 14.9673 27.111 14.8895 27.2457 14.7652C27.3856 14.8947 27.5669 14.9673 27.7638 14.9673C28.1886 14.9673 28.5357 14.6201 28.5357 14.1953V10.3253H28.8983V24.2875ZM30.9603 9.54817C30.9603 9.69323 30.8463 9.80721 30.7013 9.80721H28.5357V8.77623H30.7013C30.8463 8.77623 30.9603 8.89021 30.9603 9.03527V9.54817Z" fill="#AFFF25"/>
</g>
<path d="M17.8893 13.1592H17.2883C17.1485 13.1592 17.0293 13.2783 17.0293 13.4182V15.2263C17.0293 15.3662 17.1485 15.4853 17.2883 15.4853H18.3193C18.4644 15.4853 18.5783 15.3662 18.5783 15.2263V13.8534C18.5783 13.47 18.2675 13.1592 17.8893 13.1592ZM18.0603 14.9673H17.5474V13.6773H17.8893C17.9877 13.6773 18.0603 13.755 18.0603 13.8534V14.9673Z" fill="#AFFF25"/>
</svg>
