<svg width="38" height="32" viewBox="0 0 38 32" fill="none" xmlns="http://www.w3.org/2000/svg">
<mask id="mask0_1_560" style="mask-type:luminance" maskUnits="userSpaceOnUse" x="8" y="0" width="8" height="8">
<path d="M8.66748 0H15.2989V7.92659H8.66748V0Z" fill="white"/>
</mask>
<g mask="url(#mask0_1_560)">
<path d="M12.0039 7.50695L12.7395 4.83885L14.5735 3.74571L12.7292 2.66811L11.9624 0.00518799L11.2268 2.67329L9.39276 3.77161L11.2371 4.84921L12.0039 7.50695Z" fill="#AFFF25"/>
</g>
<mask id="mask1_1_560" style="mask-type:luminance" maskUnits="userSpaceOnUse" x="0" y="6" width="9" height="13">
<path d="M0 6.60034H8.66744V18.5368H0V6.60034Z" fill="white"/>
</mask>
<g mask="url(#mask1_1_560)">
<path d="M5.08752 11.3925L3.80269 6.83347L2.51268 11.3925L0 12.6618L2.73027 14.0399L3.80269 17.8374L4.86993 14.0399L7.60538 12.6618L5.08752 11.3925Z" fill="#AFFF25"/>
</g>
<path d="M8.34143 26.0593L9.09264 28.7222L9.84385 26.0593L11.683 24.9713L9.84385 23.8834L9.09264 21.2205L8.34143 23.8834L6.49707 24.9713L8.34143 26.0593Z" fill="#AFFF25"/>
<mask id="mask2_1_560" style="mask-type:luminance" maskUnits="userSpaceOnUse" x="13" y="8" width="21" height="24">
<path d="M13.2109 8.43433H33.3383V31.7737H13.2109V8.43433Z" fill="white"/>
</mask>
<g mask="url(#mask2_1_560)">
<path d="M14.6823 23.3964C14.8481 23.1425 15.1019 22.9664 15.3972 22.9042C15.4801 22.8835 15.5578 22.8783 15.6407 22.8783C15.8583 22.8783 16.0707 22.9405 16.2572 23.0596L18.2 24.3186C18.4176 24.4636 18.7026 24.4481 18.9098 24.2875C19.117 24.1269 19.1999 23.8523 19.1118 23.6036L16.5163 16.1485C16.3246 15.5941 16.6147 14.9932 17.1691 14.8015C17.6612 14.6253 18.2104 14.8481 18.4487 15.304L20.7075 21.7904C20.8008 22.0442 21.0339 22.2048 21.2878 22.2048C21.3551 22.2048 21.4225 22.1945 21.4898 22.1686C21.811 22.0598 21.982 21.7075 21.868 21.3863L19.6558 15.0294C19.6506 14.9984 19.6403 14.9673 19.6299 14.9362L18.6559 12.1386C18.5627 11.8692 18.5782 11.5842 18.7026 11.3304C18.8269 11.0713 19.0393 10.8796 19.3087 10.7864C19.8527 10.5999 20.4588 10.8848 20.6557 11.434C20.6661 11.4651 20.6816 11.4962 20.6972 11.5272L23.8885 20.6869C23.9766 20.9407 24.2149 21.0961 24.4688 21.0961C24.5361 21.0961 24.6035 21.0858 24.6708 21.065C24.992 20.9511 25.1578 20.604 25.049 20.2828L21.8007 10.9574C21.7074 10.4496 21.9975 9.94192 22.4897 9.77096C23.0441 9.57927 23.6502 9.87457 23.8419 10.4237L24.847 13.3094C24.8677 13.3716 24.904 13.4338 24.9402 13.4856L27.0643 19.5782C27.1524 19.832 27.3907 19.9926 27.6446 19.9926C27.7119 19.9926 27.7793 19.9771 27.8466 19.9564C28.1678 19.8424 28.3388 19.4953 28.2248 19.1741L25.9816 12.7395C25.9505 12.2733 26.2354 11.8277 26.6913 11.6671C27.2405 11.4754 27.8466 11.7707 28.0383 12.3199L31.0017 20.8164C31.0017 20.8734 31.0121 20.9252 31.0328 20.977L31.7737 23.1063C32.7684 25.9557 31.2556 29.0849 28.4062 30.0744L27.3182 30.4526C25.5671 31.0639 23.645 30.7531 22.1737 29.6185C22.1633 29.6081 22.1478 29.5978 22.1322 29.5926L15.019 24.9714C14.76 24.8056 14.5838 24.5517 14.5217 24.2564C14.4595 23.9559 14.5165 23.6503 14.6823 23.3964ZM13.3197 24.5103C13.4544 25.1268 13.8171 25.6604 14.3507 26.0023L21.4484 30.608C22.6348 31.5147 24.0647 31.9861 25.5153 31.9861C26.2561 31.9861 27.0022 31.867 27.7223 31.6131L28.8103 31.2349C32.2969 30.0174 34.1465 26.1888 32.9342 22.7022L32.2451 20.7283C32.2399 20.6713 32.2296 20.6195 32.214 20.5677L29.1988 11.9158C28.7844 10.7242 27.4788 10.0922 26.2872 10.5066C25.9297 10.631 25.6189 10.8382 25.3754 11.1024L25.0024 10.0196C24.5879 8.82806 23.2772 8.20118 22.0856 8.61564C21.4898 8.82287 21.0287 9.25806 20.7749 9.79686C20.2205 9.48601 19.5418 9.4083 18.9046 9.63108C18.3295 9.83313 17.8633 10.2424 17.5991 10.7968C17.3297 11.3459 17.2934 11.9624 17.4954 12.5427L17.8426 13.5374C17.4903 13.4856 17.1224 13.5167 16.765 13.641C15.5734 14.0555 14.9413 15.361 15.3558 16.5526L17.3607 22.3136L16.9256 22.0287C16.3971 21.6867 15.7599 21.5676 15.1434 21.7023C14.5269 21.8318 13.9932 22.1996 13.6513 22.7281C13.3094 23.2565 13.1902 23.8938 13.3197 24.5103Z" fill="#AFFF25"/>
</g>
<mask id="mask3_1_560" style="mask-type:luminance" maskUnits="userSpaceOnUse" x="9" y="1" width="29" height="26">
<path d="M9.99365 1.29517H37.7315V26.4945H9.99365V1.29517Z" fill="white"/>
</mask>
<g mask="url(#mask3_1_560)">
<path d="M11.1075 9.94706C10.4496 11.32 9.79678 14.3404 10.8537 16.5836C11.4909 17.941 12.6255 18.8269 14.2212 19.2206C14.5527 19.3035 14.8843 19.1015 14.9672 18.7751C15.0449 18.4435 14.848 18.112 14.5165 18.0291C13.299 17.7286 12.439 17.0654 11.9623 16.0604C11.0557 14.1331 11.7396 11.465 12.2162 10.4807C12.6203 9.63103 13.5995 9.22693 14.6356 8.80211C15.2988 8.53271 15.9826 8.24777 16.5473 7.8333C17.4229 7.19089 17.9979 6.49666 18.5057 5.88533C19.3242 4.8958 19.9718 4.10833 21.6659 3.75085C23.9144 3.26904 24.9143 3.82856 26.9089 4.94243L26.9503 4.96833C28.1264 5.62629 29.3697 6.03039 30.5717 6.41895C33.0688 7.23233 35.2292 7.93174 36.3897 10.6257C36.9285 11.8743 36.7472 12.6566 36.5037 13.7446C36.4208 14.1124 36.3327 14.4906 36.2654 14.9258C36.1048 15.9412 36.1099 16.967 36.1099 17.9617C36.1099 18.9564 36.1099 19.8942 35.9649 20.8163C35.7317 22.2928 35.0582 23.3912 33.9081 24.1683C33.6283 24.36 33.5558 24.7434 33.7475 25.0231C33.8667 25.1993 34.0583 25.2925 34.2552 25.2925C34.3744 25.2925 34.4935 25.2563 34.5972 25.1837C36.0426 24.2046 36.8871 22.8368 37.1772 21.008C37.3378 19.9926 37.3378 18.9564 37.3378 17.9617C37.3326 16.9722 37.3326 16.0345 37.4777 15.1175C37.5398 14.7237 37.6227 14.3611 37.7004 14.014C37.9647 12.8535 38.2133 11.7552 37.5191 10.1439C36.1358 6.93703 33.4988 6.0822 30.9499 5.25328C29.8049 4.88026 28.6185 4.49688 27.5513 3.89591L27.5047 3.87001C25.4634 2.72506 24.1113 1.96866 21.4069 2.54891C19.2983 2.99964 18.4124 4.06688 17.5576 5.10303C17.0758 5.68846 16.5732 6.28943 15.822 6.84378C15.3765 7.17016 14.791 7.41366 14.1694 7.66752C13.0192 8.13897 11.7188 8.67777 11.1075 9.94706Z" fill="#AFFF25"/>
</g>
</svg>
