<svg width="606" height="590" viewBox="0 0 606 590" fill="none" xmlns="http://www.w3.org/2000/svg">
<path d="M0.535422 293.712C5.6763 370.246 46.224 442.58 105.163 491.672C164.102 540.763 240.346 567.192 316.953 571.391C364.886 573.998 414.629 567.699 456.118 543.587C508.468 513.104 542.934 454.6 545.758 394.068C548.582 333.536 520.415 272.714 473.423 234.411C429.979 199.004 373.068 182.64 331.506 145.061C306.816 122.687 288.424 93.5799 261.561 73.8852C214.714 39.4197 151.648 44.0537 104.077 74.0301C63.3844 99.662 30.2222 150.202 14.3651 194.515C3.14206 226.156 -1.70918 260.188 0.535422 293.712Z" fill="#C8F2FF" fill-opacity="0.5"/>
<path d="M410.647 167.579C422.015 169.969 434.251 170.259 444.895 165.48C456.915 160.122 465.459 148.899 470.237 136.662C478.202 116.171 476.175 92.1317 465.241 73.0888C454.236 54.0458 434.613 40.2886 413.036 36.1614C383.132 30.3688 331.289 51.4392 334.547 87.9321C337.878 125.946 374.878 160.049 410.647 167.579Z" fill="#C8F2FF" fill-opacity="0.5"/>
<path d="M413.181 590H453.656L459.087 554.955H538.951L540.11 590H580.585L573.489 382.627C531.421 383.641 488.774 383.641 445.474 382.627C436.279 451.052 425.418 520.2 413.181 590ZM473.061 402.611C473.279 399.57 475.813 397.181 478.854 397.181H538.445C541.486 397.181 543.73 399.643 543.585 402.611C543.368 405.653 540.834 408.042 537.793 408.042H478.202C475.161 408.042 472.844 405.58 473.061 402.611Z" fill="#251B37"/>
<path d="M438.596 590H479.071L480.23 554.955H560.094L565.525 590H606C593.836 516.652 582.83 446.997 573.634 382.627C531.494 383.786 488.774 383.786 445.619 382.627C444.316 451.486 441.926 520.562 438.596 590ZM475.668 402.611C475.451 399.57 477.768 397.181 480.809 397.181H540.4C543.441 397.181 545.975 399.643 546.192 402.611C546.409 405.653 544.092 408.042 541.051 408.042H481.461C478.419 408.042 475.885 405.58 475.668 402.611Z" fill="#FFBD29"/>
<path d="M493.118 425.347C493.046 426.289 492.249 427.085 491.308 427.157C490.873 427.157 490.439 427.085 490.149 426.795C489.642 426.289 489.715 425.492 489.932 424.841C490.077 424.478 490.222 424.116 490.511 423.827C491.525 422.813 493.19 424.116 493.118 425.347Z" fill="#EA9653"/>
<path d="M477.333 523.603C477.261 524.544 476.464 525.341 475.523 525.413C475.089 525.413 474.654 525.341 474.365 525.051C473.858 524.544 473.93 523.748 474.147 523.024C474.292 522.662 474.437 522.3 474.727 522.01C475.74 521.069 477.406 522.445 477.333 523.603Z" fill="#EA9653"/>
<path d="M553.795 482.042C553.722 482.983 552.926 483.78 551.985 483.852C551.55 483.852 551.116 483.78 550.826 483.49C550.319 482.983 550.392 482.187 550.609 481.535C550.754 481.173 550.899 480.811 551.188 480.521C552.202 479.508 553.867 480.883 553.795 482.042Z" fill="#EA9653"/>
<path d="M487.688 426.94C487.76 427.52 487.687 428.099 487.398 428.533C487.036 429.04 486.529 429.33 485.95 429.475C485.298 429.692 484.502 429.837 483.85 429.475C483.271 429.112 482.981 428.388 482.909 427.664C482.836 426.94 482.981 426.216 483.343 425.565C483.705 424.913 484.357 424.478 485.081 424.406C486.601 424.334 487.47 425.709 487.688 426.94Z" fill="#EA9653"/>
<path d="M556.184 535.333C556.257 535.912 556.184 536.491 555.895 536.926C555.533 537.433 555.026 537.722 554.446 537.867C553.795 538.084 552.998 538.229 552.347 537.867C551.767 537.505 551.478 536.781 551.405 536.057C551.333 535.333 551.478 534.609 551.84 533.957C552.202 533.305 552.854 532.871 553.578 532.799C555.026 532.654 555.967 534.102 556.184 535.333Z" fill="#EA9653"/>
<path d="M488.991 430.705C488.629 430.416 488.629 429.837 488.846 429.475C489.28 428.75 490.584 428.388 490.729 429.475C490.873 430.271 489.86 431.429 488.991 430.705Z" fill="#EA9653"/>
<path d="M549.668 541.198C549.306 540.908 549.306 540.329 549.523 539.967C549.957 539.243 551.261 538.881 551.405 539.967C551.55 540.763 550.537 541.922 549.668 541.198Z" fill="#EA9653"/>
<path d="M475.596 519.983C475.234 519.693 475.234 519.114 475.451 518.752C475.885 518.028 477.189 517.666 477.333 518.752C477.478 519.621 476.392 520.779 475.596 519.983Z" fill="#EA9653"/>
<path d="M551.405 478.928C551.043 478.638 551.043 478.059 551.261 477.697C551.695 476.973 552.998 476.611 553.143 477.697C553.216 478.494 552.202 479.652 551.405 478.928Z" fill="#EA9653"/>
<path d="M441.42 587.248C441.347 587.176 441.275 587.031 441.275 586.886L448.153 385.668C448.153 385.379 448.371 385.234 448.66 385.234H571.172C571.462 385.234 571.679 385.451 571.679 385.668L603.031 586.886C603.031 587.031 603.031 587.176 602.959 587.248C602.886 587.321 602.742 587.393 602.597 587.393H568.276C567.986 587.393 567.769 587.176 567.769 586.959L562.411 552.348H477.84L476.682 586.959C476.682 587.248 476.464 587.393 476.175 587.393H441.854C441.709 587.466 441.564 587.393 441.42 587.248ZM476.827 551.841C476.827 551.552 477.044 551.407 477.333 551.407H562.701C562.99 551.407 563.208 551.624 563.208 551.841L568.566 586.452H601.873L570.666 386.247H449.167L442.361 586.452H475.668L476.827 551.841Z" fill="#EA9653"/>
<path d="M478.781 507.239C477.84 505.718 477.695 503.981 478.492 502.46L509.265 442.942C510.061 441.421 511.509 440.552 513.247 440.552C514.985 440.552 516.578 441.421 517.519 442.942L555.533 502.46C556.474 503.981 556.619 505.718 555.822 507.239C555.026 508.76 553.578 509.628 551.84 509.628H483.053C481.316 509.628 479.723 508.76 478.781 507.239ZM513.03 445.042L482.257 504.56C482.112 504.777 482.185 504.994 482.257 505.139C482.329 505.284 482.474 505.429 482.764 505.429H551.55C551.84 505.429 551.985 505.284 552.057 505.139C552.129 504.994 552.202 504.777 552.057 504.56L514.043 445.042C513.899 444.825 513.681 444.752 513.537 444.752C513.319 444.752 513.102 444.825 513.03 445.042Z" fill="white"/>
<path d="M510.061 474.584C510.496 474.222 511.147 474.149 511.727 474.294L514.695 475.018L517.881 471.905C518.678 471.181 519.908 471.181 520.777 472.05C521.574 472.846 521.574 474.149 520.85 474.874L516.867 478.711C516.361 479.146 515.709 479.363 515.057 479.146L513.03 478.639L517.085 482.766L522.732 481.535C523.384 481.39 524.108 481.607 524.615 482.042L534.607 491.237C535.476 492.034 535.548 493.265 534.824 494.134C534.39 494.568 533.811 494.785 533.231 494.713C532.797 494.641 532.362 494.496 532 494.134L522.805 485.735L520.488 486.241L529.828 495.654C530.625 496.451 530.697 497.754 529.901 498.478C529.466 498.913 528.959 499.057 528.38 498.985C527.873 498.913 527.439 498.695 527.077 498.333L509.265 480.304L508.975 480.521L508.83 485.952L510.423 487.472C511.22 488.269 511.292 489.572 510.568 490.296C510.134 490.731 509.554 490.948 508.975 490.875C508.541 490.803 508.034 490.658 507.672 490.296L505.427 488.124C504.993 487.69 504.775 487.11 504.775 486.531L504.993 479.29C504.993 478.711 505.282 478.132 505.789 477.842L510.061 474.584Z" fill="white"/>
<path d="M505.934 469.95C507.672 470.095 508.975 471.615 508.903 473.281C508.83 474.946 507.455 476.249 505.717 476.104C503.979 475.96 502.676 474.439 502.748 472.774C502.821 471.036 504.196 469.805 505.934 469.95Z" fill="white"/>
<path d="M545.251 519.114H492.177" stroke="white" stroke-width="2.8038" stroke-miterlimit="10" stroke-linecap="round" stroke-linejoin="round"/>
<path d="M545.613 525.703H510.568" stroke="white" stroke-width="2.8038" stroke-miterlimit="10" stroke-linecap="round" stroke-linejoin="round"/>
<path d="M506.658 525.703H491.235" stroke="white" stroke-width="2.8038" stroke-miterlimit="10" stroke-linecap="round" stroke-linejoin="round"/>
<path d="M110.376 563.716L115.517 579.067H118.92V563.716H110.376Z" fill="#251B37"/>
<path d="M115.517 590C119.796 590 123.265 584.845 123.265 578.487C123.265 572.129 119.796 566.974 115.517 566.974C111.238 566.974 107.77 572.129 107.77 578.487C107.77 584.845 111.238 590 115.517 590Z" fill="#251B37"/>
<path d="M108.71 589.961H115.516V566.936H108.71V589.961Z" fill="#251B37"/>
<path d="M108.711 590C112.99 590 116.458 584.846 116.458 578.487C116.458 572.129 112.99 566.975 108.711 566.975C104.432 566.975 100.963 572.129 100.963 578.487C100.963 584.846 104.432 590 108.711 590Z" fill="#251B37"/>
<path d="M108.711 590C112.99 590 116.458 584.846 116.458 578.487C116.458 572.129 112.99 566.975 108.711 566.975C104.432 566.975 100.963 572.129 100.963 578.487C100.963 584.846 104.432 590 108.711 590Z" fill="#251B37"/>
<path d="M101.47 563.716L106.611 579.067H109.942V563.716H101.47Z" fill="#251B37"/>
<path d="M204.36 563.716L209.501 579.067H212.904V563.716H204.36Z" fill="#251B37"/>
<path d="M209.501 590C213.78 590 217.249 584.845 217.249 578.487C217.249 572.129 213.78 566.974 209.501 566.974C205.222 566.974 201.754 572.129 201.754 578.487C201.754 584.845 205.222 590 209.501 590Z" fill="#251B37"/>
<path d="M202.701 589.961H209.508V566.936H202.701V589.961Z" fill="#251B37"/>
<path d="M202.695 590C206.974 590 210.442 584.846 210.442 578.487C210.442 572.129 206.974 566.975 202.695 566.975C198.416 566.975 194.947 572.129 194.947 578.487C194.947 584.846 198.416 590 202.695 590Z" fill="#251B37"/>
<path d="M202.695 590C206.974 590 210.442 584.846 210.442 578.487C210.442 572.129 206.974 566.975 202.695 566.975C198.416 566.975 194.947 572.129 194.947 578.487C194.947 584.846 198.416 590 202.695 590Z" fill="#251B37"/>
<path d="M195.454 563.716L200.595 579.067H203.926V563.716H195.454Z" fill="#251B37"/>
<path d="M48.2514 563.716L53.3923 579.067H56.7954V563.716H48.2514Z" fill="#251B37"/>
<path d="M53.3924 590C57.6712 590 61.1399 584.845 61.1399 578.487C61.1399 572.129 57.6712 566.974 53.3924 566.974C49.1135 566.974 45.6448 572.129 45.6448 578.487C45.6448 584.845 49.1135 590 53.3924 590Z" fill="#251B37"/>
<path d="M46.5769 589.961H53.3831V566.936H46.5769V589.961Z" fill="#251B37"/>
<path d="M46.5861 590C50.865 590 54.3336 584.846 54.3336 578.487C54.3336 572.129 50.865 566.975 46.5861 566.975C42.3073 566.975 38.8386 572.129 38.8386 578.487C38.8386 584.846 42.3073 590 46.5861 590Z" fill="#0D4C79"/>
<path d="M46.5861 590C50.865 590 54.3336 584.846 54.3336 578.487C54.3336 572.129 50.865 566.975 46.5861 566.975C42.3073 566.975 38.8386 572.129 38.8386 578.487C38.8386 584.846 42.3073 590 46.5861 590Z" fill="#0D4C79"/>
<path d="M39.3454 563.716L44.4139 579.067H47.817V563.716H39.3454Z" fill="#251B37"/>
<path d="M142.235 563.716L147.376 579.067H150.779V563.716H142.235Z" fill="#251B37"/>
<path d="M147.376 590C151.655 590 155.124 584.845 155.124 578.487C155.124 572.129 151.655 566.974 147.376 566.974C143.097 566.974 139.629 572.129 139.629 578.487C139.629 584.845 143.097 590 147.376 590Z" fill="#251B37"/>
<path d="M140.569 589.961H147.375V566.936H140.569V589.961Z" fill="#251B37"/>
<path d="M140.57 590C144.849 590 148.317 584.846 148.317 578.487C148.317 572.129 144.849 566.975 140.57 566.975C136.291 566.975 132.822 572.129 132.822 578.487C132.822 584.846 136.291 590 140.57 590Z" fill="#0D4C79"/>
<path d="M140.57 590C144.849 590 148.317 584.846 148.317 578.487C148.317 572.129 144.849 566.975 140.57 566.975C136.291 566.975 132.822 572.129 132.822 578.487C132.822 584.846 136.291 590 140.57 590Z" fill="#0D4C79"/>
<path d="M133.329 563.716L138.47 579.067H141.801V563.716H133.329Z" fill="#251B37"/>
<path d="M126.813 315.651H28.8464V491.889H102.412V429.04L126.813 315.651Z" fill="#0D4C79"/>
<path d="M182.566 424.84L208.343 315.651H126.813L102.05 424.84H182.566Z" fill="#013656"/>
<path d="M24.7917 320.719H212.253C215.076 320.719 217.321 318.475 217.321 315.651C217.321 312.827 215.076 310.583 212.253 310.583H24.7917C21.9678 310.583 19.7232 312.827 19.7232 315.651C19.7232 318.475 21.9678 320.719 24.7917 320.719Z" fill="#2B8FCC"/>
<path d="M129.057 340.849H142.163L143.611 334.405H130.578L129.057 340.849Z" fill="#251B37"/>
<path d="M146.942 340.849H159.975L161.495 334.405H148.462L146.942 340.849Z" fill="#251B37"/>
<path d="M164.826 340.849H177.859L179.38 334.405H166.274L164.826 340.849Z" fill="#251B37"/>
<path d="M182.711 340.849H195.744L197.192 334.405H184.159L182.711 340.849Z" fill="#251B37"/>
<path d="M126.306 352.868H139.339L140.86 346.496H127.754L126.306 352.868Z" fill="#251B37"/>
<path d="M144.19 352.868H157.223L158.672 346.496H145.638L144.19 352.868Z" fill="#251B37"/>
<path d="M162.002 352.868H175.108L176.556 346.496H163.523L162.002 352.868Z" fill="#251B37"/>
<path d="M179.887 352.868H192.92L194.441 346.496H181.407L179.887 352.868Z" fill="#251B37"/>
<path d="M123.482 364.96H136.588L138.036 358.516H125.003L123.482 364.96Z" fill="#251B37"/>
<path d="M141.366 364.96H154.4L155.92 358.516H142.887L141.366 364.96Z" fill="#251B37"/>
<path d="M159.251 364.96H172.284L173.805 358.516H160.699L159.251 364.96Z" fill="#251B37"/>
<path d="M177.135 364.96H190.169L191.617 358.516H178.583L177.135 364.96Z" fill="#251B37"/>
<path d="M120.731 377.052H133.764L135.284 370.608H122.251L120.731 377.052Z" fill="#251B37"/>
<path d="M138.615 377.052H151.648L153.169 370.608H140.063L138.615 377.052Z" fill="#251B37"/>
<path d="M156.499 377.052H169.533L170.981 370.608H157.948L156.499 377.052Z" fill="#251B37"/>
<path d="M174.311 377.052H187.417L188.865 370.608H175.832L174.311 377.052Z" fill="#251B37"/>
<path d="M117.979 389.071H131.012L132.46 382.627H119.427L117.979 389.071Z" fill="#251B37"/>
<path d="M135.791 389.071H148.897L150.345 382.627H137.312L135.791 389.071Z" fill="#251B37"/>
<path d="M153.676 389.071H166.709L168.229 382.627H155.196L153.676 389.071Z" fill="#251B37"/>
<path d="M171.56 389.071H184.593L186.114 382.627H173.008L171.56 389.071Z" fill="#251B37"/>
<path d="M115.155 401.163H128.188L129.709 394.719H116.676L115.155 401.163Z" fill="#251B37"/>
<path d="M133.04 401.163H146.073L147.593 394.719H134.488L133.04 401.163Z" fill="#251B37"/>
<path d="M150.924 401.163H163.957L165.405 394.719H152.372L150.924 401.163Z" fill="#251B37"/>
<path d="M168.736 401.163H181.842L183.29 394.719H170.257L168.736 401.163Z" fill="#251B37"/>
<path d="M112.404 413.183H125.437L126.958 406.739H113.852L112.404 413.183Z" fill="#251B37"/>
<path d="M130.288 413.183H143.321L144.77 406.739H131.736L130.288 413.183Z" fill="#251B37"/>
<path d="M148.1 413.183H161.206L162.654 406.739H149.621L148.1 413.183Z" fill="#251B37"/>
<path d="M165.985 413.183H179.018L180.538 406.739H167.505L165.985 413.183Z" fill="#251B37"/>
<path d="M90.5369 564.875H38.8385C33.3356 564.875 28.8464 560.386 28.8464 554.883V372.997L47.9617 374.301L90.5369 423.392V564.875Z" fill="#7EC4E0"/>
<path d="M250.7 423.32L234.119 548.656C232.888 557.924 224.996 564.875 215.656 564.875H90.5369V423.32H250.7Z" fill="#7EC4E0"/>
<path d="M226.879 483.779C226.444 483.562 226.227 483.128 226.082 482.693C225.865 481.68 226.299 480.521 227.168 479.942C228.834 478.928 231.368 480.087 230.789 482.259C230.644 482.911 230.137 483.49 229.485 483.779C228.978 483.997 228.399 483.997 227.82 483.997C227.458 483.997 227.168 483.924 226.879 483.779Z" fill="#5B97B5"/>
<path d="M223.258 482.114C224.634 482.331 224.562 484.576 224.2 485.517C223.765 486.748 222.607 487.689 221.303 488.051C220.941 488.124 220.579 488.196 220.217 488.051C219.855 487.906 219.493 487.617 219.348 487.255C218.697 486.096 218.986 484.648 219.855 483.635C220.507 482.838 222.172 481.897 223.258 482.114Z" fill="#5B97B5"/>
<path d="M225.793 486.965C226.01 486.82 226.227 486.748 226.444 486.748C226.951 486.676 227.675 487.182 227.892 487.544C228.037 487.834 228.11 488.196 227.965 488.558C227.82 489.065 227.313 489.355 226.806 489.572C226.589 489.644 226.372 489.717 226.155 489.644C225.72 489.572 225.43 489.065 225.213 488.63C225.068 488.268 224.924 487.906 225.068 487.617C225.213 487.255 225.503 487.11 225.793 486.965Z" fill="#5B97B5"/>
<path d="M115.734 543.732C116.024 543.587 116.386 543.515 116.676 543.515C117.11 543.587 117.545 543.877 117.834 544.311C118.413 545.18 118.413 546.411 117.762 547.28C116.603 548.801 113.779 548.583 113.562 546.411C113.49 545.687 113.779 545.035 114.286 544.529C114.648 544.166 115.228 543.949 115.734 543.732Z" fill="#5B97B5"/>
<path d="M120.369 537.65C120.658 537.433 121.02 537.216 121.382 537.216C121.817 537.216 122.179 537.433 122.541 537.65C123.554 538.519 123.772 539.967 123.337 541.198C122.975 542.212 121.817 543.66 120.658 543.877C119.282 544.167 118.558 541.994 118.558 540.981C118.558 539.677 119.282 538.446 120.369 537.65Z" fill="#5B97B5"/>
<path d="M116.096 540.691C115.662 540.908 114.793 540.763 114.431 540.474C114.141 540.257 113.997 539.895 113.997 539.605C113.997 539.098 114.359 538.591 114.721 538.229C114.866 538.084 115.083 537.94 115.3 537.94C115.734 537.867 116.169 538.229 116.531 538.519C116.748 538.808 117.038 539.098 117.038 539.46C117.038 539.75 116.821 540.039 116.603 540.257C116.458 540.401 116.314 540.619 116.096 540.691Z" fill="#5B97B5"/>
<path d="M48.2514 432.153C48.6859 431.791 49.1927 431.574 49.772 431.357C50.0616 431.212 50.4236 431.139 50.7133 431.139C51.1477 431.212 51.5821 431.501 51.8718 431.936C52.451 432.805 52.451 434.036 51.7994 434.905C50.6408 436.425 47.817 436.208 47.5998 434.036C47.455 433.312 47.7446 432.588 48.2514 432.153Z" fill="#5B97B5"/>
<path d="M50.134 429.764C49.6996 429.981 48.8307 429.836 48.4687 429.547C48.1791 429.33 48.0342 428.967 48.0342 428.678C48.0342 428.171 48.3963 427.664 48.7583 427.302C48.9031 427.157 49.1203 427.013 49.3376 427.013C49.772 426.94 50.2064 427.302 50.5685 427.592C50.7857 427.881 51.0753 428.171 51.0753 428.533C51.0753 428.823 50.8581 429.112 50.6409 429.33C50.4961 429.474 50.2789 429.692 50.134 429.764Z" fill="#5B97B5"/>
<path d="M90.5369 428.171L248.745 438.308L250.049 428.171H90.5369Z" fill="#251B37"/>
<path d="M141.511 439.829L130.216 546.411C129.492 553.218 123.772 558.358 116.965 558.358H112.114" stroke="#251B37" stroke-width="3.1739" stroke-miterlimit="10" stroke-linecap="round"/>
<path d="M90.5369 428.461H255.117C257.941 428.461 260.186 426.216 260.186 423.392C260.186 420.568 257.941 418.324 255.117 418.324H92.8539L50.6408 369.666C49.6996 368.58 48.2514 367.929 46.8033 367.929H28.774C25.9502 367.929 23.7056 370.173 23.7056 372.997C23.7056 375.821 25.9502 378.066 28.774 378.066H44.4863L86.6994 426.723C87.7131 427.809 89.0888 428.461 90.5369 428.461Z" fill="#EA9653"/>
<path d="M55.6369 510.932C55.1301 509.918 55.1301 508.687 55.6369 507.674L75.4763 467.198C75.9832 466.185 76.8521 465.605 77.8658 465.605C78.8794 465.605 79.7483 466.185 80.2552 467.198L100.095 507.674C100.601 508.687 100.601 509.918 100.095 510.932C99.5878 511.946 98.7189 512.525 97.7052 512.525H58.0263C57.0126 512.525 56.1438 511.946 55.6369 510.932ZM77.5761 468.646L57.7367 509.122C57.6643 509.267 57.6643 509.411 57.7367 509.484C57.8091 509.556 57.8815 509.701 58.0263 509.701H97.7052C97.85 509.701 97.9224 509.629 97.9948 509.484C98.0672 509.411 98.0672 509.267 97.9948 509.122L78.1554 468.646C78.083 468.502 77.9382 468.429 77.8658 468.429C77.7209 468.429 77.6485 468.502 77.5761 468.646Z" fill="white"/>
<path d="M74.8247 488.702C75.1143 488.485 75.4764 488.413 75.766 488.485L77.4313 488.992L79.3863 486.892C79.8932 486.385 80.6172 486.385 81.0517 486.965C81.4861 487.544 81.4861 488.413 80.9793 488.92L78.5898 491.526C78.3002 491.816 77.8658 491.961 77.5037 491.816L76.3452 491.454L78.5898 494.278L81.9206 493.409C82.2826 493.336 82.717 493.409 83.0067 493.771L88.4372 499.998C88.8716 500.505 88.944 501.374 88.4372 501.953C88.1475 502.243 87.8579 502.387 87.4959 502.387C87.2063 502.387 86.989 502.243 86.7718 502.025L81.7758 496.305L80.4 496.667L85.4685 503.111C85.9029 503.691 85.9029 504.56 85.3961 505.066C85.1789 505.356 84.8168 505.428 84.5272 505.428C84.2376 505.428 83.948 505.284 83.8031 504.994L74.173 492.757L74.0282 492.902L73.7386 496.595L74.6075 497.609C75.0419 498.115 75.0419 499.057 74.6075 499.563C74.3179 499.853 74.0282 499.998 73.6662 499.925C73.3766 499.925 73.1594 499.781 72.9421 499.491L71.7112 497.971C71.494 497.681 71.3492 497.319 71.3492 496.884L71.7112 491.961C71.7112 491.526 71.9284 491.164 72.2181 490.947L74.8247 488.702Z" fill="white"/>
<path d="M72.5801 485.59C73.5938 485.662 74.2454 486.748 74.173 487.906C74.1006 489.065 73.2318 489.934 72.2181 489.789C71.2044 489.717 70.5527 488.631 70.6251 487.472C70.7699 486.314 71.6388 485.445 72.5801 485.59Z" fill="white"/>
<path d="M2.27319 300.446L28.9913 414.124C29.4257 415.934 31.091 417.238 32.9736 417.238H51.4373C53.6819 417.238 55.4921 415.427 55.4921 413.183C55.4921 410.938 53.6819 409.128 51.4373 409.128H36.2319L10.3103 298.563C10.1655 297.911 10.4551 297.477 10.6 297.26C10.7448 297.043 11.1792 296.681 11.8309 296.681H131.374C132.026 296.681 132.605 297.115 132.822 297.767L137.167 310.583H145.638L140.425 295.088C139.122 291.178 135.429 288.499 131.229 288.499H11.6861C8.71739 288.499 5.96593 289.874 4.08336 292.191C2.20078 294.508 1.54912 297.549 2.27319 300.446Z" fill="#FFBD29"/>
<path d="M273.002 234.845C273.002 250.268 277.129 286.037 284.587 346.351C285.528 353.592 286.397 361.195 287.411 369.16C294.869 429.402 303.775 501.302 307.178 545.832C308.119 557.634 308.626 567.481 308.626 574.722H381.612C381.612 567.047 381.177 557.2 380.381 545.832C377.123 499.419 368.072 426.288 359.89 360.181C353.084 305.297 345.988 248.458 345.988 234.845H273.002Z" fill="#EE8B69"/>
<path d="M182.711 574.723H255.697C255.697 567.844 256.421 557.924 257.652 545.832C260.837 513.684 267.644 466.33 274.305 420.062C277.925 394.647 281.546 369.739 284.659 346.424C290.959 299.65 295.593 259.391 295.593 234.918H222.534C222.534 266.342 211.601 342.514 201.971 409.708C194.223 463.651 187.272 512.091 184.304 545.832C183.217 557.272 182.711 567.047 182.711 574.723Z" fill="#EE8B69"/>
<path d="M180.466 545.832H257.579C260.765 513.684 267.571 466.33 274.233 420.062C277.853 394.647 281.473 369.739 284.587 346.424C285.528 353.665 286.397 361.268 287.411 369.232C294.869 429.475 300.154 501.375 303.557 545.905H380.308C377.05 499.492 367.999 426.361 359.817 360.254C353.011 305.37 346.35 253.744 347.001 234.918H222.462C222.462 266.342 211.529 342.514 201.898 409.708C194.223 463.651 183.507 512.091 180.466 545.832Z" fill="#0D4C79"/>
<path d="M239.622 233.397L196.468 537.288" stroke="#2B8FCC" stroke-width="3.0546" stroke-miterlimit="10" stroke-linecap="round"/>
<path d="M298.417 322.24L317.459 537.94" stroke="#2B8FCC" stroke-width="3.0546" stroke-miterlimit="10" stroke-linecap="round"/>
<path d="M379.15 537.288H305.657" stroke="#2B8FCC" stroke-width="3.0546" stroke-miterlimit="10" stroke-linecap="round"/>
<path d="M256.203 537.288H182.711" stroke="#2B8FCC" stroke-width="3.0546" stroke-miterlimit="10" stroke-linecap="round"/>
<path d="M222.317 234.845L347.363 248.023L346.857 237.017L222.317 234.845Z" fill="#251B37"/>
<path d="M381.539 574.722C386.535 580.442 419.118 581.89 419.118 589.927H308.698V574.722H381.539Z" fill="#FFBD29"/>
<path d="M255.624 574.722C260.62 580.442 293.203 581.89 293.203 589.927H182.783V574.722H255.624Z" fill="#FFBD29"/>
<path d="M284.732 342.369L290.379 299.07" stroke="#251B37" stroke-width="3.0546" stroke-miterlimit="10" stroke-linecap="round" stroke-linejoin="round"/>
<path d="M294.651 316.955L327.09 362.426" stroke="#251B37" stroke-width="3.0546" stroke-miterlimit="10" stroke-linecap="round" stroke-linejoin="round"/>
<path d="M228.254 248.096C232.454 255.916 240.274 261.636 249.035 263.229" stroke="#251B37" stroke-width="3.0546" stroke-miterlimit="10" stroke-linecap="round" stroke-linejoin="round"/>
<path d="M229.196 255.554C232.671 263.012 237.595 269.745 243.605 275.321" stroke="#251B37" stroke-width="3.0546" stroke-miterlimit="10" stroke-linecap="round" stroke-linejoin="round"/>
<path d="M395.152 331.218C418.539 317.968 442.94 287.847 425.997 219.712C416.512 181.554 397.324 142.599 384.653 116.75L383.784 114.94L340.123 136.444L341.064 138.255C356.994 170.693 405.578 269.311 371.258 288.86L395.152 331.218Z" fill="#EE8B69"/>
<path d="M422.522 207.041C405.144 216.164 377.847 228.256 377.847 228.256L375.095 218.988L422.522 207.041Z" fill="#251B37"/>
<path d="M384.218 115.953C403.406 151.143 424.042 206.462 424.042 206.462C408.981 212.327 370.678 223.115 370.678 223.115C363.438 201.248 353.88 173.01 353.88 173.01C353.88 173.01 370.027 128.48 384.218 115.953Z" fill="#72B000"/>
<path d="M346.422 234.845C349.174 170.114 384.291 115.953 384.291 115.953C368.868 83.5152 346.639 74.1023 346.639 74.1023L314.056 67.5133C286.325 66.5721 262.358 77.7951 262.358 77.7951C227.168 135.431 222.317 234.918 222.317 234.918H346.422V234.845Z" fill="#72B000"/>
<path d="M356.704 177.571L353.808 149.478L370.389 93.0729L356.704 79.9673L336.864 141.513L283.935 127.176L305.006 67.4409L287.556 69.4683L265.182 125.294L235.93 145.713C235.93 145.713 224.127 190.025 222.317 234.845L346.857 237.017C350.115 197.483 356.704 177.571 356.704 177.571Z" fill="#0D4C79"/>
<path d="M145.204 173.734C159.106 138.617 208.053 98.1413 259.751 78.7363C255.624 89.8145 251.714 101.038 247.877 112.188C244.184 122.832 240.998 133.621 237.522 144.337C215.294 158.963 199.509 175.472 192.992 186.26C209.429 185.029 241.36 176.413 270.83 158.963L295.593 200.814C264.82 219.06 221.014 234.845 188.938 234.845C181.987 234.845 175.615 234.121 169.967 232.456C155.558 228.256 148.535 219.567 145.204 212.978C141.294 205.158 138.036 191.908 145.204 173.734Z" fill="#EE8B69"/>
<path d="M181.19 126.525L202.478 173.951L210.08 166.204L181.19 126.525Z" fill="#251B37"/>
<path d="M262.358 77.7952C215.221 94.1591 180.104 125.149 180.104 125.149C194.585 143.758 211.384 170.331 211.384 170.331C229.992 152.229 248.528 136.951 248.528 136.951L262.358 77.7952Z" fill="#72B000"/>
<path d="M308.191 67.5134C303.702 90.3939 323.686 97.9965 323.686 97.9965C323.686 97.9965 342.802 101.617 352.577 77.5055C350.767 76.2745 348.739 75.116 346.639 74.1023L314.563 67.4409L308.191 67.5134Z" fill="#EE8B69"/>
<path d="M367.782 43.6917C375.53 34.3512 373.647 28.7035 373.647 28.7035L345.408 15.5979L326.365 20.1595C323.252 26.0969 323.759 38.768 323.759 38.768L367.782 43.6917Z" fill="#251B37"/>
<path d="M370.606 26.8933C369.303 40.8678 367.782 59.6211 358.152 63.0966C355.111 64.1827 350.549 63.0242 350.549 63.0242L343.164 85.3255L309.567 80.619L328.465 24.9383L343.309 13.0636C343.236 12.9912 371.764 14.2221 370.606 26.8933Z" fill="#EE8B69"/>
<path d="M323.686 38.913L335.489 33.5549C329.479 28.6312 330.565 22.8387 334.909 22.1146C339.181 21.3182 340.702 26.7486 340.702 26.7486C344.033 25.3005 341.064 22.1146 342.657 18.8563C344.25 15.598 364.886 17.915 370.533 24.7213C368.941 13.0638 345.264 7.19883 334.62 13.3534C328.827 16.6117 323.686 38.913 323.686 38.913Z" fill="#251B37"/>
<path d="M360.179 2.13022C378.788 7.48831 373.575 28.7759 373.575 28.7759L326.293 20.3043C329.045 10.819 341.571 -3.22788 360.179 2.13022Z" fill="#FFBD29"/>
<path d="M373.575 28.7758C373.575 28.7758 387.984 25.083 384.653 18.3492C378.933 6.69171 341.643 22.9832 341.643 22.9832L373.575 28.7758Z" fill="#EA9653"/>
<path d="M367.13 37.0303C366.913 36.3787 366.334 35.8718 365.682 35.727C365.031 35.5822 364.234 35.7995 363.8 36.3787" stroke="#251B37" stroke-width="3.0546" stroke-miterlimit="10" stroke-linecap="round" stroke-linejoin="round"/>
<path d="M357.066 35.22C356.704 34.3512 356.197 33.3375 355.328 32.903C354.749 32.6134 354.097 32.6134 353.518 32.8306C352.939 32.9754 352.359 33.3375 351.853 33.6995" stroke="#251B37" stroke-width="3.0546" stroke-miterlimit="10" stroke-linecap="round" stroke-linejoin="round"/>
<path d="M360.903 36.5234C360.831 39.0577 360.686 41.6643 360.614 44.1986" stroke="#251B37" stroke-width="3.0546" stroke-miterlimit="10" stroke-linecap="round" stroke-linejoin="round"/>
<path d="M358.152 48.2533C355.473 51.0047 351.346 50.7151 351.346 44.5605L358.152 48.2533Z" stroke="#251B37" stroke-width="3.0546" stroke-miterlimit="10" stroke-linecap="round" stroke-linejoin="round"/>
<path d="M342.223 58.5349C342.223 58.5349 346.567 61.938 350.477 63.0241L348.377 69.5407L342.223 58.5349Z" fill="#251B37"/>
<path d="M253.669 70.0476L470.744 560.892" stroke="#251B37" stroke-width="10.1789" stroke-miterlimit="10"/>
<path d="M439.181 571.373H502.247V560.077H439.181V571.373Z" fill="#72B000"/>
<path d="M439.175 571.319H502.241C518.533 581.311 504.414 589.927 504.414 589.927H405.434C405.289 579.935 439.175 578.415 439.175 571.319Z" fill="#FCE4B1"/>
<path d="M439.175 571.319H502.241L434.831 575.374C434.831 575.446 439.32 573.563 439.175 571.319Z" fill="#251B37"/>
<path d="M311.957 151.288C311.015 151.65 309.929 151.722 308.843 151.36C308.771 151.36 300.878 149.116 294.507 150.129C291.755 150.564 289.221 148.681 288.786 146.002C288.352 143.251 290.235 140.717 292.914 140.282C301.602 138.906 311.232 141.73 311.667 141.803C314.346 142.599 315.867 145.35 315.07 148.03C314.563 149.622 313.332 150.781 311.957 151.288Z" fill="#EE8B69"/>
<path d="M316.011 160.628C315.07 160.99 313.984 161.063 312.898 160.701C312.825 160.701 304.933 158.456 298.561 159.47C295.81 159.904 293.276 158.022 292.841 155.343C292.407 152.591 294.289 150.057 296.968 149.623C305.657 148.247 315.287 151.071 315.722 151.143C318.401 151.94 319.921 154.691 319.125 157.37C318.618 158.963 317.459 160.122 316.011 160.628Z" fill="#EE8B69"/>
<path d="M320.066 169.969C319.125 170.331 318.039 170.403 316.953 170.041C316.88 170.041 308.988 167.797 302.616 168.811C299.865 169.245 297.33 167.362 296.896 164.683C296.462 161.932 298.344 159.398 301.023 158.963C309.712 157.587 319.342 160.411 319.776 160.484C322.456 161.28 323.976 164.032 323.18 166.711C322.673 168.231 321.514 169.462 320.066 169.969Z" fill="#EE8B69"/>
<path d="M316.156 184.74C314.056 185.536 311.667 184.812 310.291 182.857C309.278 181.337 309.133 179.454 309.929 177.861C308.843 177.861 307.685 177.934 306.598 178.151C303.847 178.585 301.313 176.703 300.878 174.024C300.444 171.272 302.326 168.738 305.006 168.304C313.694 166.928 323.324 169.752 323.759 169.824C325.641 170.403 327.017 171.924 327.307 173.806C327.596 175.689 326.8 177.644 325.207 178.73L317.242 184.161C316.953 184.378 316.518 184.595 316.156 184.74Z" fill="#EE8B69"/>
<path d="M298.199 139.92C281.691 138.327 271.119 159.47 271.119 159.47L295.52 200.887C305.802 201.321 315.939 191.908 312.898 181.988L319.776 177.789L298.199 139.92Z" fill="#EE8B69"/>
<path d="M305.005 168.231C315.07 168.086 320.79 169.534 320.79 169.534" stroke="#251B37" stroke-width="3.0546" stroke-miterlimit="10" stroke-linecap="round" stroke-linejoin="round"/>
<path d="M300.661 158.528C310.726 158.384 316.446 159.832 316.446 159.832" stroke="#251B37" stroke-width="3.0546" stroke-miterlimit="10" stroke-linecap="round" stroke-linejoin="round"/>
<path d="M296.317 148.826C306.381 148.681 312.101 150.129 312.101 150.129" stroke="#251B37" stroke-width="3.0546" stroke-miterlimit="10" stroke-linecap="round" stroke-linejoin="round"/>
<path d="M344.25 319.561C345.046 318.909 345.626 317.968 345.915 316.954C345.915 316.882 348.015 308.917 352.142 303.921C353.88 301.821 353.59 298.635 351.491 296.898C349.391 295.16 346.205 295.449 344.467 297.549C338.892 304.283 336.358 314.058 336.213 314.492C335.561 317.171 337.154 319.923 339.833 320.575C341.426 320.937 343.019 320.502 344.25 319.561Z" fill="#EE8B69"/>
<path d="M350.187 327.815C350.984 327.164 351.563 326.223 351.853 325.209C351.853 325.136 353.952 317.172 358.08 312.176C359.817 310.076 359.528 306.89 357.428 305.152C355.328 303.414 352.142 303.704 350.405 305.804C344.829 312.538 342.295 322.313 342.15 322.747C341.499 325.426 343.091 328.178 345.771 328.829C347.363 329.191 349.029 328.757 350.187 327.815Z" fill="#EE8B69"/>
<path d="M356.125 336.07C356.921 335.418 357.5 334.477 357.79 333.463C357.79 333.391 359.89 325.426 364.017 320.43C365.755 318.33 365.465 315.144 363.365 313.406C361.265 311.669 358.08 311.958 356.342 314.058C350.767 320.792 348.232 330.567 348.087 331.001C347.436 333.68 349.029 336.432 351.708 337.083C353.373 337.445 354.966 337.011 356.125 336.07Z" fill="#EE8B69"/>
<path d="M370.823 340.197C372.561 338.749 373.14 336.359 372.199 334.187C371.402 332.522 369.81 331.436 368.072 331.291C368.651 330.35 369.303 329.408 370.027 328.539C371.764 326.44 371.475 323.254 369.375 321.516C367.275 319.778 364.089 320.068 362.352 322.168C356.776 328.901 354.242 338.676 354.097 339.111C353.59 340.993 354.242 342.948 355.763 344.179C357.283 345.41 359.311 345.7 361.048 344.831L369.737 340.776C370.172 340.704 370.534 340.487 370.823 340.197Z" fill="#EE8B69"/>
<path d="M341.426 301.966C348.45 286.978 372.054 288.643 372.054 288.643L395.224 330.712C390.373 339.763 377.05 343.745 370.099 336.07L363.003 339.835L341.426 301.966Z" fill="#EE8B69"/>
<path d="M362.279 322.24C357.066 330.784 355.401 336.504 355.401 336.504" stroke="#251B37" stroke-width="3.0546" stroke-miterlimit="10" stroke-linecap="round" stroke-linejoin="round"/>
<path d="M356.125 313.551C350.911 322.095 349.246 327.815 349.246 327.815" stroke="#251B37" stroke-width="3.0546" stroke-miterlimit="10" stroke-linecap="round" stroke-linejoin="round"/>
<path d="M349.97 304.863C344.757 313.407 343.091 319.127 343.091 319.127" stroke="#251B37" stroke-width="3.0546" stroke-miterlimit="10" stroke-linecap="round" stroke-linejoin="round"/>
<path d="M488.782 296.802C491.428 285.594 484.488 274.363 473.28 271.716C462.071 269.07 450.84 276.01 448.193 287.218C445.547 298.427 452.487 309.658 463.696 312.305C474.904 314.951 486.135 308.011 488.782 296.802Z" fill="#2B8FCC"/>
<path d="M465.314 277.42C462.78 277.782 460.318 278.941 458.58 280.824C456.77 282.634 455.611 285.096 455.394 287.63" stroke="white" stroke-width="3.4455" stroke-miterlimit="10" stroke-linecap="round"/>
<path d="M454.887 292.409C454.887 292.916 454.887 293.495 454.887 294.002" stroke="white" stroke-width="3.4455" stroke-miterlimit="10" stroke-linecap="round"/>
<path d="M106.851 199.176C117.492 194.768 122.545 182.569 118.137 171.929C113.73 161.289 101.531 156.236 90.8905 160.643C80.25 165.051 75.1973 177.25 79.6048 187.89C84.0123 198.53 96.211 203.583 106.851 199.176Z" fill="#2B8FCC"/>
<path d="M95.6778 165.408C93.1435 165.77 90.6817 166.928 88.944 168.811C87.2062 170.693 85.9753 173.083 85.7581 175.617" stroke="white" stroke-width="3.4455" stroke-miterlimit="10" stroke-linecap="round"/>
<path d="M85.2513 180.396C85.2513 180.902 85.2513 181.482 85.2513 181.988" stroke="white" stroke-width="3.4455" stroke-miterlimit="10" stroke-linecap="round"/>
<path d="M531.302 235.581C532.497 230.522 529.364 225.452 524.305 224.258C519.245 223.063 514.176 226.196 512.981 231.255C511.786 236.314 514.919 241.384 519.979 242.579C525.038 243.773 530.108 240.641 531.302 235.581Z" fill="#2B8FCC"/>
<path d="M520.705 226.88C519.546 227.025 518.46 227.604 517.664 228.401C516.867 229.197 516.361 230.356 516.216 231.514" stroke="white" stroke-width="1.5531" stroke-miterlimit="10" stroke-linecap="round"/>
<path d="M515.999 233.614C515.999 233.831 515.999 234.121 515.999 234.338" stroke="white" stroke-width="1.5531" stroke-miterlimit="10" stroke-linecap="round"/>
<path d="M45.4958 193.483C49.1717 189.808 49.1717 183.848 45.4958 180.172C41.8199 176.496 35.86 176.496 32.1841 180.172C28.5082 183.848 28.5082 189.808 32.1841 193.483C35.86 197.159 41.8199 197.159 45.4958 193.483Z" fill="#2B8FCC"/>
<path d="M37.3903 180.323C36.2318 180.468 35.1457 181.047 34.3492 181.843C33.5527 182.64 33.0459 183.798 32.9011 184.957" stroke="white" stroke-width="1.5531" stroke-miterlimit="10" stroke-linecap="round"/>
<path d="M32.684 187.057C32.684 187.274 32.684 187.563 32.684 187.781" stroke="white" stroke-width="1.5531" stroke-miterlimit="10" stroke-linecap="round"/>
<path d="M561.871 353.289C569.223 350.244 572.714 341.815 569.669 334.463C566.624 327.11 558.195 323.619 550.842 326.665C543.49 329.71 539.999 338.139 543.044 345.491C546.09 352.844 554.519 356.335 561.871 353.289Z" fill="#2B8FCC"/>
<path d="M554.084 329.988C552.347 330.205 550.681 331.074 549.45 332.305C548.219 333.536 547.423 335.273 547.206 337.011" stroke="white" stroke-width="2.3751" stroke-miterlimit="10" stroke-linecap="round"/>
<path d="M546.916 340.269C546.916 340.631 546.916 340.993 546.916 341.355" stroke="white" stroke-width="2.3751" stroke-miterlimit="10" stroke-linecap="round"/>
<path d="M105.98 103.583C111.664 97.8994 111.664 88.6846 105.98 83.001C100.297 77.3175 91.0819 77.3175 85.3984 83.001C79.7148 88.6846 79.7148 97.8994 85.3984 103.583C91.0819 109.266 100.297 109.266 105.98 103.583Z" fill="#2B8FCC"/>
<path d="M93.4332 83.2258C91.6955 83.4431 89.9577 84.3119 88.7268 85.5429C87.4959 86.8462 86.6994 88.5116 86.4822 90.3217" stroke="white" stroke-width="2.3968" stroke-miterlimit="10" stroke-linecap="round"/>
<path d="M86.1925 93.5796C86.1925 93.9416 86.1925 94.3037 86.1925 94.6657" stroke="white" stroke-width="2.3968" stroke-miterlimit="10" stroke-linecap="round"/>
</svg>
