<svg width="787" height="615" viewBox="0 0 787 615" fill="none" xmlns="http://www.w3.org/2000/svg">
<path fill-rule="evenodd" clip-rule="evenodd" d="M0.00536461 127.995C13.1352 127.729 23.7296 117.135 23.9952 104.005L24.0003 104L24.0054 104.005C24.2709 117.135 34.8653 127.729 47.9952 127.995L48.0005 128L47.9957 128.005C34.8654 128.27 24.2706 138.865 24.0054 151.995L24.0003 152.001L23.9952 151.995C23.7299 138.865 13.1351 128.27 0.00483121 128.005L0 128L0.00536461 127.995Z" fill="#0DC6FE"/>
<path fill-rule="evenodd" clip-rule="evenodd" d="M670.005 590.995C683.135 590.729 693.73 580.135 693.995 567.005L694 567L694.005 567.005C694.271 580.135 704.865 590.729 717.995 590.995L718.001 591L717.996 591.005C704.865 591.27 694.271 601.865 694.005 614.995L694 615.001L693.995 614.995C693.73 601.865 683.135 591.27 670.005 591.005L670 591L670.005 590.995Z" fill="#0DC6FE"/>
<path fill-rule="evenodd" clip-rule="evenodd" d="M613.005 137.995C626.135 137.729 636.73 127.135 636.995 114.005L637 114L637.005 114.005C637.271 127.135 647.865 137.729 660.995 137.995L661.001 138L660.996 138.005C647.865 138.27 637.271 148.865 637.005 161.995L637 162.001L636.995 161.995C636.73 148.865 626.135 138.27 613.005 138.005L613 138L613.005 137.995Z" fill="#0DC6FE"/>
<path fill-rule="evenodd" clip-rule="evenodd" d="M48.0017 83.0019C48.0903 87.3782 51.6214 90.9093 55.9977 90.998L55.9995 90.9997L55.9979 91.0014C51.6215 91.0899 48.0902 94.6212 48.0017 98.9976L47.9997 98.9995L47.9983 98.998C47.91 94.6213 44.3783 91.0897 40.0016 91.0014L40 90.9997L40.0018 90.998C44.3782 90.9095 47.9095 87.3781 47.998 83.0017L47.9997 83L48.0017 83.0019Z" fill="#0DC6FE"/>
<path fill-rule="evenodd" clip-rule="evenodd" d="M718.002 546.002C718.09 550.378 721.621 553.909 725.998 553.998L725.999 554L725.998 554.001C721.621 554.09 718.09 557.621 718.002 561.998L718 561.999L717.998 561.998C717.91 557.621 714.378 554.09 710.002 554.001L710 554L710.002 553.998C714.378 553.909 717.91 550.378 717.998 546.002L718 546L718.002 546.002Z" fill="#0DC6FE"/>
<path fill-rule="evenodd" clip-rule="evenodd" d="M661.002 93.0019C661.09 97.3782 664.621 100.909 668.998 100.998L668.999 101L668.998 101.001C664.621 101.09 661.09 104.621 661.002 108.998L661 108.999L660.998 108.998C660.91 104.621 657.378 101.09 653.002 101.001L653 101L653.002 100.998C657.378 100.909 660.91 97.3781 660.998 93.0017L661 93L661.002 93.0019Z" fill="#0DC6FE"/>
<path fill-rule="evenodd" clip-rule="evenodd" d="M74.0115 51.9887C102.46 51.4139 125.415 28.4588 125.99 0.0102185L126 0L126.015 0.014283C126.591 28.4596 149.544 51.4117 177.989 51.9887L178.001 52.0003L177.99 52.0109C149.544 52.5873 126.591 75.5402 126.015 103.986L126 104.001L125.99 103.99C125.416 75.541 102.46 52.5852 74.0106 52.0108L74 52.0003L74.0115 51.9887Z" fill="#2F97E2" fill-opacity="0.55"/>
<path fill-rule="evenodd" clip-rule="evenodd" d="M726.012 263.989C754.46 263.414 777.415 240.459 777.99 212.01L778 212L778.015 212.014C778.591 240.46 801.544 263.412 829.989 263.989L830.001 264L829.99 264.011C801.544 264.587 778.591 287.54 778.015 315.986L778 316.001L777.99 315.99C777.416 287.541 754.46 264.585 726.011 264.011L726 264L726.012 263.989Z" fill="#2F97E2" fill-opacity="0.55"/>
</svg>
