<svg width="88" height="74" viewBox="0 0 88 74" fill="none" xmlns="http://www.w3.org/2000/svg">
<path d="M69.2394 10.5883C69.281 10.6509 69.281 10.7551 69.3018 10.8176C69.3642 11.0261 69.4682 11.1094 69.6345 11.2136C69.6762 11.2553 69.7178 11.2553 69.7594 11.3179L69.3643 11.4429C69.3018 11.6096 69.281 11.7764 69.2187 11.9431C69.177 11.8181 69.1354 11.6722 69.0731 11.568C68.969 11.3804 68.8027 11.3595 68.6154 11.297L68.5738 11.2762L68.8027 11.1928C68.8442 11.172 68.865 11.172 68.8858 11.1511C69.0939 11.0677 69.177 10.7759 69.2394 10.5883Z" fill="#99D21C"/>
<path d="M82.8003 49.1691C82.9251 49.5442 82.8003 52.2122 82.6339 52.629C82.6339 52.6499 82.5922 52.6916 82.5922 52.7125C82.6339 52.7541 82.6339 52.7958 82.6755 52.8375C82.9874 53.0668 85.0465 53.3586 85.6497 53.6713C85.0257 53.6087 82.9459 53.0668 82.5091 53.1918C82.6755 53.6296 81.8643 57.7774 81.5939 58.2567C81.5731 58.2984 81.5731 58.2984 81.5315 58.3193C81.7602 58.6319 85.0881 59.9658 85.6497 60.1952C86.0865 60.3827 86.8352 60.5704 87.1472 60.9038C86.2944 60.6328 81.8435 58.9863 81.3444 58.9863C81.4899 59.6115 79.5556 64.1136 79.1604 64.9265C79.4932 65.1142 80.7828 65.7812 80.8867 66.0521C80.3252 65.6977 79.6804 65.3851 79.0773 65.0933C78.3493 66.6774 77.4342 68.199 76.4774 69.658C77.2261 70.2833 78.2245 71.0544 78.8901 71.7214C77.9541 71.4088 77.0182 70.6376 76.2278 70.0331L75.8118 70.6168L75.5206 70.45C75.7495 69.9498 76.0199 69.4495 76.2694 68.9493C76.6438 68.1573 76.9973 67.3652 77.3302 66.5523C77.455 66.2189 77.5797 65.8853 77.7045 65.5519C77.8293 65.2184 77.9333 64.8849 78.0581 64.5514C78.162 64.2179 78.2661 63.8844 78.3701 63.5301C78.4741 63.1966 78.5572 62.8423 78.6613 62.5087C78.7445 62.1753 78.8277 61.821 78.9109 61.4666C78.994 61.1123 79.0565 60.7787 79.1396 60.4244C79.2021 60.0701 79.2644 59.7366 79.3269 59.3823C79.3892 59.0279 79.4308 58.6736 79.4932 58.3402C79.5348 57.9858 79.5764 57.6315 79.6181 57.2772C79.6596 56.9228 79.6804 56.5685 79.722 56.2141C79.7429 55.8598 79.7636 55.5055 79.7844 55.1511C79.8052 54.7968 79.8052 54.4425 79.8052 54.0881C79.8052 53.7338 79.8052 53.3795 79.8052 53.0251C79.8052 52.6708 79.7844 52.3165 79.7636 51.9621C79.7429 51.6078 79.722 51.2535 79.7012 50.8991C79.6804 50.5448 79.6388 50.1905 79.5973 49.8361C79.5764 49.6068 79.5556 49.3983 79.514 49.1691C79.4725 48.9398 79.4517 48.7313 79.4308 48.5021C79.41 48.2729 79.3684 48.0644 79.3269 47.8351C79.2852 47.6059 79.2644 47.3974 79.2229 47.1681C79.1813 46.9598 79.1396 46.7304 79.098 46.522C79.0565 46.3136 79.0148 46.0843 78.9525 45.8759C78.9109 45.6674 78.8484 45.4382 78.8069 45.2298C78.7445 45.0213 78.7028 44.792 78.6405 44.5837C78.578 44.3752 78.5157 44.1459 78.4532 43.9374C78.3909 43.729 78.3285 43.5207 78.2661 43.2913C78.2037 43.0829 78.1413 42.8744 78.0581 42.6452C77.9957 42.4368 77.9125 42.2283 77.8501 42.0199C77.7669 41.8114 77.7045 41.603 77.6214 41.3945C77.5381 41.1862 77.4758 40.9778 77.3925 40.7693C77.3094 40.5609 77.2261 40.3524 77.1429 40.144C77.0598 39.9355 76.9765 39.7271 76.8934 39.5395C76.8102 39.3311 76.727 39.1226 76.623 38.9351C76.5398 38.7266 76.4357 38.5391 76.3318 38.3306C76.2278 38.1222 76.1447 37.9346 76.0406 37.7262C75.9366 37.5177 75.8326 37.3302 75.7287 37.1426C75.6246 36.955 75.5206 36.7465 75.4166 36.559C75.3127 36.3714 75.2087 36.163 75.0839 35.9754C74.9798 35.7877 74.855 35.6002 74.7511 35.3917C74.6471 35.2042 74.5223 35.0166 74.3975 34.829C74.2728 34.6414 74.1687 34.4538 74.0439 34.2662C73.9191 34.0786 73.7943 33.8911 73.6695 33.7035C73.5447 33.5158 73.42 33.3283 73.2952 33.1615C73.1704 32.9739 73.0456 32.8072 72.9 32.6196C72.7752 32.4321 72.6296 32.2653 72.5048 32.0985C72.3592 31.9109 72.2344 31.7442 72.0888 31.5775C71.9432 31.4107 71.8184 31.2232 71.6728 31.0564C71.5272 30.8896 71.3816 30.7228 71.236 30.5562C70.2169 29.3889 69.1146 28.18 67.9082 27.2004L67.8875 27.1795C63.1245 22.7816 56.448 19.7593 50.0836 18.7797C49.2933 18.6547 47.6294 18.3837 46.8598 18.4253C45.5495 17.675 44.4264 16.5912 43.1368 15.82C42.0137 16.6746 41.0986 17.7584 40.017 18.6756C38.6443 18.7797 37.1675 19.134 35.8364 19.4883C35.6285 19.5509 35.3996 19.5926 35.1917 19.6551C34.9836 19.7177 34.7549 19.7802 34.5469 19.8427C34.3389 19.9052 34.1309 19.9678 33.9022 20.0303C33.6941 20.0929 33.4862 20.1762 33.2781 20.2388C33.0702 20.3012 32.8621 20.3847 32.6542 20.468C32.4463 20.5513 32.2382 20.6139 32.0303 20.6973C31.8222 20.7807 31.6143 20.864 31.4062 20.9475C31.1983 21.0308 30.9902 21.1141 30.7823 21.1976C30.5744 21.2809 30.3663 21.3851 30.1792 21.4685C29.9711 21.5519 29.7839 21.6561 29.576 21.7395C29.368 21.8437 29.1808 21.927 28.9729 22.0312C28.7648 22.1355 28.5777 22.2397 28.3696 22.3439C28.1617 22.4481 27.9745 22.5524 27.7873 22.6566C27.6001 22.7608 27.392 22.865 27.2049 22.99C27.0177 23.0942 26.8306 23.2194 26.6225 23.3236C26.4354 23.4278 26.2482 23.5528 26.0609 23.6779C25.8738 23.8029 25.6866 23.9071 25.4994 24.0322C25.3122 24.1572 25.125 24.2824 24.9378 24.4074C24.7506 24.5325 24.5635 24.6575 24.3971 24.7826C24.2098 24.9076 24.0435 25.0327 23.8563 25.1786C23.6691 25.3245 23.5027 25.4496 23.3155 25.5746C23.1491 25.6997 22.962 25.8456 22.7956 25.9915C22.6291 26.1374 22.442 26.2625 22.2756 26.4084C22.1092 26.5543 21.9428 26.7001 21.7556 26.8252C21.5892 26.9711 21.4228 27.117 21.2564 27.2629C21.0901 27.4088 20.9237 27.5547 20.7572 27.7215C20.5908 27.8674 20.4245 28.034 20.2789 28.18C20.1125 28.3259 19.9669 28.4926 19.8005 28.6386C19.6342 28.7845 19.4886 28.9512 19.343 29.1179C19.1973 29.2847 19.0309 29.4306 18.8853 29.5974C18.7397 29.7641 18.5734 29.9308 18.4278 30.0976C18.2822 30.2644 18.1366 30.4311 17.991 30.5978C17.8038 30.8271 17.6167 31.0355 17.4294 31.2648C17.2423 31.4941 17.0551 31.7025 16.8886 31.9318C16.7223 32.1611 16.5351 32.3903 16.3687 32.6196C16.2023 32.8488 16.036 33.0782 15.8695 33.3283C15.7031 33.5575 15.5367 33.8076 15.3704 34.037C15.204 34.2662 15.0584 34.5163 14.892 34.7664C14.7464 35.0166 14.58 35.2458 14.4344 35.496C14.2888 35.7461 14.1432 35.9962 13.9976 36.2463C13.852 36.4964 13.7064 36.7465 13.5816 36.9966C13.436 37.2467 13.3113 37.5177 13.1865 37.7679C13.0617 38.018 12.9369 38.289 12.8121 38.5391C12.6873 38.7892 12.5625 39.0602 12.4586 39.3311C12.3545 39.6021 12.2297 39.8522 12.1257 40.1232C12.0218 40.3941 11.9178 40.6651 11.8137 40.9152C11.7097 41.1862 11.6058 41.4571 11.5018 41.7281C11.3977 41.9991 11.3146 42.27 11.2106 42.541C11.1274 42.812 11.0234 43.0829 10.9402 43.3747C10.857 43.6457 10.7738 43.9374 10.6906 44.2084C10.6074 44.4794 10.545 44.7712 10.4618 45.0421C10.3994 45.3131 10.3162 45.6049 10.2538 45.8759C10.1914 46.1677 10.129 46.4387 10.0667 46.7304C10.0042 47.0222 9.96265 47.2932 9.90025 47.585C9.85866 47.8768 9.79626 48.1478 9.75466 48.4396C9.71306 48.7313 9.67146 49.0023 9.62987 49.2941C9.58828 49.586 9.56747 49.8778 9.52587 50.1488C9.50508 50.4406 9.46348 50.7324 9.44268 51.0033C9.42188 51.2951 9.40109 51.5869 9.38028 51.8579C9.35949 52.1497 9.35949 52.4415 9.35949 52.7332C9.35949 53.0251 9.33868 53.3169 9.33868 53.5879C9.33868 53.8797 9.33868 54.1715 9.35949 54.4633C9.35949 54.755 9.38028 55.0469 9.38028 55.3178C9.40109 55.6097 9.42188 55.9015 9.42188 56.1724C9.46348 56.6309 9.50508 57.0895 9.54668 57.548C9.58827 58.0066 9.65067 58.4652 9.73387 58.9237C9.79626 59.3823 9.87946 59.8408 9.96265 60.2785C10.0458 60.7371 10.1498 61.1748 10.2538 61.6334C10.3578 62.0918 10.4618 62.5296 10.5866 62.9673C10.7114 63.4051 10.8362 63.8427 10.9818 64.3013C11.1274 64.739 11.2729 65.1766 11.4185 65.6144C11.585 66.0521 11.7514 66.469 11.9178 66.9066C12.2505 67.7404 12.6249 68.5533 13.0201 69.3662C13.1657 69.658 14.3097 71.6798 14.3304 71.8049C14.2056 71.8049 14.2056 71.784 14.1224 71.7006C13.3737 70.9711 12.1674 68.991 11.6058 68.0322C10.9818 68.4699 9.33868 69.9498 8.86031 70.1582L8.9643 70.0957L8.94351 70.054C9.77546 69.3036 10.6282 68.5533 11.4185 67.7612C10.6698 66.469 10.0042 65.135 9.38028 63.7802C9.06831 63.947 8.67312 64.2387 8.31955 64.343C8.61073 64.072 8.9643 63.8427 9.31789 63.6552C8.9227 62.6755 8.52753 61.6958 8.19475 60.6954C7.98676 60.0909 7.84117 59.4032 7.59158 58.8195C7.1964 58.9654 6.78042 59.0696 6.38525 59.1947C5.01253 59.6324 3.6398 60.0493 2.24627 60.4244C2.26708 60.4244 2.26708 60.4036 2.28787 60.4036L2.35027 60.3827C2.87025 60.0909 3.49421 59.945 4.05578 59.7157C5.22051 59.2572 6.36445 58.7569 7.48759 58.1734C7.00921 56.9645 6.71803 54.6509 6.53084 53.3169C6.21885 53.3795 4.53415 53.6713 4.38856 53.567C4.55495 53.4419 6.15646 53.1501 6.51005 53.0668C6.21885 51.0033 6.19806 48.8773 6.26045 46.793L2.62065 46.7513C1.74711 46.7513 0.852753 46.8347 0 46.7096C2.10068 46.4803 4.22217 46.4595 6.30205 46.2302C6.38525 44.4585 6.65564 42.7078 6.96761 40.9778C5.90688 40.7484 4.78374 40.7276 3.76459 40.3941L7.05081 40.686C7.342 38.9976 7.92436 36.83 8.61073 35.2667C6.23966 34.3704 3.74379 33.8076 1.37272 32.9323C2.28787 33.0365 3.22382 33.3492 4.11817 33.5575C5.67809 33.9118 7.2796 34.2037 8.81871 34.6623C9.50508 32.9531 10.2746 31.2648 11.1898 29.6598C10.857 29.5139 7.17561 27.7006 7.13401 27.6173H7.2172C8.54834 28.2843 10.0042 28.7636 11.3977 29.3264C12.2297 27.8882 13.1448 26.5126 14.1432 25.1995C12.4793 24.053 10.8154 22.8858 9.15149 21.7186C8.48593 21.2392 7.69558 20.8432 7.09241 20.2805C7.96596 20.6556 8.79792 21.26 9.60907 21.7395C11.2729 22.6982 12.9369 23.6361 14.58 24.6367C15.1623 23.8864 15.7864 23.1777 16.4311 22.469C17.0759 21.7811 17.7414 21.1141 18.4278 20.468C18.1574 20.1346 17.8246 19.8427 17.5127 19.5301C16.5974 18.6338 15.4327 17.6124 14.6424 16.6538C15.3079 17.1122 15.8904 17.6959 16.4935 18.217C17.263 18.8631 18.0535 19.4676 18.7814 20.1553C19.8213 19.1549 20.9653 18.2795 22.1092 17.4249C21.61 16.883 21.1732 16.2785 20.7364 15.7158C19.9669 14.757 19.2182 13.7773 18.4693 12.7978C17.7206 11.8181 16.8471 10.8593 16.1607 9.83799C16.8263 10.3799 17.3879 11.172 17.991 11.7972C19.0101 12.8811 20.0293 13.9858 21.0484 15.0904C21.6308 15.7158 22.234 16.3202 22.7539 16.9872C24.1475 15.945 25.749 15.0071 27.3089 14.2359C26.3106 12.4225 25.3122 10.5883 24.3762 8.75414C24.7506 9.15017 25.021 9.67125 25.3122 10.1298L26.9345 12.6726C27.2257 13.1103 27.4753 13.5898 27.808 14.0066C29.0144 13.3188 30.3455 12.7978 31.6351 12.2975C31.3231 11.6096 31.0735 10.8801 30.8031 10.1715C30.2207 8.64993 29.6384 7.12837 29.0768 5.60682C28.7025 4.60635 28.2032 3.64756 27.9328 2.62624C28.536 3.56419 28.952 4.71056 29.4512 5.71103C30.4703 7.79535 31.5518 9.90051 32.467 12.0473C33.4862 11.5471 36.1276 10.901 37.2923 10.6717C37.334 10.3174 37.1052 9.6504 37.0428 9.27522C36.71 7.54524 36.3147 5.79441 36.0237 4.06442C36.294 4.62719 36.4188 5.25249 36.5851 5.85694C36.8555 6.8991 37.1467 7.92042 37.4379 8.94173C37.5835 9.48366 37.7083 10.0673 37.9371 10.5883C38.4987 10.3382 39.5802 10.234 40.2042 10.234C40.3082 10.2132 40.3914 10.2132 40.4745 10.1715C40.5578 10.0464 40.5578 9.92136 40.5786 9.77546C40.5993 9.48366 40.5578 9.19186 40.5578 8.92089L40.5993 5.27333C40.5993 4.77309 40.5786 4.2937 40.5993 3.79346C40.7449 3.91852 41.0153 8.5874 41.0569 9.15017C41.0778 9.40028 41.0361 9.90051 41.1609 10.0881C41.3065 10.1715 41.4313 10.1506 41.5977 10.1506C42.7832 10.0881 45.0711 10.0464 46.1942 10.234C46.5687 7.89957 47.0262 5.56513 47.4838 3.25154C47.6918 2.18854 47.8166 1.04216 48.1078 0C48.1494 1.10469 47.8998 2.27191 47.775 3.35576C47.5462 5.64851 47.3382 7.96211 47.0678 10.2549C48.4406 10.4633 49.8965 10.5258 51.2276 10.8801C51.2276 10.8593 51.2483 10.8385 51.2691 10.7968C51.6643 9.98389 52.8498 5.41923 53.1202 5.2108C53.1619 5.46092 51.9763 10.2549 51.8099 10.9635C52.3507 11.1094 52.9123 11.2136 53.4531 11.3595C54.6178 11.6305 55.7825 11.964 56.9057 12.3809C56.9265 12.3809 56.9473 12.36 56.9473 12.36C57.0721 12.2766 60.0462 6.50308 60.3166 5.982C60.5247 5.58598 61.0655 4.37707 61.315 4.10611C61.315 4.2937 58.0704 11.9223 57.7168 12.6726C59.0688 13.1938 60.3999 13.7357 61.6686 14.4235C61.835 14.2984 62.0014 13.9858 62.1262 13.7982C61.4815 13.4648 60.8574 13.4022 60.1503 13.3188C60.8159 13.2771 61.731 13.298 62.2302 12.7561C62.7085 12.235 62.6253 11.4221 62.7085 10.7759C62.7918 11.3804 62.8541 11.964 63.0622 12.5268C63.4988 11.8598 64.0396 10.8593 64.5804 10.2965C64.2477 11.1511 63.6445 11.9849 63.1869 12.7769C63.6861 13.1312 64.1021 13.2563 64.7052 13.298C64.8924 13.298 65.1004 13.298 65.3084 13.3396C64.5181 13.6314 63.4781 13.2771 63.0413 14.2984C62.9374 14.5278 62.8957 14.7987 62.8541 15.028C63.3325 15.3823 63.9148 15.6741 64.4348 15.9868C65.3084 16.5287 66.1819 17.1122 67.0139 17.7168L67.6586 17.0498L67.7834 16.9247C68.1786 16.612 68.5323 16.1743 68.8858 15.82C69.7801 14.9238 70.6953 14.0066 71.5897 13.1103C72.0472 12.631 72.5048 12.1099 72.9831 11.6722C72.6088 12.36 71.964 12.9644 71.4649 13.5481L68.9898 16.487C68.5738 16.9872 67.9707 17.5708 67.6378 18.1336C67.5963 18.1961 67.5963 18.2587 67.5755 18.3212C67.513 19.4259 67.4715 20.7807 66.5771 21.5519C65.8076 22.2188 64.6429 22.2814 63.6861 22.3439C63.3534 22.3648 62.9997 22.3648 62.6878 22.4481C64.1229 22.7399 66.0363 22.3022 66.9723 23.7612C67.5963 24.7409 67.5755 26.0957 67.7211 27.2213C67.7626 26.0331 67.7419 24.4074 68.5531 23.4902C69.3641 22.5731 70.8825 22.5523 72.068 22.4898C71.0073 22.4481 69.5514 22.2397 68.7818 21.5727C67.8459 20.7598 67.8459 19.3425 67.7419 18.217C68.1994 18.6756 68.761 19.0716 69.2393 19.4883C69.9674 20.1137 70.6953 20.7598 71.3816 21.4477C71.9432 20.9682 72.5464 20.5514 73.1287 20.1137C73.6695 19.6968 74.2311 19.1758 74.8135 18.8839C74.6263 19.1549 72.068 21.3435 71.652 21.7186L72.38 22.469L72.4008 22.4898C73.4408 23.5737 74.3975 24.7617 75.2919 25.9915C75.7078 25.6997 81.49 22.6149 81.6355 22.594L81.5731 22.6357L81.5939 22.6566C80.242 23.4486 78.9317 24.3448 77.6214 25.1995C77.0182 25.5955 76.207 26.0124 75.6454 26.4708C76.7478 28.0549 77.7253 29.6807 78.6197 31.3898C79.514 30.9938 80.4916 30.7437 81.3859 30.3477C81.1988 30.6395 79.1604 31.4315 78.7236 31.6192C79.098 32.3486 80.8036 36.0587 80.7411 36.6215C82.7586 36.3714 84.7553 35.7461 86.7728 35.4752C86.4816 35.6627 81.5939 36.9966 80.9076 37.1426C81.2403 37.5803 82.4051 42.6869 82.3218 43.2497C82.3218 43.2913 82.301 43.333 82.2803 43.3539C83.0082 43.3122 83.7569 43.208 84.4641 43.2704C84.2146 43.3955 82.6339 43.5414 82.2803 43.5623C82.5714 44.0833 82.8003 48.0228 82.6547 48.6272C82.6547 48.648 82.6339 48.6689 82.6339 48.6897C83.0707 49.0023 87.0849 49.1275 88 49.315C87.3344 49.4818 84.5058 49.2525 83.5698 49.2317C83.4658 49.1482 83.0707 49.0858 82.8003 49.1691Z" fill="url(#paint0_linear_1_300)"/>
<path d="M72.7129 15.7158C72.8584 16.0492 72.796 16.4036 73.004 16.7371C73.212 17.0498 73.7736 17.0706 74.1063 17.154C73.8568 17.154 73.5032 17.154 73.2743 17.2581C72.9416 17.4041 72.8376 17.6959 72.7129 18.0086C72.5256 17.9043 72.484 17.55 72.3384 17.3832C72.1305 17.1331 71.6105 17.154 71.2985 17.154C71.6105 17.0914 71.9849 17.0498 72.2552 16.8621C72.6296 16.5912 72.6504 16.091 72.7129 15.7158Z" fill="#99D21C"/>
<path d="M67.9291 27.2629L67.9082 27.242C67.9291 27.242 67.9291 27.2629 67.9291 27.2629Z" fill="url(#paint1_linear_1_300)"/>
<path d="M42.0136 59.6115C43.2199 60.4244 44.3638 61.3415 45.5286 62.1961C48.1076 64.072 50.7075 65.9271 53.349 67.6986C52.4754 68.0322 51.2067 68.1155 50.2499 68.324C48.5236 68.6992 46.7973 69.1994 45.071 69.658C44.0519 69.9289 42.9704 70.1582 41.9928 70.5333C41.8472 69.9289 41.9304 69.2202 41.9304 68.595V62.6546C41.9304 61.6542 41.8888 60.6328 42.0136 59.6115Z" fill="#0D4C79"/>
<path d="M41.9928 23.5528C42.4504 23.7196 43.9895 24.9701 44.4887 25.3036L52.101 30.5353C53.765 31.6816 55.4913 32.7655 57.072 34.0369C57.1136 35.0165 57.072 35.9962 57.072 36.9758C57.072 37.7887 57.1136 38.6433 57.0303 39.4353C56.5104 39.1435 56.0529 38.7683 55.5744 38.414C54.8465 37.893 54.1185 37.3719 53.3698 36.8716L46.1526 31.8901C44.8006 30.9522 43.4487 29.8475 41.9928 29.097L41.9513 26.3458C41.9304 25.4287 41.8264 24.449 41.9928 23.5528Z" fill="#0D4C79"/>
<path d="M43.1784 15.8617C44.4679 16.6329 45.591 17.7167 46.9014 18.4671C49.1892 20.1137 51.4979 21.7186 53.8066 23.3236L55.9073 24.8242C56.2816 25.0952 56.6768 25.3454 57.0304 25.6371C57.28 27.2004 57.1344 28.9304 57.1136 30.5144C52.1843 26.9086 47.0262 23.5737 42.0552 20.0095C40.4537 21.531 38.769 22.99 37.1259 24.449C36.1899 25.2828 35.1084 26.0957 34.3389 27.0753V67.0734C34.3389 68.6992 34.3805 70.3458 34.3389 71.9507L32.2174 72.2009C31.219 72.3259 30.1999 72.305 29.2015 72.305C28.5984 72.305 27.9328 72.3468 27.3297 72.2633C26.7473 72.0549 25.853 72.0341 25.2081 71.9716V71.1587C25.2497 68.8868 25.2081 66.6149 25.2081 64.343L25.2289 51.0032C26.6017 50.1487 27.9536 49.2941 29.3056 48.4396C30.3039 47.8143 31.3023 47.2307 32.2382 46.5011C32.1549 43.0203 32.2382 39.5186 32.1966 36.0379L32.1758 30.0767C32.1758 29.0554 32.1341 28.034 32.1758 27.0336C32.1966 26.7209 32.2174 26.2207 32.3838 25.9498C32.6749 25.4704 33.4445 24.8868 33.8605 24.4908L38.041 20.5931C38.7066 19.9678 39.393 19.3841 39.9961 18.7172C41.1401 17.8001 42.0552 16.7162 43.1784 15.8617Z" fill="#0D4C79"/>
<path d="M41.9928 32.5987C42.9288 33.1407 43.7816 33.8285 44.6759 34.433L49.8548 38.018C53.7858 40.7068 57.6752 43.4372 61.5438 46.2093L64.6012 48.3979C65.0587 48.7313 65.5372 49.0232 65.9739 49.3567C66.2235 50.4406 66.0987 52.5457 66.0987 53.7546V63.2383C66.0987 64.1136 66.0987 65.01 66.0779 65.8853C66.0779 66.4064 66.0363 66.9483 66.0779 67.4485C65.3916 67.3026 64.6844 67.261 63.9772 67.1984C61.6061 67.0109 59.5055 67.1151 57.1344 67.2193C57.1344 66.9901 57.1344 66.74 57.1136 66.5106C55.8657 65.5102 54.5345 64.6556 53.2034 63.7593L45.4662 58.4235C44.2807 57.5897 43.0535 56.7977 41.9305 55.9015C41.8888 54.0881 41.9097 52.2956 41.972 50.4822C43.4487 51.6078 44.9879 52.6499 46.527 53.692L54.077 58.9028C55.0545 59.5907 56.0529 60.2368 57.0097 60.9664C57.0512 59.7992 57.0512 58.611 57.072 57.4438C55.8448 56.4434 54.4514 55.5888 53.1411 54.6717L45.4039 49.2941C44.4471 48.6272 42.7 47.6059 41.9513 46.8347V43.6665C41.9513 42.937 41.9305 42.2074 41.9928 41.478C42.6168 41.8531 43.1783 42.3325 43.7816 42.7494C44.5719 43.3122 45.3623 43.8541 46.1526 44.396C49.7924 46.8972 53.4322 49.4192 57.0512 51.9412C57.1344 50.7324 57.1344 49.586 57.0512 48.377C56.0944 47.8351 55.2209 47.189 54.3266 46.5429L51.0611 44.271L45.0502 40.1023C44.0311 39.3936 42.9912 38.7475 41.9928 38.018C41.9513 36.2672 41.8264 34.3496 41.9928 32.5987Z" fill="#0D4C79"/>
<path d="M63.6653 34.2036C63.7692 34.1828 63.8524 34.1828 63.9565 34.2036C63.998 34.2454 63.998 34.2454 64.0188 34.2871C64.206 34.704 64.414 37.4552 64.2476 37.8304C64.9964 37.8304 66.9931 37.893 67.617 38.1847C67.7418 38.2473 67.7834 38.289 67.8251 38.414C67.8042 38.4556 67.7834 38.4765 67.7626 38.4974C67.3674 38.9351 64.8716 38.9976 64.2476 39.0184C64.2684 39.0393 64.2684 39.081 64.2892 39.1019C64.4348 39.4979 64.1852 42.1658 64.0188 42.5618L63.8524 42.6243L63.6444 42.6034C63.1453 42.0824 63.5197 39.7896 63.1037 39.0602C62.1885 38.9768 61.1901 38.9351 60.2958 38.7266C60.0879 38.685 59.7967 38.6016 59.6927 38.3932C59.7135 38.3723 59.7134 38.3515 59.7342 38.3515C60.0671 37.9346 62.4797 37.893 63.1245 37.8512C63.2493 37.6429 63.4365 34.9541 63.6653 34.2036Z" fill="#2A3792"/>
<path d="M67.7626 31.5775C67.825 31.5775 67.8666 31.5775 67.9082 31.5775C67.929 31.5983 67.929 31.5983 67.9498 31.6192C68.0538 31.8484 68.1578 33.2866 68.0746 33.4951C68.4698 33.4951 69.5513 33.5158 69.8841 33.6826C69.9465 33.7243 69.9673 33.7452 70.0088 33.8076C69.988 33.8285 69.988 33.8285 69.9673 33.8494C69.7593 34.0786 68.4073 34.1203 68.0746 34.1203C68.0746 34.1412 68.0954 34.1412 68.0954 34.162C68.1786 34.3704 68.033 35.7877 67.9498 35.9962L67.8666 36.0379L67.7626 36.0171C67.4922 35.7461 67.7002 34.5163 67.4714 34.1412C66.9722 34.0995 66.4523 34.0786 65.9531 33.9744C65.8283 33.9536 65.6827 33.9118 65.6203 33.8076L65.6411 33.7868C65.8283 33.5784 67.1178 33.5367 67.4714 33.5158C67.5338 33.4116 67.6378 31.9735 67.7626 31.5775Z" fill="#2A3792"/>
<path d="M15.1207 65.531C15.1207 65.531 19.1765 71.2003 28.0576 70.7418C36.9387 70.2832 63.894 57.2563 79.2852 73.6807C79.2852 73.6807 66.5563 66.1146 44.4679 71.5755C22.4627 77.0365 17.2422 72.5134 15.1207 65.531Z" fill="#8ECE20"/>
<defs>
<linearGradient id="paint0_linear_1_300" x1="1.77073" y1="36.9682" x2="88.4983" y2="37.0379" gradientUnits="userSpaceOnUse">
<stop stop-color="#15E1FF"/>
<stop offset="0.0554407" stop-color="#19E0F8"/>
<stop offset="0.1382" stop-color="#23DCE3"/>
<stop offset="0.2382" stop-color="#33D6C2"/>
<stop offset="0.3515" stop-color="#4ACD94"/>
<stop offset="0.4745" stop-color="#68C359"/>
<stop offset="0.5151" stop-color="#72BF44"/>
<stop offset="0.7987" stop-color="#CDDA16"/>
<stop offset="0.95" stop-color="#F9E700"/>
</linearGradient>
<linearGradient id="paint1_linear_1_300" x1="9.31217" y1="5.87302" x2="121.507" y2="76.8957" gradientUnits="userSpaceOnUse">
<stop stop-color="white"/>
<stop offset="0.5151" stop-color="#8ECE20"/>
<stop offset="0.9975" stop-color="#231F20"/>
</linearGradient>
</defs>
</svg>
