<svg width="40" height="41" viewBox="0 0 40 41" fill="none" xmlns="http://www.w3.org/2000/svg">
<rect y="0.5" width="40" height="40" rx="6" fill="#0D4C79"/>
<path d="M30.4377 33.7695C30.393 33.8659 30.312 33.9399 30.2114 33.9763C30.1681 33.9916 30.122 34 30.0759 34C30.0159 34 29.9572 33.986 29.9041 33.9609L26.2682 32.2526C26.0684 32.1576 25.9818 31.9201 26.0754 31.719L26.5294 30.751H26.5308C26.2333 30.6071 25.9246 30.4842 25.6089 30.3837C24.7023 30.1252 23.7357 30.1755 22.8599 30.5247C21.336 31.1477 19.7562 31.624 18.143 31.9495C17.9195 31.9872 17.6946 32.0054 17.4697 32.0054C16.8398 32.004 16.2182 31.8629 15.6483 31.5933C13.5572 30.6323 11.5374 29.5218 9.60574 28.2703C8.7858 27.7325 8.09437 27.0229 7.57755 26.189C6.8987 25.147 6.29807 24.0575 5.77985 22.9274C5.48512 22.141 6.01591 21.3546 6.70175 21.0529C7.28143 20.8098 7.94493 20.8922 8.44777 21.268C8.75088 18.4017 10.0513 15.96 12.4023 13.8438C11.8911 13.6091 11.5712 13.0895 11.5936 12.528C11.6159 11.965 11.9763 11.4734 12.5043 11.2806C11.5168 9.97735 11.2597 8.82635 11.7654 7.92402H11.7668C12.0294 7.42815 12.5602 7.13343 13.1189 7.17112C13.408 7.19626 13.679 7.32058 13.8871 7.52172H14.3886C14.7224 7.16274 15.2001 6.97275 15.6904 7.00351C15.7072 7.00211 15.7225 7.00211 15.7393 7.00351C16.2296 6.97138 16.7087 7.16135 17.0411 7.52172H17.5426C17.7507 7.32058 18.0217 7.19626 18.3108 7.17112C18.8709 7.1334 19.4004 7.42813 19.6629 7.92402C20.1686 8.82635 19.913 9.97735 18.9254 11.2806C19.4548 11.4733 19.8138 11.9664 19.8361 12.5293C19.8571 13.0923 19.5372 13.6119 19.0246 13.8452C21.4201 16.0116 22.7582 18.5943 23.0099 21.539C24.6372 21.2554 26.312 21.6228 27.6711 22.5629L29.6448 24.1147L29.899 23.5756V23.5742C29.9437 23.4778 30.0247 23.4038 30.1253 23.3674C30.2244 23.3311 30.3348 23.3367 30.4312 23.3828L34.0728 25.0925C34.1692 25.1372 34.2433 25.2182 34.2796 25.3188C34.3159 25.4194 34.3103 25.5297 34.2656 25.6247L30.4377 33.7695ZM18.9656 8.3179C18.8539 8.09999 18.6276 7.9645 18.3817 7.97149C18.2337 7.98825 18.101 8.06647 18.0144 8.188C17.939 8.27599 17.8286 8.32628 17.7127 8.32628H16.8369C16.6986 8.32628 16.5701 8.25365 16.4974 8.13631C16.3284 7.86393 16.1608 7.8346 15.7152 7.80666C15.3003 7.8318 15.1076 7.85834 14.9344 8.13631C14.8604 8.25365 14.7319 8.32628 14.5936 8.32628H13.7178C13.6018 8.32628 13.4915 8.276 13.4146 8.188C13.3294 8.06647 13.1967 7.98825 13.0487 7.97149C12.8043 7.9645 12.5766 8.0986 12.4648 8.3179C11.969 9.20211 12.8224 10.448 13.4608 11.1912H17.9696C18.6051 10.4481 19.4615 9.20211 18.9656 8.3179ZM19.0368 12.5839C19.0368 12.4275 18.9754 12.2766 18.8636 12.1649C18.7533 12.0545 18.6024 11.9917 18.4446 11.9917H12.9857C12.6588 11.9917 12.3948 12.2571 12.3948 12.5825C12.3948 12.9094 12.6588 13.1748 12.9857 13.1748H18.4446C18.7714 13.1734 19.0354 12.9108 19.0368 12.5839ZM17.9515 13.9794H13.4759C10.7703 16.2045 9.3694 18.8125 9.1974 21.9439C10.6068 23.2262 11.8458 24.0657 12.9646 24.4917C13.3459 24.1732 13.8222 23.9917 14.3181 23.9777C15.1129 23.94 15.9021 23.824 16.6732 23.6285C17.6342 23.3533 18.5798 23.025 19.5045 22.6479C20.3748 22.2386 21.2827 21.9187 22.2158 21.6925C21.9853 18.6725 20.5884 16.1427 17.9512 13.9779L17.9515 13.9794ZM27.1958 23.2094C25.2836 21.895 22.9423 21.9495 19.8317 23.3812L19.8149 23.3882C18.8595 23.7793 17.8831 24.116 16.8914 24.3995C16.0686 24.609 15.2264 24.7361 14.3771 24.7766C14.0195 24.7738 13.6759 24.9163 13.4244 25.1706C13.1604 25.9053 13.1465 26.4193 13.3881 26.6945C14.081 27.4809 16.9962 26.7965 18.2045 26.5129H18.2059C19.403 26.1008 20.7244 26.2573 21.7914 26.9389C21.8836 26.9934 21.9492 27.0814 21.9758 27.1848C22.0009 27.2881 21.9856 27.3971 21.9311 27.4879C21.8179 27.6792 21.5721 27.7407 21.3821 27.6276C20.5035 27.0605 19.4112 26.9319 18.4264 27.2811C17.2154 27.6066 15.975 27.7994 14.7236 27.8566C13.845 27.8566 13.1857 27.6723 12.789 27.2225C12.377 26.7546 12.3057 26.0883 12.5739 25.1915C11.2441 24.6607 9.78583 23.6299 8.12766 22.0403C7.8427 21.7442 7.41109 21.645 7.02697 21.7875C6.68894 21.9355 6.40398 22.3071 6.52692 22.6311H6.52552C7.02836 23.7165 7.60805 24.7641 8.26039 25.767C8.71435 26.5017 9.32479 27.1275 10.0483 27.601C11.948 28.8316 13.9342 29.924 15.9918 30.8682C16.6203 31.1685 17.3258 31.2705 18.0144 31.1601C19.576 30.8431 21.1055 30.3793 22.5808 29.7759C23.1898 29.5426 23.8351 29.4211 24.4874 29.4183C24.9484 29.4155 25.4065 29.4839 25.8479 29.618C26.2125 29.7312 26.5687 29.8709 26.9123 30.0357L29.2967 24.8632L27.1958 23.2094ZM30.4532 24.2794L30.1641 24.8968C30.1613 24.9024 30.1613 24.908 30.1599 24.9121L27.4654 30.7508H27.464C27.4375 30.8053 27.3998 30.8528 27.3523 30.8905L26.9737 31.6993L29.8833 33.0668L33.3684 25.6468L30.4532 24.2794Z" fill="white"/>
<path d="M16.0842 20.4911C16.5256 20.4884 16.9586 20.3598 17.3287 20.1196L17.5355 20.6979C17.1388 20.9451 16.6806 21.0764 16.2127 21.0778V21.9508H15.6679V21.0527C14.9053 20.9828 14.3172 20.3501 14.3032 19.5832C14.3032 18.815 14.753 18.3652 15.6414 18.002C16.3929 17.6905 16.7142 17.4656 16.7142 17.0172C16.7142 16.6708 16.4641 16.2741 15.7978 16.2741L15.7992 16.2755C15.4165 16.2713 15.0408 16.3733 14.7111 16.5688L14.496 15.9989C14.8382 15.8034 15.2251 15.6986 15.619 15.6958V14.8591H16.1554V15.7321V15.7307C16.8846 15.7894 17.4489 16.3915 17.46 17.122C17.46 17.8735 16.9153 18.2702 16.0353 18.6166C15.3955 18.875 15.0589 19.1697 15.0589 19.6446C15.0575 20.1363 15.4709 20.4911 16.0842 20.4911Z" fill="white"/>
</svg>
