<svg width="632" height="631" viewBox="0 0 632 631" fill="none" xmlns="http://www.w3.org/2000/svg">
<path d="M1.6983 302.984C11.2852 386.305 59.2197 463.212 126.187 513.755C193.084 564.297 277.603 589.251 361.489 589.815C413.935 590.168 467.931 580.722 511.989 552.243C567.607 516.292 602.148 450.594 602.148 384.402C602.148 318.21 568.241 253.217 514.949 213.882C465.746 177.509 402.726 162.564 355.426 123.653C327.3 100.531 305.73 69.7265 275.418 49.5659C222.479 14.3904 153.89 22.638 103.489 57.8134C60.3475 87.9134 26.7934 144.8 11.7787 194.004C1.0639 229.109 -2.4607 266.469 1.6983 302.984Z" fill="#C8F2FF" fill-opacity="0.5"/>
<path d="M442.907 144.166C455.454 146.21 468.848 145.858 480.197 140.148C493.026 133.663 501.838 120.974 506.42 107.369C514.103 84.6004 510.649 58.448 497.679 38.2168C484.708 17.9856 462.574 4.02827 438.818 0.574166C405.898 -4.21928 350.351 21.4398 355.779 61.1267C361.418 102.435 403.502 137.822 442.907 144.166Z" fill="#C8F2FF" fill-opacity="0.5"/>
<path d="M502.654 251.686L504.417 256.761L504.276 251.897L519.149 253.8L520.277 262.894L521.687 254.082L550.236 257.748L549.954 266.418L551.717 257.959L590.84 262.964L590.98 267.617L592.249 263.105L595.14 263.458L594.999 269.52L596.408 263.669L610.295 265.432L610.507 274.384L613.749 265.854L631.725 268.181L614.031 307.797L493.49 295.109L487.287 249.712L502.654 251.686Z" fill="#FCE4B1"/>
<path d="M615.864 303.639L492.715 289.611L492.081 284.676L615.864 303.639Z" fill="#251B37"/>
<path d="M553.902 326.407L523.449 615.988C523.238 617.82 521.617 619.089 519.854 618.948C518.021 618.737 516.753 617.116 516.894 615.353L547.346 325.773L553.902 326.407Z" fill="#EA9653"/>
<path d="M583.649 316.75L577.164 328.874L524.507 323.305L521.476 309.419L583.649 316.75Z" fill="#5B97B5"/>
<path d="M618.684 303.991L489.895 289.328L492.222 303.427C492.715 306.528 495.253 308.855 498.354 309.207L605.008 320.415C607.828 320.697 610.577 319.287 611.846 316.75L618.684 303.991Z" fill="#72B000"/>
<path d="M616.64 275.159L605.643 298.422" stroke="#251B37" stroke-width="1.8721" stroke-miterlimit="10" stroke-linecap="round" stroke-linejoin="round"/>
<path d="M598.876 274.032L590.558 294.122" stroke="#251B37" stroke-width="1.8721" stroke-miterlimit="10" stroke-linecap="round" stroke-linejoin="round"/>
<path d="M588.936 272.974L584.143 282.843" stroke="#251B37" stroke-width="1.8721" stroke-miterlimit="10" stroke-linecap="round" stroke-linejoin="round"/>
<path d="M564.969 265.714L556.792 291.655" stroke="#251B37" stroke-width="1.8721" stroke-miterlimit="10" stroke-linecap="round" stroke-linejoin="round"/>
<path d="M535.292 260.92L532.12 285.663" stroke="#251B37" stroke-width="1.8721" stroke-miterlimit="10" stroke-linecap="round" stroke-linejoin="round"/>
<path d="M528.877 263.81L528.172 270.648" stroke="#251B37" stroke-width="1.8721" stroke-miterlimit="10" stroke-linecap="round" stroke-linejoin="round"/>
<path d="M507.8 259.44L509.985 283.971" stroke="#251B37" stroke-width="1.8721" stroke-miterlimit="10" stroke-linecap="round" stroke-linejoin="round"/>
<path d="M503.218 268.533L503.43 275.089" stroke="#251B37" stroke-width="1.8721" stroke-miterlimit="10" stroke-linecap="round" stroke-linejoin="round"/>
<path d="M489.331 294.686L616.499 308.079" stroke="#251B37" stroke-width="1.8721" stroke-miterlimit="10" stroke-linecap="round" stroke-linejoin="round"/>
<path d="M522.674 314.917L582.028 321.12" stroke="#251B37" stroke-width="1.8721" stroke-miterlimit="10" stroke-linecap="round" stroke-linejoin="round"/>
<path d="M470.862 281.222L502.584 570.661C502.795 572.494 501.456 574.115 499.694 574.327C497.861 574.538 496.24 573.199 496.028 571.437L464.307 281.997L470.862 281.222Z" fill="#EA9653"/>
<path d="M497.931 265.432L494.125 278.613L441.467 284.394L435.546 271.494L497.931 265.432Z" fill="#5B97B5"/>
<path d="M401.146 258.453L397.48 225.04L524.013 213.197L527.538 245.694L401.146 258.453Z" fill="#FFBD29"/>
<path d="M529.441 245.553L400.512 258.594L405.798 271.846C406.926 274.737 409.887 276.499 412.989 276.217L519.572 264.515C522.392 264.233 524.718 262.189 525.494 259.51L529.441 245.553Z" fill="#72B000"/>
<path d="M400.441 258.594L526.903 239.772L527.538 245.694L400.441 258.594Z" fill="#251B37"/>
<path d="M400.794 261.696L529.653 247.597" stroke="#251B37" stroke-width="1.8721" stroke-miterlimit="10" stroke-linecap="round" stroke-linejoin="round"/>
<path d="M436.956 275.935C437.379 275.864 437.872 275.864 438.295 275.794L497.438 269.308" stroke="#251B37" stroke-width="1.8721" stroke-miterlimit="10" stroke-linecap="round" stroke-linejoin="round"/>
<path d="M174.797 602.242L170.074 616.481H166.902V602.242H174.797Z" fill="#251B37"/>
<path d="M170.074 626.632C166.103 626.632 162.883 621.835 162.883 615.917C162.883 609.999 166.103 605.202 170.074 605.202C174.045 605.202 177.264 609.999 177.264 615.917C177.264 621.835 174.045 626.632 170.074 626.632Z" fill="#251B37"/>
<path d="M176.371 626.656H170.027V605.297H176.371V626.656Z" fill="#251B37"/>
<path d="M176.418 626.632C172.447 626.632 169.228 621.835 169.228 615.917C169.228 610 172.447 605.202 176.418 605.202C180.389 605.202 183.608 610 183.608 615.917C183.608 621.835 180.389 626.632 176.418 626.632Z" fill="#251B37"/>
<path d="M176.418 626.632C172.447 626.632 169.228 621.835 169.228 615.917C169.228 610 172.447 605.202 176.418 605.202C180.389 605.202 183.608 610 183.608 615.917C183.608 621.835 180.389 626.632 176.418 626.632Z" fill="#251B37"/>
<path d="M183.115 602.242L178.392 616.481H175.22V602.242H183.115Z" fill="#251B37"/>
<path d="M87.5278 602.242L82.7344 616.481H79.6327V602.242H87.5278Z" fill="#251B37"/>
<path d="M82.7343 626.632C78.7633 626.632 75.5441 621.835 75.5441 615.917C75.5441 609.999 78.7633 605.202 82.7343 605.202C86.7054 605.202 89.9245 609.999 89.9245 615.917C89.9245 621.835 86.7054 626.632 82.7343 626.632Z" fill="#251B37"/>
<path d="M89.1186 626.656H82.7743V605.297H89.1186V626.656Z" fill="#251B37"/>
<path d="M89.0786 626.632C85.1076 626.632 81.8884 621.835 81.8884 615.917C81.8884 610 85.1076 605.202 89.0786 605.202C93.0496 605.202 96.2687 610 96.2687 615.917C96.2687 621.835 93.0496 626.632 89.0786 626.632Z" fill="#251B37"/>
<path d="M89.0786 626.632C85.1076 626.632 81.8884 621.835 81.8884 615.917C81.8884 610 85.1076 605.202 89.0786 605.202C93.0496 605.202 96.2687 610 96.2687 615.917C96.2687 621.835 93.0496 626.632 89.0786 626.632Z" fill="#251B37"/>
<path d="M95.8458 602.242L91.0523 616.481H87.9508V602.242H95.8458Z" fill="#251B37"/>
<path d="M232.53 602.242L227.736 616.481H224.634V602.242H232.53Z" fill="#251B37"/>
<path d="M227.736 626.632C223.765 626.632 220.546 621.835 220.546 615.917C220.546 609.999 223.765 605.202 227.736 605.202C231.707 605.202 234.926 609.999 234.926 615.917C234.926 621.835 231.707 626.632 227.736 626.632Z" fill="#251B37"/>
<path d="M234.12 626.656H227.776V605.297H234.12V626.656Z" fill="#251B37"/>
<path d="M234.08 626.632C230.109 626.632 226.89 621.835 226.89 615.917C226.89 610 230.109 605.202 234.08 605.202C238.051 605.202 241.271 610 241.271 615.917C241.271 621.835 238.051 626.632 234.08 626.632Z" fill="#0D4C79"/>
<path d="M234.08 626.632C230.109 626.632 226.89 621.835 226.89 615.917C226.89 610 230.109 605.202 234.08 605.202C238.051 605.202 241.271 610 241.271 615.917C241.271 621.835 238.051 626.632 234.08 626.632Z" fill="#0D4C79"/>
<path d="M240.847 602.242L236.054 616.481H232.952V602.242H240.847Z" fill="#251B37"/>
<path d="M145.19 602.242L140.467 616.481H137.295V602.242H145.19Z" fill="#251B37"/>
<path d="M140.467 626.632C136.496 626.632 133.277 621.835 133.277 615.917C133.277 609.999 136.496 605.202 140.467 605.202C144.438 605.202 147.657 609.999 147.657 615.917C147.657 621.835 144.438 626.632 140.467 626.632Z" fill="#251B37"/>
<path d="M146.797 626.656H140.452V605.297H146.797V626.656Z" fill="#251B37"/>
<path d="M146.811 626.632C142.84 626.632 139.621 621.835 139.621 615.917C139.621 610 142.84 605.202 146.811 605.202C150.782 605.202 154.001 610 154.001 615.917C154.001 621.835 150.782 626.632 146.811 626.632Z" fill="#0D4C79"/>
<path d="M146.811 626.632C142.84 626.632 139.621 621.835 139.621 615.917C139.621 610 142.84 605.202 146.811 605.202C150.782 605.202 154.001 610 154.001 615.917C154.001 621.835 150.782 626.632 146.811 626.632Z" fill="#0D4C79"/>
<path d="M153.508 602.242L148.785 616.481H145.613V602.242H153.508Z" fill="#251B37"/>
<path d="M159.57 371.804H250.575V535.486H182.198V477.119L159.57 371.804Z" fill="#0D4C79"/>
<path d="M107.759 473.242L83.7917 371.804H159.57L182.551 473.242H107.759Z" fill="#013656"/>
<path d="M254.312 376.527H80.1967C77.5885 376.527 75.4736 374.412 75.4736 371.804C75.4736 369.196 77.5885 367.081 80.1967 367.081H254.312C256.92 367.081 259.034 369.196 259.034 371.804C259.034 374.412 256.92 376.527 254.312 376.527Z" fill="#2B8FCC"/>
<path d="M157.456 395.207H145.331L143.992 389.286H156.116L157.456 395.207Z" fill="#251B37"/>
<path d="M140.89 395.207H128.765L127.356 389.286H139.48L140.89 395.207Z" fill="#251B37"/>
<path d="M124.254 395.207H112.129L110.79 389.286H122.915L124.254 395.207Z" fill="#251B37"/>
<path d="M107.688 395.207H95.5637L94.1539 389.286H106.279L107.688 395.207Z" fill="#251B37"/>
<path d="M160.064 406.415H147.939L146.529 400.424H158.654L160.064 406.415Z" fill="#251B37"/>
<path d="M143.428 406.415H131.303L129.964 400.424H142.088L143.428 406.415Z" fill="#251B37"/>
<path d="M126.862 406.415H114.738L113.328 400.424H125.452L126.862 406.415Z" fill="#251B37"/>
<path d="M110.297 406.415H98.172L96.7621 400.424H108.887L110.297 406.415Z" fill="#251B37"/>
<path d="M162.601 417.624H150.477L149.137 411.632H161.262L162.601 417.624Z" fill="#251B37"/>
<path d="M146.036 417.624H133.911L132.572 411.632H144.626L146.036 417.624Z" fill="#251B37"/>
<path d="M129.47 417.624H117.346L115.936 411.632H128.06L129.47 417.624Z" fill="#251B37"/>
<path d="M112.834 417.624H100.71L99.3703 411.632H111.495L112.834 417.624Z" fill="#251B37"/>
<path d="M165.21 428.832H153.085L151.746 422.84H163.87L165.21 428.832Z" fill="#251B37"/>
<path d="M148.644 428.832H136.519L135.11 422.84H147.234L148.644 428.832Z" fill="#251B37"/>
<path d="M132.008 428.832H119.883L118.544 422.84H130.669L132.008 428.832Z" fill="#251B37"/>
<path d="M115.443 428.832H103.318L101.908 422.84H114.033L115.443 428.832Z" fill="#251B37"/>
<path d="M167.818 440.04H155.693L154.284 434.048H166.408L167.818 440.04Z" fill="#251B37"/>
<path d="M151.182 440.04H139.057L137.718 434.048H149.842L151.182 440.04Z" fill="#251B37"/>
<path d="M134.616 440.04H122.492L121.082 434.048H133.206L134.616 440.04Z" fill="#251B37"/>
<path d="M117.98 440.04H105.926L104.516 434.048H116.641L117.98 440.04Z" fill="#251B37"/>
<path d="M170.356 451.249H158.231L156.892 445.257H169.016L170.356 451.249Z" fill="#251B37"/>
<path d="M153.79 451.249H141.665L140.256 445.257H152.38L153.79 451.249Z" fill="#251B37"/>
<path d="M137.224 451.249H125.1L123.69 445.257H135.815L137.224 451.249Z" fill="#251B37"/>
<path d="M120.588 451.249H108.464L107.124 445.257H119.249L120.588 451.249Z" fill="#251B37"/>
<path d="M172.964 462.386H160.839L159.5 456.465H171.624L172.964 462.386Z" fill="#251B37"/>
<path d="M156.398 462.386H144.274L142.864 456.465H154.988L156.398 462.386Z" fill="#251B37"/>
<path d="M139.762 462.386H127.638L126.298 456.465H138.423L139.762 462.386Z" fill="#251B37"/>
<path d="M123.197 462.386H111.072L109.662 456.465H121.787L123.197 462.386Z" fill="#251B37"/>
<path d="M193.265 603.299H241.27C246.416 603.299 250.575 599.14 250.575 593.994V425.096L232.811 426.294L193.265 471.902V603.299Z" fill="#FFBD29"/>
<path d="M44.5276 471.832L59.8949 588.214C61.0228 596.814 68.3539 603.229 77.0244 603.229H193.265V471.832H44.5276Z" fill="#FFBD29"/>
<path d="M66.6621 528.014C67.0851 527.802 67.2966 527.379 67.3671 526.957C67.5785 526.04 67.1556 524.983 66.3097 524.419C64.7589 523.432 62.4327 524.56 62.9261 526.534C63.0671 527.168 63.5605 527.661 64.1245 527.943C64.6179 528.155 65.1818 528.155 65.6752 528.155C66.0277 528.155 66.3802 528.155 66.6621 528.014Z" fill="#EA9653"/>
<path d="M69.9753 526.392C68.7065 526.604 68.7769 528.719 69.1294 529.565C69.5523 530.692 70.6097 531.609 71.8081 531.961C72.1606 532.032 72.513 532.102 72.795 531.961C73.1475 531.82 73.4294 531.538 73.6409 531.186C74.2048 530.128 73.9934 528.719 73.1475 527.802C72.513 527.097 71.0327 526.251 69.9753 526.392Z" fill="#EA9653"/>
<path d="M67.6491 530.904C67.4376 530.834 67.2966 530.693 67.0851 530.693C66.6621 530.622 65.9573 531.045 65.7458 531.468C65.6048 531.75 65.5343 532.102 65.6753 532.384C65.8162 532.878 66.3097 533.16 66.7326 533.301C66.9441 533.371 67.1556 533.442 67.2966 533.371C67.7196 533.301 68.0015 532.878 68.1425 532.455C68.2835 532.173 68.354 531.82 68.2835 531.468C68.1425 531.256 67.931 531.045 67.6491 530.904Z" fill="#EA9653"/>
<path d="M169.862 583.703C169.58 583.632 169.298 583.491 168.946 583.491C168.523 583.562 168.17 583.844 167.888 584.196C167.324 584.971 167.395 586.17 167.959 586.945C169.087 588.355 171.625 588.144 171.907 586.17C171.977 585.535 171.695 584.83 171.272 584.408C170.849 584.055 170.356 583.844 169.862 583.703Z" fill="#EA9653"/>
<path d="M165.562 577.993C165.28 577.781 164.998 577.64 164.646 577.57C164.293 577.57 163.87 577.781 163.588 577.993C162.672 578.768 162.39 580.178 162.813 581.306C163.165 582.222 164.223 583.562 165.28 583.773C166.549 584.055 167.254 582.081 167.254 581.094C167.254 579.896 166.549 578.698 165.562 577.993Z" fill="#EA9653"/>
<path d="M169.51 580.883C169.933 581.094 170.708 580.953 171.061 580.671C171.272 580.46 171.413 580.178 171.484 579.825C171.484 579.332 171.202 578.909 170.779 578.557C170.638 578.416 170.426 578.275 170.285 578.275C169.862 578.204 169.439 578.486 169.157 578.839C168.946 579.05 168.664 579.332 168.734 579.685C168.734 579.966 168.946 580.248 169.087 580.46C169.157 580.601 169.298 580.742 169.51 580.883Z" fill="#EA9653"/>
<path d="M232.529 480.009C232.107 479.656 231.613 479.445 231.12 479.304C230.838 479.234 230.556 479.093 230.203 479.093C229.78 479.163 229.428 479.445 229.146 479.797C228.582 480.573 228.652 481.771 229.216 482.547C230.344 483.956 232.882 483.745 233.164 481.771C233.305 481.137 233.023 480.432 232.529 480.009Z" fill="#EA9653"/>
<path d="M230.838 477.824C231.261 478.035 232.036 477.894 232.388 477.612C232.6 477.401 232.741 477.119 232.811 476.766C232.811 476.273 232.529 475.85 232.107 475.497C231.966 475.356 231.754 475.215 231.613 475.215C231.19 475.145 230.767 475.427 230.485 475.779C230.274 475.991 229.992 476.273 230.062 476.625C230.062 476.907 230.274 477.189 230.415 477.401C230.485 477.542 230.626 477.683 230.838 477.824Z" fill="#EA9653"/>
<path d="M193.265 476.344L46.3605 485.719L45.0916 476.344H193.265Z" fill="#251B37"/>
<path d="M145.895 487.129L156.328 586.17C156.962 592.514 162.32 597.308 168.664 597.308H173.175" stroke="#251B37" stroke-width="3.028" stroke-miterlimit="10" stroke-linecap="round"/>
<path d="M193.265 476.555H40.4392C37.831 476.555 35.7162 474.44 35.7162 471.832C35.7162 469.224 37.831 467.109 40.4392 467.109H191.151L230.344 421.924C231.261 420.866 232.529 420.302 233.939 420.302H250.646C253.254 420.302 255.369 422.417 255.369 425.025C255.369 427.634 253.254 429.748 250.646 429.748H236.054L196.861 474.934C195.944 475.991 194.605 476.555 193.265 476.555Z" fill="#EA9653"/>
<path d="M225.692 553.18C226.185 552.263 226.185 551.136 225.692 550.149L207.293 512.577C206.8 511.66 206.025 511.096 205.108 511.096C204.192 511.096 203.346 511.66 202.923 512.577L184.525 550.149C184.031 551.065 184.031 552.193 184.525 553.18C185.018 554.096 185.793 554.66 186.71 554.66H223.577C224.423 554.731 225.198 554.167 225.692 553.18ZM205.32 513.916L223.718 551.488C223.788 551.629 223.788 551.77 223.718 551.84C223.648 551.911 223.577 552.052 223.436 552.052H186.569C186.428 552.052 186.357 551.981 186.287 551.84C186.216 551.77 186.216 551.629 186.287 551.488L204.685 513.916C204.756 513.775 204.897 513.704 204.967 513.704C205.108 513.775 205.249 513.775 205.32 513.916Z" fill="white"/>
<path d="M207.857 532.596C207.575 532.385 207.293 532.314 206.941 532.385L205.39 532.878L203.557 530.904C203.134 530.411 202.429 530.481 202.006 530.975C201.584 531.468 201.654 532.314 202.077 532.808L204.333 535.204C204.615 535.486 204.967 535.627 205.32 535.486L206.377 535.204L204.333 537.813L201.231 537.037C200.879 536.967 200.526 537.037 200.244 537.39L195.169 543.17C194.746 543.663 194.746 544.439 195.169 545.003C195.38 545.285 195.733 545.426 196.015 545.355C196.226 545.355 196.508 545.214 196.649 545.003L201.302 539.716L202.57 540.068L197.847 546.06C197.425 546.554 197.495 547.399 197.918 547.893C198.129 548.175 198.482 548.245 198.764 548.245C199.046 548.245 199.257 548.104 199.469 547.822L208.421 536.403L208.562 536.544L208.844 539.927L208.069 540.914C207.646 541.408 207.646 542.254 208.069 542.747C208.28 543.029 208.633 543.17 208.915 543.099C209.197 543.099 209.408 542.958 209.62 542.747L210.748 541.337C210.959 541.055 211.1 540.703 211.029 540.35L210.677 535.768C210.677 535.416 210.466 535.063 210.254 534.852L207.857 532.596Z" fill="white"/>
<path d="M209.902 529.635C208.985 529.706 208.351 530.693 208.421 531.75C208.492 532.808 209.338 533.583 210.254 533.512C211.17 533.442 211.805 532.455 211.734 531.398C211.664 530.34 210.818 529.565 209.902 529.635Z" fill="white"/>
<path d="M275.248 357.706L250.434 463.302C250.011 464.994 248.531 466.193 246.769 466.193H229.639C227.525 466.193 225.833 464.501 225.833 462.386C225.833 460.271 227.525 458.579 229.639 458.579H243.738L267.846 355.943C267.987 355.379 267.705 354.886 267.564 354.674C267.423 354.463 267.07 354.111 266.436 354.111H155.411C154.777 354.111 154.213 354.533 154.072 355.097L150.054 367.011H142.088L146.952 352.63C148.221 348.965 151.605 346.497 155.482 346.497H266.507C269.256 346.497 271.864 347.766 273.556 349.952C275.247 352.207 275.882 355.027 275.248 357.706Z" fill="#251B37"/>
<path d="M248.531 596.814C255.51 577.146 266.788 557.832 279.829 535.415C313.807 477.189 356.031 404.794 356.031 271.846H284.834C284.834 385.55 249.518 446.102 218.29 499.535C204.051 523.925 190.587 546.976 181.352 572.987L248.531 596.814Z" fill="#0D4C79"/>
<path d="M354.833 615.282H426.03C426.03 561.286 419.262 459.284 413.835 377.302C410.662 329.65 407.702 284.605 407.702 271.776H336.505C336.505 286.932 339.184 326.83 342.779 382.025C348.136 463.02 354.833 563.682 354.833 615.282Z" fill="#0D4C79"/>
<path d="M302.387 273.538C302.387 429.466 223.647 514.832 198.905 579.261" stroke="#2B8FCC" stroke-width="3.0593" stroke-miterlimit="10"/>
<path d="M363.503 349.317L374.853 615.142" stroke="#2B8FCC" stroke-width="3.0593" stroke-miterlimit="10"/>
<path d="M425.959 615.353C430.823 620.922 462.544 622.332 462.544 630.227H354.903V615.353H425.959Z" fill="#251B37"/>
<path d="M248.461 596.673C251.139 603.581 280.605 615.565 277.997 622.966L176.559 586.945L181.564 572.917L248.461 596.673Z" fill="#251B37"/>
<path d="M285.046 271.846H407.631L407.984 283.971L285.046 271.846Z" fill="#251B37"/>
<path d="M343.484 380.827L347.502 305.259" stroke="#251B37" stroke-width="3.0593" stroke-miterlimit="10" stroke-linecap="round" stroke-linejoin="round"/>
<path d="M356.313 341.915L393.392 380.122" stroke="#251B37" stroke-width="3.0593" stroke-miterlimit="10" stroke-linecap="round" stroke-linejoin="round"/>
<path d="M293.575 288.341C298.862 296.589 308.731 301.805 318.53 301.453" stroke="#251B37" stroke-width="3.0593" stroke-miterlimit="10" stroke-linecap="round" stroke-linejoin="round"/>
<path d="M296.466 299.338C301.329 305.683 307.18 311.252 313.736 315.833" stroke="#251B37" stroke-width="3.0593" stroke-miterlimit="10" stroke-linecap="round" stroke-linejoin="round"/>
<path d="M476.079 257.114C477.771 257.114 479.462 257.043 481.154 256.832C534.587 251.052 539.099 163.501 541.777 111.196C542.13 104.076 542.623 95.1941 543.046 92.8679L496.38 84.3384C495.464 89.3433 495.112 96.1105 494.407 108.729C493.49 126.845 492.221 151.588 488.274 173.581C484.326 195.575 479.462 204.597 476.854 208.052C471.215 201.355 464.8 183.168 459.513 173.581C443.159 143.763 419.474 115.284 405.939 115.284V162.725C402.767 162.725 400.512 161.456 400.018 160.963C404.177 164.558 411.438 181.758 415.808 191.979C428.144 221.163 443.3 257.114 476.079 257.114Z" fill="#FFAAA3"/>
<path d="M467.479 191.627C445.908 203.681 430.33 223.137 430.33 223.137L424.69 212.422L456.271 188.948L467.479 191.627Z" fill="#251B37"/>
<path d="M412.002 115.425C434.982 118.386 457.257 170.832 469.734 190.71C439.071 203.61 420.179 220.317 420.179 220.317C413.764 207.487 405.869 178.656 405.869 178.656L412.002 115.425Z" fill="#72B000"/>
<path d="M496.451 85.2548C499.059 67.4909 507.941 52.1942 532.472 44.5811L550.448 79.1926C550.448 79.1926 552.844 89.3434 542.694 92.7975C532.543 96.2516 496.451 85.2548 496.451 85.2548Z" fill="#FFAAA3"/>
<path d="M539.733 36.8271C539.803 37.532 539.663 38.2369 539.451 38.9418C539.24 39.5058 534.164 52.8992 524.859 59.8779C522.745 61.4992 519.643 61.0763 518.021 58.891C516.4 56.7058 516.823 53.6746 519.008 52.0533C524.859 47.6123 529.159 38.5894 530.358 35.4877C531.274 32.95 534.094 31.6812 536.631 32.5976C538.394 33.373 539.592 34.9943 539.733 36.8271Z" fill="#FFAAA3"/>
<path d="M536.279 45.7793C534.376 51.5596 531.062 56.8465 526.692 61.1465C529.723 63.3318 532.12 66.4334 533.318 69.958C534.517 73.4826 534.657 77.4301 533.53 81.0252" stroke="#251B37" stroke-width="3.0593" stroke-miterlimit="10" stroke-linecap="round" stroke-linejoin="round"/>
<path d="M481.824 22.2154L588.096 3.42603L590.857 19.044L484.585 37.8334L481.824 22.2154Z" fill="#72B000"/>
<path d="M482.634 38.2367L592.954 18.7104L593.8 23.6449L552.985 30.8351C541.848 37.3908 548.826 70.381 551.787 82.0826C552.351 84.2679 550.871 86.5236 548.615 86.9466C546.43 87.3695 544.315 85.8187 544.033 83.6334C542.341 71.2269 536.349 34.8531 526.339 35.6285L483.551 43.1711L482.634 38.2367Z" fill="#0D4C79"/>
<path d="M558.343 74.6803C558.554 76.9361 557.074 79.1213 554.818 79.7557L541.989 83.3508C539.38 84.0558 536.702 82.5754 535.997 79.9672C535.292 77.359 536.772 74.6803 539.381 73.9754L552.21 70.3803C554.818 69.6754 557.497 71.1557 558.202 73.7639C558.272 74.0459 558.272 74.3984 558.343 74.6803Z" fill="#FFAAA3"/>
<path d="M557.567 65.1642C557.779 67.42 556.299 69.6052 554.043 70.2396L541.213 73.8347C538.605 74.5396 535.927 73.0593 535.222 70.4511C534.517 67.8429 535.997 65.1642 538.605 64.4593L551.435 60.8642C554.043 60.1593 556.722 61.6396 557.427 64.2478C557.497 64.5298 557.567 64.8118 557.567 65.1642Z" fill="#FFAAA3"/>
<path d="M556.792 55.5778C557.003 57.8335 555.523 60.0188 553.267 60.6532L540.438 64.2483C537.83 64.9532 535.151 63.4729 534.446 60.8647C533.741 58.2565 535.222 55.5778 537.83 54.8729L550.659 51.2778C553.267 50.5729 555.946 52.0532 556.651 54.6614C556.722 55.0139 556.792 55.2958 556.792 55.5778Z" fill="#FFAAA3"/>
<path d="M556.017 46.061C556.228 48.3167 554.748 50.5019 552.492 51.1364L539.663 54.7315C537.054 55.4364 534.376 53.9561 533.671 51.3479C532.966 48.7397 534.446 46.061 537.054 45.356L549.884 41.761C552.492 41.056 555.171 42.5364 555.876 45.1446C555.946 45.4265 556.017 45.779 556.017 46.061Z" fill="#FFAAA3"/>
<path d="M541.213 73.8348L552.14 70.7332" stroke="#251B37" stroke-width="3.0593" stroke-miterlimit="10" stroke-linecap="round" stroke-linejoin="round"/>
<path d="M540.085 64.8118L551.012 61.7102" stroke="#251B37" stroke-width="3.0593" stroke-miterlimit="10" stroke-linecap="round" stroke-linejoin="round"/>
<path d="M539.028 55.7884L549.954 52.6868" stroke="#251B37" stroke-width="3.0593" stroke-miterlimit="10" stroke-linecap="round" stroke-linejoin="round"/>
<path d="M273.626 103.512C268.339 99.9166 263.052 94.7707 263.052 88.356C263.052 83.2101 266.577 78.6281 270.806 75.7379C275.106 72.9183 280.111 71.4379 284.975 69.7461C291.038 67.6314 297.734 64.2478 299.285 57.974C300.695 52.4756 297.523 46.8363 297.311 41.1265C297.03 32.5969 303.938 24.8428 312.256 22.6576C320.503 20.4723 329.526 23.2215 336.434 28.2969C343.343 33.3723 348.277 40.633 352.366 48.1051L341.721 49.1625C340.805 44.4396 333.897 42.8183 330.302 45.9904C326.707 49.1625 326.566 55.0838 329.033 59.1723C331.5 63.2609 336.011 65.7986 340.523 67.2789C345.105 68.7592 349.828 69.4642 354.41 71.015C355.961 71.5084 357.582 72.2133 358.216 73.6937C359.485 76.4429 356.666 79.1215 355.326 81.8002C352.929 86.4527 355.185 92.374 358.992 95.9691C362.798 99.5642 367.874 101.467 372.597 103.653C380.844 107.459 388.528 112.535 395.366 118.526C397.128 120.077 398.961 121.981 399.031 124.307C399.102 127.972 394.943 130.228 391.277 130.44C383.735 130.933 376.826 126.704 369.566 124.589C357.723 121.205 344.33 123.884 334.743 131.497C328.821 136.22 324.31 142.635 317.684 146.23C311.48 149.613 304.22 150.177 297.17 150.53C291.531 150.812 285.68 150.953 280.534 148.697C275.388 146.441 271.089 141.154 271.934 135.586C272.569 131.426 275.67 128.184 278.42 124.941C281.169 121.769 283.777 117.822 283.072 113.663C282.226 108.94 277.574 106.12 273.626 103.512Z" fill="#251B37"/>
<path d="M338.939 57.1188C336.133 54.9552 336.5 49.7773 339.757 45.5536C343.014 41.3299 347.929 39.6599 350.735 41.8234C353.54 43.987 353.174 49.1649 349.917 53.3886C346.659 57.6123 341.745 59.2824 338.939 57.1188Z" fill="#FFBD29"/>
<path d="M382.254 73.2707C375.769 80.6019 366.887 85.7478 357.23 87.7216C352.366 88.7085 346.867 88.779 342.849 85.8183C340.171 83.8445 338.479 80.8134 337.421 77.7117C334.249 68.7593 335.518 58.3265 340.664 50.3609C348.489 38.3068 368.015 30.6232 380.633 40.1396C391.7 48.5986 390.854 63.4724 382.254 73.2707Z" fill="#251B37"/>
<path d="M292.448 129.665C292.448 129.665 307.18 121.629 340.593 115.003L373.161 110.562C373.161 110.562 387.682 110.491 414.892 115.919C414.892 115.919 410.874 189.371 406.292 271.776H284.975C285.046 271.847 288.007 187.539 292.448 129.665Z" fill="#72B000"/>
<path d="M334.32 116.271C343.484 153.209 374.853 146.794 380.21 110.914L373.161 110.562L340.593 115.003L334.32 116.271Z" fill="#FFAAA3"/>
<path d="M384.017 54.8022C386.695 68.1956 390.502 86.1711 382.395 92.0924C379.857 93.9957 375.275 94.1366 375.275 94.1366L374.641 117.046L341.933 121.981L344.048 64.6711L354.551 49.4448C354.551 49.3743 381.549 42.6071 384.017 54.8022Z" fill="#FFAAA3"/>
<path d="M343.484 79.0511L353 70.8035C346.021 67.8429 345.457 62.2035 349.264 60.2297C353.071 58.3265 355.961 62.9789 355.961 62.9789C358.639 60.7232 380.633 60.8642 383.241 52.7576C378.518 42.3248 354.762 43.4527 346.515 52.1937C342.074 56.7757 343.484 79.0511 343.484 79.0511Z" fill="#251B37"/>
<path d="M383.523 65.2352C383.171 64.6713 382.466 64.3188 381.831 64.3893C381.197 64.4598 380.562 64.8827 380.28 65.5172" stroke="#251B37" stroke-width="3.0593" stroke-miterlimit="10" stroke-linecap="round" stroke-linejoin="round"/>
<path d="M373.654 66.3625C373.02 65.6576 372.315 64.8822 371.398 64.6707C370.834 64.6002 370.2 64.7412 369.707 65.0937C369.213 65.4461 368.79 65.8691 368.438 66.3625" stroke="#251B37" stroke-width="3.0593" stroke-miterlimit="10" stroke-linecap="round" stroke-linejoin="round"/>
<path d="M377.602 66.5039C378.236 68.9006 378.871 71.3678 379.505 73.7646" stroke="#251B37" stroke-width="3.0593" stroke-miterlimit="10" stroke-linecap="round" stroke-linejoin="round"/>
<path d="M378.307 78.2053C376.615 81.5184 372.597 82.4348 370.905 76.584L378.307 78.2053Z" stroke="#251B37" stroke-width="3.0593" stroke-miterlimit="10" stroke-linecap="round" stroke-linejoin="round"/>
<path d="M366.323 92.2336C366.323 92.2336 371.328 94.2074 375.275 94.1369L375.064 100.763L366.323 92.2336Z" fill="#251B37"/>
<path d="M407.631 271.846L410.592 194.728L398.326 166.461L396 112.676L383.875 111.195L378.518 160.963H332.628L330.302 117.187L317.261 120.571L312.115 166.108L288.218 198.041L285.046 271.846H407.631Z" fill="#0D4C79"/>
<path d="M380.28 174.285L331.077 173.581C331.077 173.581 341.58 193.248 358.78 193.248C375.98 193.248 380.28 174.285 380.28 174.285Z" fill="white"/>
<path d="M306.969 198.535C310 206.43 316.485 212.845 324.38 215.876" stroke="#251B37" stroke-width="3.0593" stroke-miterlimit="10" stroke-linecap="round" stroke-linejoin="round"/>
<path d="M250.998 499.746L309.224 509.051C311.833 509.474 314.3 507.782 314.934 505.245C320.292 481.7 328.469 452.869 338.267 421.148L250.787 407.191C251.069 435.528 250.011 464.5 246.839 494.318C246.487 496.927 248.32 499.323 250.998 499.746Z" fill="#5B97B5"/>
<path d="M247.615 410.856L340.029 425.66C342.144 426.012 344.118 424.532 344.47 422.487L344.541 421.994C344.893 419.879 343.413 417.906 341.369 417.553L248.954 402.75C246.839 402.397 244.866 403.878 244.513 405.922L244.443 406.415C244.09 408.53 245.5 410.504 247.615 410.856Z" fill="#7EC4E0"/>
<path d="M336.998 425.096L250.787 415.65V411.35L336.998 425.096Z" fill="#251B37"/>
<path d="M264.744 409.447C276.305 336.206 339.254 347.696 333.403 416.214" stroke="white" stroke-width="3.0593" stroke-miterlimit="10" stroke-linecap="round" stroke-linejoin="round"/>
<path d="M274.683 357.354L302.387 318.865C267.423 293.699 248.249 262.683 250.998 235.826C252.761 218.767 263.052 204.95 276.234 194.165C295.197 178.586 301.682 152.504 291.672 130.088C224.564 159.976 206.8 201.426 203.769 231.032C199.187 275.583 225.057 321.614 274.683 357.354Z" fill="#FFAAA3"/>
<path d="M211.664 201.143C227.524 204.738 253.043 225.745 253.043 225.745L256.92 215.805C256.92 215.735 233.728 197.618 211.664 201.143Z" fill="#251B37"/>
<path d="M292.447 129.665C229.428 154.337 210.606 201.002 210.606 201.002C244.936 205.937 260.092 222.855 260.092 222.855C267.07 213.197 274.049 206.501 280.111 201.989C291.743 193.319 298.721 179.784 298.58 165.333L298.298 142.494L292.447 129.665Z" fill="#72B000"/>
<path d="M309.295 387.523C307.815 386.889 306.687 385.479 306.475 383.787C306.123 381.25 307.744 378.923 310.141 378.36C311.551 376.809 313.031 369.971 313.313 363.979C313.454 361.301 315.71 359.186 318.389 359.256C321.067 359.397 323.182 361.653 323.112 364.332C322.83 370.958 321.279 386.607 312.044 387.946C311.057 388.087 310.141 387.946 309.295 387.523Z" fill="#FFAAA3"/>
<path d="M302.034 384.211C300.554 383.576 299.426 382.166 299.215 380.475C298.862 377.937 300.484 375.611 302.88 375.047C304.29 373.496 305.77 366.658 306.052 360.666C306.193 357.988 308.449 355.873 311.128 355.943C313.807 356.084 315.921 358.34 315.851 361.019C315.569 367.645 314.018 383.294 304.784 384.634C303.797 384.775 302.81 384.563 302.034 384.211Z" fill="#FFAAA3"/>
<path d="M294.703 380.897C293.223 380.263 292.095 378.853 291.884 377.161C291.531 374.624 293.152 372.297 295.549 371.733C296.959 370.183 298.439 363.345 298.721 357.353C298.862 354.674 301.118 352.56 303.797 352.63C306.475 352.771 308.59 355.027 308.52 357.706C308.238 364.402 306.687 379.981 297.452 381.32C296.466 381.461 295.549 381.25 294.703 380.897Z" fill="#FFAAA3"/>
<path d="M287.443 377.584C285.962 376.95 284.834 375.54 284.623 373.848C284.271 371.31 285.892 368.984 288.289 368.42C289.698 366.869 291.179 360.032 291.461 354.04C291.602 351.361 293.857 349.247 296.536 349.317C299.215 349.458 301.33 351.714 301.259 354.392C300.977 361.089 299.426 376.668 290.192 378.007C289.205 378.078 288.218 377.937 287.443 377.584Z" fill="#FFAAA3"/>
<path d="M290.121 312.45C321.067 323.376 326.495 350.727 322.195 372.65L289.557 365.46C279.125 368.702 274.261 356.648 274.261 356.648L290.121 312.45Z" fill="#FFAAA3"/>
<path d="M301.752 356.296C301.752 356.296 300.907 370.887 293.857 376.386" stroke="#251B37" stroke-width="2.772" stroke-miterlimit="10" stroke-linecap="round" stroke-linejoin="round"/>
<path d="M308.59 359.397C308.59 359.397 307.744 373.989 300.695 379.487" stroke="#251B37" stroke-width="2.772" stroke-miterlimit="10" stroke-linecap="round" stroke-linejoin="round"/>
<path d="M315.428 362.499C315.428 362.499 314.582 377.091 307.533 382.589" stroke="#251B37" stroke-width="2.772" stroke-miterlimit="10" stroke-linecap="round" stroke-linejoin="round"/>
<path d="M305.7 324.081C317.895 334.443 337.492 361.865 337.492 361.865C332.134 370.817 319.375 357.635 319.375 357.635L305.7 324.081Z" fill="#FFAAA3"/>
<path d="M563.066 610.418L568.987 509.756H439.917L445.415 609.502C446.049 621.133 455.636 630.226 467.338 630.226H542.13C553.197 630.156 562.431 621.485 563.066 610.418Z" fill="#FFBD29"/>
<path d="M509.915 512.858L568.494 517.722L568.846 512.858H509.915Z" fill="#251B37"/>
<path d="M484.89 626.632C495.253 626.632 503.782 618.595 504.346 608.233L509.844 514.62" stroke="#251B37" stroke-width="1.7221" stroke-miterlimit="10" stroke-linecap="round" stroke-linejoin="round"/>
<path d="M438.225 505.668H570.749C575.402 505.668 575.402 512.858 570.749 512.858H438.225C433.572 512.858 433.572 505.668 438.225 505.668Z" fill="#72B000"/>
<path d="M492.222 534.78L490.177 602.1C490.036 605.836 484.326 605.836 484.397 602.1L485.736 534.78C485.807 530.058 492.362 530.058 492.222 534.78Z" fill="#EA9653"/>
<path d="M476.29 534.78L475.938 602.1C475.938 605.836 470.157 605.836 470.157 602.1L469.805 534.78C469.805 530.058 476.361 530.058 476.29 534.78Z" fill="#EA9653"/>
<path d="M460.43 534.78L461.769 602.1C461.84 605.836 456.059 605.836 455.989 602.1L453.944 534.78C453.803 530.058 460.289 530.058 460.43 534.78Z" fill="#EA9653"/>
<path d="M432.938 556.492C433.22 557.197 433.925 557.69 434.771 557.69H442.525H442.595L442.384 553.813H439.564L474.528 519.131C475.303 518.356 475.303 517.158 474.528 516.382C473.753 515.607 472.554 515.607 471.779 516.382L433.431 554.377C432.797 554.871 432.585 555.717 432.938 556.492Z" fill="#0D4C79"/>
<path d="M153.508 314.424C142.296 314.424 133.207 305.334 133.207 294.122C133.207 282.91 142.296 273.821 153.508 273.821C164.72 273.821 173.81 282.91 173.81 294.122C173.81 305.334 164.72 314.424 153.508 314.424Z" fill="#2B8FCC"/>
<path d="M156.68 280.024C159.148 280.376 161.544 281.504 163.236 283.337C164.998 285.099 166.126 287.496 166.338 289.963" stroke="white" stroke-width="3.4455" stroke-miterlimit="10" stroke-linecap="round"/>
<path d="M166.831 294.616C166.831 295.109 166.831 295.673 166.831 296.167" stroke="white" stroke-width="3.4455" stroke-miterlimit="10" stroke-linecap="round"/>
<path d="M588.936 454.35C577.724 454.35 568.635 445.261 568.635 434.049C568.635 422.836 577.724 413.747 588.936 413.747C600.149 413.747 609.238 422.836 609.238 434.049C609.238 445.261 600.149 454.35 588.936 454.35Z" fill="#2B8FCC"/>
<path d="M592.108 419.95C594.576 420.303 596.972 421.431 598.664 423.263C600.426 425.026 601.554 427.422 601.766 429.89" stroke="white" stroke-width="3.4455" stroke-miterlimit="10" stroke-linecap="round"/>
<path d="M602.259 434.542C602.259 435.035 602.259 435.599 602.259 436.093" stroke="white" stroke-width="3.4455" stroke-miterlimit="10" stroke-linecap="round"/>
<path d="M123.09 153.975C121.975 149.038 125.073 144.132 130.01 143.018C134.947 141.903 139.852 145.001 140.967 149.937C142.082 154.874 138.984 159.78 134.048 160.895C129.111 162.01 124.205 158.911 123.09 153.975Z" fill="#2B8FCC"/>
<path d="M133.418 145.666C134.546 145.807 135.603 146.371 136.379 147.147C137.154 147.922 137.647 149.05 137.788 150.178" stroke="white" stroke-width="1.5531" stroke-miterlimit="10" stroke-linecap="round"/>
<path d="M138 152.222C138 152.434 138 152.716 138 152.927" stroke="white" stroke-width="1.5531" stroke-miterlimit="10" stroke-linecap="round"/>
<path d="M457.687 131.51C456.681 126.549 459.887 121.713 464.848 120.707C469.808 119.702 474.645 122.908 475.65 127.868C476.656 132.828 473.45 137.665 468.49 138.67C463.529 139.676 458.693 136.47 457.687 131.51Z" fill="#2B8FCC"/>
<path d="M468.113 123.32C469.241 123.461 470.299 124.025 471.074 124.801C471.849 125.576 472.343 126.704 472.484 127.832" stroke="white" stroke-width="1.5531" stroke-miterlimit="10" stroke-linecap="round"/>
<path d="M472.695 129.876C472.695 130.088 472.695 130.37 472.695 130.581" stroke="white" stroke-width="1.5531" stroke-miterlimit="10" stroke-linecap="round"/>
<path d="M104.455 342.91C96.7081 342.866 90.463 336.55 90.5067 328.803C90.5504 321.055 96.8664 314.81 104.614 314.854C112.361 314.898 118.606 321.213 118.562 328.961C118.519 336.708 112.203 342.953 104.455 342.91Z" fill="#2B8FCC"/>
<path d="M106.631 319.147C108.323 319.358 109.944 320.204 111.143 321.402C112.341 322.601 113.116 324.293 113.328 325.984" stroke="white" stroke-width="2.3751" stroke-miterlimit="10" stroke-linecap="round"/>
<path d="M113.68 329.157C113.68 329.509 113.68 329.862 113.68 330.214" stroke="white" stroke-width="2.3751" stroke-miterlimit="10" stroke-linecap="round"/>
<path d="M560.267 209.636C558.886 201.933 564.011 194.57 571.714 193.19C579.416 191.809 586.779 196.934 588.16 204.637C589.54 212.339 584.415 219.702 576.713 221.083C569.01 222.463 561.647 217.338 560.267 209.636Z" fill="#2B8FCC"/>
<path d="M576.318 197.408C578.01 197.619 579.702 198.465 580.9 199.663C582.099 200.932 582.874 202.554 583.085 204.316" stroke="white" stroke-width="2.3968" stroke-miterlimit="10" stroke-linecap="round"/>
<path d="M583.368 207.488C583.368 207.84 583.368 208.193 583.368 208.545" stroke="white" stroke-width="2.3968" stroke-miterlimit="10" stroke-linecap="round"/>
</svg>
